<?xml version="1.0" encoding="utf-8"?>
<!-- Generator: Adobe Illustrator 24.1.0, SVG Export Plug-In . SVG Version: 6.00 Build 0)  -->
<svg version="1.1" id="Calque_1" xmlns="http://www.w3.org/2000/svg" xmlns:xlink="http://www.w3.org/1999/xlink" x="0px" y="0px"
	 viewBox="0 0 2712.3 1944.5" style="enable-background:new 0 0 2712.3 1944.5;" xml:space="preserve">
<style type="text/css">
	.st0{fill-rule:evenodd;clip-rule:evenodd;fill:#FFFFFF;}
	.st1{fill-rule:evenodd;clip-rule:evenodd;}
	.st2{fill:#FFFFFF;}
</style>
<g>
	<g id="body_x2F_mono_x2F_Macbook">
		<path id="_xD83C__xDFA8_-Background_4_" class="st0" d="M994.4,1449.3c-5.2,3-4.6,9-1.5,12.5l-0.2,0.2c1.9,1.6,4,2.6,6.4,3.1
			c6.6,69.5,24.8,139.9,36.7,208.8c-2.6,3.8-2,9.2,0.7,13.1c0.1,4.3,3.2,7.9,7.1,9c0,0,0,0,0,0c8,8.4,33.2,29.2,39,11.8
			c42.7,7.3,86.5,8.8,129.6,12.3c5.5,26.2-2.8,55.3,9.4,79.4c13.1,21.5,30.4,33.1,29.5,33.4l39.9,8.7c-9.1,1.7-9.1,15.9-0.1,18
			c14.7,2.2,30.5-1.6,45.4-1.4c116.9-6.1,244.8-3.5,361.7-7.9c0-5.6,5.6-12.3,0-22.8c32.5,11.5,78.4,2.3,88.7-30.5
			c5,0.2,13.1-75.4,11.1-108.5c2.5-2,5.4-3,8.8-3.7c9-2,8.1-15.7,0.3-17.6c-3.2-40.4-16.1-80-32-117.1c-4.5-12.9-4.8-27.4-9-40.6
			c-31.3-140.7-95.7-134.7-208.8-184.8c12.7-11.7-18.2-45.5-21-41.9c-1.8-0.2-20.5-0.1-22.3,0.1c-16.6-32.3-60.6-31.2-91.6-24.8
			c-34.5,6.6-50.2,35.5-49.1,68.8c-1.6-1.2-25,5.3-19.2,15.3c-2.7,2.3-4.3,5.9-4.6,9.3c-19.3-1-57.1,22.2-73.6,33.7
			c-9.7,7.7-14.9,18.7-18.8,30.2c-6.1,18.6-12.4,37.2-21.4,54.6c-0.2,0-0.3,0-0.5,0.1c-5.1-4.5-11.4-0.2-17,0.3
			c-1.7-1.6-4.4-2-5.8,0.3c-56.3-5.4-113.1-14.5-169.9-18.8c-11.9-1.2-23.7-2.3-35.6-3.5C1002.1,1447.7,998.6,1446.9,994.4,1449.3z"
			/>
		<path id="_xD83D__xDD8D_-Ink_6_" class="st1" d="M1513.1,1280.2c8.2-0.8,16.9-1.3,24.4,1.4c0.5-0.4,2.3,0.4,2.1,0.9
			c2.4,1.1,4.6,2.6,6.7,4.6c4.4,4.3,7.9,9.5,11.2,14.7l1.2,1.9c2,3.1,3.9,6.3,6,9.3l0.2,0.3c1.8,2.6,2.6,5.3,0,7.8
			c-0.9,0.9-2.6,1.3-3.7,0.5c0,0-0.1-0.1-0.1-0.1l-0.2-0.2c-0.3,0.7-0.7,1.3-1.1,2c11.2,4.5,22,10.2,33.3,14.7
			c12.7,5.1,25.6,9.8,38.5,14.4l1.1,0.4c24.9,9,50.2,18.5,71.8,34.1c11.6,8.4,21.7,18.2,30.2,29.7c9.2,12.3,15.9,26.2,21.8,40.3
			c11.7,28.3,20.6,58,29.1,87.5l2.4,8.4c5.4,18.8,10.5,37.7,15.1,56.7c4.7,19.4,9.7,38.7,11.8,58.6c3.2,3.4,4,8.4,1.3,12.7
			c-3.3,5.3-9.2,6.2-14.8,6.5l-0.9,0c-1.5,0.1-1.6-2-0.3-2.4c3.7-1.3,15.1-6.4,10.6-11.4c-2.1,0.2-4.4-0.6-5.6-2.4
			c-2.4-0.2-5,0.3-7.4,0.9c2.2,17.7,2.8,35.5,2.9,53.3c0.1,16.7-0.2,33.5-4.2,49.8c-3.5,14.3-10.1,27.7-19.4,39.1
			c-8.8,10.9-19.7,19.7-33.8,22.1c-14.5,2.4-29.1,0.3-43.4-3.9c0.4,1.5,0.7,3.1,0.9,4.6c0.6,4.3,2.5,10.6,0.4,14.6
			c-1.1,2.2-4,2.2-5.7,0.7c-3.2-2.8-2.4-7.7-2-11.7l0.1-0.7c0.3-3.3,0.4-6.4,0.2-9.5c-12.4-4.2-24.4-9.9-35.6-15.5l-2.4-1.2
			c-32.4-16.4-64.4-33.4-96.6-50.1l-16.2-8.4c-16.1-8.4-32.3-16.9-48.4-25.3c-2.7,0.3-5.5-0.1-8.2-1.2c-2.8-1.2-5.5-2.7-6.9-5.5
			c-0.2-0.4-0.4-1-0.6-1.5l-21.3-11.2c-8.1,3.9-17,6.4-25.3,9.9c-8.9,3.7-17.6,7.8-26.5,11.6c-17.6,7.5-35.6,13.8-55,13.9
			c-2.2,0-3.7-1-4.6-2.4c-0.8,1.1-2.1,1.8-3.7,1.8c-13.9-0.2-27.6-1.6-41.4-3.1l-9-1c0.2,0.9,0.3,1.7,0.4,2.6c0.4,2.4,0.7,4.7,1,7.1
			c0.7,5.5,1.1,11.1,1.4,16.7c0.6,10.9,0.7,21.8,0.4,32.6c-0.3,10.6-1.4,21.2-2.8,31.7c-0.7,5.4-1.5,10.9-2.4,16.3
			c-0.9,5.2-1.2,10.4-4.9,14.4c-1.9,2-5,0.8-5.8-1.5c-1.8-5.1,0.2-10.6,1.2-15.7c-7.8,1.3-18.6-2.2-24.3-4.4l-0.8-0.3
			c-6.5-2.6-12.3-6.8-17.8-11c-5.4-4.1-10.9-8.4-15.4-13.4c-4.9-5.5-8.3-11.7-9.4-19c-0.8-5.8-1.2-11.7-1.5-17.7l-0.4-7.3
			c-0.7-13.4-0.6-26.5,0.9-39.8l-100-11.4c-18.8-2.1-37.9-3.4-56.5-6.7c-7.3-1.3-14.6-3.9-19.9-9.5c-4.8-5.1-7.8-11.6-9.7-18.3
			c-2.1-7.5-3.1-15.2-4.3-22.9c-1.5-9.5-3.4-18.9-5.1-28.4c-3.2-18.7-6.4-37.4-9.5-56.2c-7.1-42.9-13.5-86-20.8-128.9
			c-0.4-2.6,1.1-5.4,4.1-5.3c75.6,2.1,151.1,9.5,225.7,21.9c3.4,0.6,6.9,1.2,10.3,1.8c1.3-3.9,4-7.7,5.5-11.1
			c1.9-4.3,3.5-8.6,5.1-13l1-2.9c3.9-11,7.5-22.5,13-32.7c5.6-10.4,13.1-19.2,22.6-26.2c8.5-6.3,18.5-10.6,28.4-14.5l2.5-1
			c12.5-4.9,25.4-9,37.4-15c0.7-0.4,1.7,0.6,0.9,1.2c-17.7,14.4-39.8,21.2-58.1,34.6c-9,6.6-16.2,14.5-21.6,24.3
			c-5.2,9.2-8.9,19-12.6,28.9l-1.5,4.1c-2,5.5-4.1,10.9-6.5,16.2l-0.2,0.4c-1.1,2.5-2.3,5.9-3.9,8.8c1.9,0.3,3.8,0.7,5.8,1
			c8.6,1.6,17.4,2.8,25.9,5.2c7.4,2.1,13.7,6,17.6,12.8c4.1,7.2,6.2,15.7,8.7,23.5l1.1,3.4c11.1,34.2,20.9,68.7,29.4,103.7
			c4.9,20.3,9.4,40.6,13.5,61c0.4,2.1,0.8,4.2,1.2,6.2c2.9,0.6,5.2,0,8.2-0.8l1.8-0.5c3.3-0.9,6.4-0.9,8.9,1.4
			c2.9-4.2,7.4-7.7,11.6-9.9c5.8-3.1,12.2-5.1,18.6-6.6l3.3-0.8c6.3-1.5,13.6-3,19.6-1.7c2.3,0.5,2,3.6,0,4.3
			c-3.9,1.3-8.2,1.2-12.2,1.8c-3.6,0.5-7.2,1.2-10.7,2.1c-6.2,1.5-12.6,3.3-18.1,6.6c-4.6,2.8-11.7,9.5-9.5,15.7
			c2.3,6.4,12.4,1.9,17.3-0.4l2.5-1.2c10.8-5.4,23.2-12.5,35.3-6.7c6.3,3,11.5,7.3,18.1,9.6c4,1.3,8.3,2.5,12.7,3.2
			c0.5-1.9,2.6-3.5,4.9-2.3c12.4,6.4,24.8,12.7,37.1,19.1c2-0.2,3.9-1,5.5-2.1c6.3-4.6,9.4-13.6,11.4-20.9l0.4-1.4
			c2.5-9.1,5.1-20,3.8-29.4c-0.4-2.6-1.2-4.8-2.4-6.7c-7-1.8-14-3.7-21-5.5c-11.1-2.9-22.8-5-33.5-9.2c-2.3-0.9-2.5-3.3-1.3-4.6
			c-13.7-3.8-27.1-8.4-40.7-12.5c-4.9-1.5-9.9-3-14.8-4.4l-9.9-2.9c-6.9-2-19.3-8-23.9,0.6c-0.9,1.7-2.8,1.8-4.1,1
			c-2.4,2.9-5,5.6-7.6,8.3c-3.4,3.4-7.4,9.1-12.3,9.7c-1.6,0.2-2.4-1.6-2.2-2.9c0.5-2.5,1.9-3.6,3.7-5.2l0.4-0.4
			c2.2-2,4.5-4.1,6.8-6c3.2-2.7,6.5-5.4,10-7.7c2.8-7.1,10.9-8.6,17.8-7.3c9.4,1.7,18.8,5.2,28,8.3l2.1,0.7c17.8,6,36,12,52.9,20.3
			c9.2,1.7,18.2,4.7,27.2,7.2l12,3.2c-1.2-0.7-2.5-1.4-3.8-2.1c-0.6-0.3-0.5-1.2,0-1.5c6.6-4,13.7-1.7,19.1,3.5
			c1.6,1.6,2.9,3.4,4,5.3c20,5.3,39.9,10.5,59.9,15.9c27.6,7.4,55.2,14.9,82.7,22.5c-1.1-3-1.4-6.6-1.9-9.1l-0.3-1.4
			c-1-5.1-1.6-10.4-2.4-15.5l-0.3-2c-1.6-10.9-2.8-21.7-3.4-32.7c-0.6-11.2-1.4-22.4-1.6-33.5c-0.1-5.7,0-11.5,0.4-17.2
			c0.4-5,0.7-10.7,3.3-15.1c0.3-0.5,0.9-0.4,1.1,0c2.7,3.6,3.9,8.3,4.8,12.8l0.4,1.8c0.1,0.3,0.1,0.6,0.2,0.9
			c3.3-6.1,7.3-11.9,12.4-16.5c0.6-0.5,1.8,0,1.4,0.8c-3,7.3-6.5,14.3-8.9,21.8c-0.9,2.8-1.8,5.6-2.5,8.5l0.2,1.3
			c1.6,11.2,2.6,22.4,4,33.6l0.3,2.6c1.3,10.3,2.2,20.6,2.9,30.9c0.4,5.4,1,10.9,1.2,16.3l0,0.3c0.2,4.1,1.3,10.7-1.1,14.4
			c2.2,0.6,4.4,1.2,6.6,1.9c-0.8-3.1,0.3-6.9,4.1-8.3c30.8-11.8,63-18.6,95.6-22.9c7.2-0.9,16.7-4.2,25.1-3.9
			c-4.1-14.5-7.1-29.3-10.7-44c-4.1-16.7-8.4-33.3-12.9-49.8c-8.9-32.3-18.4-64.6-29.9-96.1c-10-27.3-23.4-53.7-46.2-72.7
			c-19.3-16.1-43.1-26.1-66.4-35.2l-4-1.5c-13.5-5.2-27.2-10.1-40.3-16.1c-12-5.5-25-11.5-34.9-20.5c-4.2,6.5-9.4,12.5-14,18.8
			c-7.6,10.5-14.4,21.6-20.4,33.1c-5.8,11.1-10.1,22.8-15.8,33.9c-2.8,5.4-13.7,26.9-21.3,16.6c-0.6-0.9-0.7-2.1-0.3-3.1
			c-1.4-2-3.3-3.9-4.6-5.8c-1.8-2.5-3.5-5.1-5.3-7.6c-4-5.7-8.2-11.2-12.4-16.6c-4.2-5.3-8.4-10.6-12.5-15.9
			c-2.1-2.7-4.7-5.7-6.6-8.8c-1.6,4.9-1.1,10,0.4,15.4c2.1,7.7,5.4,15.5,4.1,23.6c-1.1,7.6-6.3,12.5-11.9,17.1l-2.2,1.7
			c-7.2,5.9-13.3,12.9-17.8,21.1c-2.3,4.2-4.1,8.7-5.2,13.4c-1,4.5-1,9.2-2.2,13.7c-0.5,2-3.7,2.6-4.6,0.6
			c-3.4-7.1-1.5-15.9,0.9-23.1l0.3-0.7c2.9-8.1,7.5-15.4,13.2-21.9c2.6-3,5.4-5.7,8.5-8.3c3.4-2.9,7.3-5.4,10-9
			c5.3-7,1.5-16-0.7-23.5l-0.2-0.9c-2.2-7.5-3.4-15.3-0.5-22.9c2.8-7.1,8.2-12.5,14.2-17c6.4-4.9,13.5-8.6,20.3-12.9
			c7.8-4.8,15.3-10.1,22.4-15.8c6.5-5.2,12.9-10.8,19.1-16.5c-3.5-3-6-6.9-8.2-10.8c-2.7-4.9-5.8-10.8-6.6-16.3
			c-1.3-9.3,10.6-12.7,14.1-3.9 M1224.8,1764c1.1,6.7,2.2,13.3,3,20c0.7,5.4,1,11.6,3.5,16.6c1.8,3.7,4.8,6.8,7.7,9.7l3,2.9
			c3.6,3.6,7.4,6.9,11.6,9.8c4.3,3,8.9,5.9,13.9,7.7c3,1.1,10.7,3.5,12.8,1c1-1.2,2.1-1.7,3.3-1.8l0.2-1.1l0.3-2.1
			c1.5-10.7,2.4-21.5,3.1-32.3c0.7-11.1,1-22.3,0.8-33.4c-0.1-5.6-0.2-11.1-0.4-16.7c0-1.1-0.2-2.5-0.3-3.9l-25.1-2.7
			c-11.5-1.3-23.1-2.5-34.6-3.8l-10.5-1.2 M1522.2,1673.1c-0.2,9.1-1.5,18.6-3.7,27.4c-2.1,8.3-5.3,16.8-11.3,23.1
			c-1,1.1-2.2,2-3.4,2.9c45.1,23.3,90.3,46.6,135.4,70c27.6,14.3,55.8,31.5,87.6,33.7c6.6,0.5,13.4,0.3,19.8-1.5
			c6.9-1.9,12.5-5.6,17.8-10.5c10.3-9.6,18.2-22,23.1-35.1c6.1-16.2,7.5-33.7,8.4-50.8l0.1-2.9c0.8-15.4,0.8-30.8,0.8-46.2l0-10.9
			l-3.4,0.9c-4.4,1.1-8.7,2.5-13.1,3.5c-6.3,1.4-12.8,2.3-19.1,3.7c-24.7,5.2-48.8,12.6-72.5,21.1c3.2,0.9,6.5,1.8,9.7,2.7
			c17.4,5,35.6,10.7,48.4,24.3c0.4,0.4-0.2,1.1-0.7,0.7c-11.9-11.2-27.5-15.9-43-19.8l-3.2-0.8c-19.6-4.9-39.3-9.5-58.9-14.4
			c-39.6-10-79-20.8-118.5-31.3l-1.1-0.3 M1470.5,1742.8l1.2,1.7c2.1,2.9,4.1,5.8,6.1,8.7c4.8,7,9.5,14,14.2,21
			c9.4,14,18.5,28.1,26.4,43.1c1.6,3.1-2.5,6.8-5.1,3.9c-11.2-12.8-20.7-26.8-29.2-41.4c-4.2-7.3-8.3-14.7-12.2-22.1
			c-2-3.7-3.9-7.5-5.6-11.4l-0.2-0.3c-1.4-3.1-3.3-6.5-3.2-10c0-0.5,0.5-0.7,0.9-0.5 M1014.3,1558.1c6.4,36.9,11.9,73.9,18.9,110.7
			l0.1,0.4c2.3,12.2,5.5,27.4,19.2,31.2c8,2.2,16.9,2.3,25.1,3.3l140,15.7c21.2,2.4,42.3,4.8,63.4,7.3l2,0.2
			c20.4,2.4,41,4.2,61.1,8.5c0.7,0.2,1.4,0.5,1.9,0.8c-4.1-15.3-7.9-30.7-11.5-46.2c-4-17.4-7.7-34.9-12-52.3
			c-8.5-35-18.1-69.8-28.6-104.3c-2.6-8.7-5.3-17.4-8.1-26c-2.4-7.3-4.3-16.3-11.4-20.5c-6.7-4-16-4.6-23.6-6.1l-4.5-0.9
			c-7.6-1.4-15.1-2.8-22.7-4.1c-36.3-6.2-72.9-11.3-109.5-15c-39.4-4-79-6.6-118.6-7.8 M1347.9,1735.4c0.8-0.6,1.9-0.9,3.2-0.9
			c18,0.1,35.3-6,51.9-12.4l6.8-2.6c6.9-2.6,13.8-5.2,20.8-7.3c6.8-2.1,14.2-4.3,21.5-4.6l-1.6-0.8c-0.2-0.1-0.4-0.3-0.6-0.4
			c-3,0.2-6.1,0.2-9.3-0.4c-6-1.1-11.9-3.2-17.3-6.1c-6.6-3.6-11.8-6.7-19.6-5c-6.9,1.4-12.9,5.2-19.1,8.3
			c-7.6,3.8-23.3,10.1-26.7-2.2c-1.2-4.4-0.3-8.6,1.9-12.2c-4.1-0.4-11.6,4.6-17,5 M1406.5,1661.7l8.6,2.1c0.3,0.1,0.3,0.6-0.1,0.6
			c-7.7-0.7-15.3-1.4-22.9-2.3c-6.7-0.8-13.5-2.4-20.3-2.6c-6.3-0.2-9.8,2.8-13.5,6.6l-2.5,2.7c-3.8,3.9-8.3,6.9-13.8,5.2
			c-2.2-0.6-1.7-3.7,0.5-3.8c7.4-0.5,10.9-7.5,16.1-11.7c4.3-3.5,9.2-4.2,14.6-3.5 M1402.4,1636.7c8.2,1.7,16.8,3.5,24.3,7.2
			c0.9,0.4,0.4,1.7-0.5,1.7l0,0c-7.4-0.6-14.7-2.6-22.1-3.8c-7.8-1.3-15.6-2.3-23.5-3c-8.1-0.7-15.5-1.5-22.6,3.2
			c-6.3,4.1-11.9,9.7-19.4,11.5c-1.1,0.3-2.1-0.9-1.5-1.9c3.9-6.2,10.8-10.7,17-14.5l1.3-0.8c7-4.2,14.1-4.2,21.9-3.4l0.9,0.1
			 M1640.8,1451.4c-1.8,10.6-3.8,21.1-5.4,31.7c-3.3,21-6.4,42.1-9.7,63.2c-0.5,3.2-5.5,2.3-5.5-0.7c0.2-21.6,2.4-42.8,6.5-64
			c2.1-10.5,4.3-20.9,7.2-31.2c2.7-9.8,5.4-20.8,10.4-29.7c0.3-0.5,1.2-0.3,1.2,0.3 M1592.3,1513.9c0.8,4-5.2,5.7-6.2,1.7
			c-6.5-26.4-3.1-54.7,7.1-79.7c0.5-1.1,2.3-0.7,1.9,0.5 M1455.1,1433.9c-2.5,2.6-5.5,4.3-8.9,5.3c-2.6,0.8-5.7,0.9-8,2.5
			c-1.6,1.2-2.3,3-3.5,4.5c-0.8,1.1-2.5,0.6-3.1-0.4c-1.9-3,0-6.1,2.5-8.1c3.7-3,8.5-2.7,12.7-4.4c8.5-3.5,10.5-12.6,15.3-19.4
			c0.5-0.6,1.6-0.5,1.6,0.4 M1385.8,1310.6l0.1,1.4c0.2,5.3-0.1,10.6-0.9,15.9c-0.8,5.5-2,11-3.5,16.4l-0.1,0.3
			c-0.9,3.4-1.8,8.2-4.6,10.6c2.6,4.9,5.1,9.9,7.7,14.8c4.2,8,8.6,16.1,15.4,22.1c6.4,5.6,12.7,10.4,17.1,17.8
			c3.2,5.4,8.6,15.7,3.4,21.2c-0.7,0.7-1.9,0.9-2.7,0.3c-2.5-1.6-3.6-4.2-4.5-6.9l-0.5-1.5c-1.2-3.8-2.8-7.4-5-10.8
			c-4.7-7.3-12.2-11.9-17.7-18.5c-5-6.1-8.3-13.2-11.5-20.4l-0.6-1.4c-2.1-4.9-4.1-10-5.7-15.3c-1-0.2-1.8-0.7-2.5-1.6
			c-1.9-2.5-1.2-5.5-0.2-8.3l0.2-0.4c-0.1-0.5-0.2-1-0.3-1.5c-0.1-0.5,0.6-0.9,0.9-0.4l0,0.1l0.2-0.5c0.1-0.3,0.2-0.6,0.3-0.9
			c1.6-4.7,3-9.4,4.3-14.1c1.1-4.5,2.1-9,3.3-13.5c0.6-2.2,1.1-4.5,1.6-6.7c0.1-0.6,1-4.4,1.7-5.9c-0.6-0.4-0.6-1-0.2-1.6
			c0.3-0.4,0.8-0.6,1.3-0.3 M1366.1,1332.7l-2.4,1.8c-2.9,2.2-6.9,4.6-8.6,7.8c-1.8,3.5-0.9,8-0.5,11.7l0.1,1
			c0.4,3.4,0.9,6.9,1,10.4c0.6,0.1,1.2,0.4,1.7,0.9c3.3,4.3,5.3,9.4,9,13.5c3.3,3.7,7.2,6.9,9.8,11.2c3.7,6.1,4.6,13.3,4.4,20.4
			c1.3-1,2.6-2,3.9-3l0.2-0.1c2.7-2.1,6.5-5.9,10.3-5c3.1,0.7,5.4,4.8,7.2,7.2l0.5,0.7c2.6,3.6,4.8,7.5,6.7,11.6
			c0.3,0.6-0.5,1-0.9,0.5c-2.1-2.8-4.4-5.5-6.9-8l-0.2-0.2c-1.3-1.4-5.3-5.7-6.9-5.4c-0.7,0.1-3,2.7-3.5,3.2l-1.2,1
			c-0.8,0.7-1.6,1.4-2.4,2.1c-0.9,0.8-1.9,1.6-2.8,2.4l-5.7,4.7c-2.5,2.1-7.3,1-7-2.9c0.7-9.5,1.9-20.2-4.6-28.1
			c-5.1-6.2-12.1-12-14.6-19.9c-2.1,0.6-4.5-0.1-5.1-2.8c-1.1-5.3-1.2-10.9-1.5-16.3l0-0.4c-0.3-4.5-0.5-9.2,1.6-13.4
			c1.9-3.8,5.6-6.2,9.2-8.2l0.5-0.3c4.5-2.5,9.5-5.5,14.6-6.6c0.8-0.2,1.8,0.8,1.2,1.6 M1527.5,1300.6l-1.9,2.4
			c-5.5,6.9-11.9,13.1-18.4,19c-12.3,11.2-26.2,20.2-40.3,28.8l-3.8,2.3c-5.8,3.5-11.6,7.5-15.8,12.9c-0.6,0.8-1.2,1.7-1.7,2.5
			c4.4,2.3,8.3,7.2,11.3,10.5l1.6,1.8c4.3,4.7,8.6,9.5,12.7,14.5c4.5,5.4,9,10.9,13.1,16.5l0.2,0.2c1.8,2.4,5.6,6.7,7.1,10.7
			c0.2-0.2,0.3-0.4,0.5-0.5c3.8-4.7,6.9-10,9.6-15.4c5.4-10.8,9.8-21.9,15.7-32.5c6-10.8,12.9-20.8,20.7-30.4
			c5.1-6.2,19.7-22.1,19.9-22.4c0.6-0.7,1.1-1.4,1.6-2.2c-0.5-0.7-1.4-1.8-1.7-2.3c-0.7-1.2-1.4-2.4-2.1-3.6c-1.5-2.8-3-5.6-4.5-8.4
			c-2.8-5.2-5.7-10.5-9.8-14.9c-1.3-1.4-2.7-2.5-4.2-3.3 M1515.4,1290.6c0.8,3.4,1.8,6.9,2.3,10.5c5.3-5.2,10.5-10.8,15.9-15.9
			c-6.1-2.2-13.3-2-19.9-2.6"/>
	</g>
	<g id="head_x2F_mono_x2F_Gray-Short">
		<path id="_xD83C__xDFA8_-Background_5_" class="st0" d="M1406.9,1311.6c-55.2,0.4-96.8-45.2-106.3-98.5
			c-11.9-34.2,15.7-140.6,27.6-183.4l-7.7,3.7c-12.9-7.1-20.5-21-3.9-27.2c-6.1-8.2-11.4-17-15.3-26.6
			c66.9-24.2,123.7-52.9,197.6-37c17.7,3.1,46,9.8,62.4,22.3c5.4,4,9.8,9.2,14.4,14.2c5.2,5.8,12.4,9.1,17.3,14.8
			c24,37.6,13.1,130.9-2.6,166.3c7.5,18.6,8.3,43.4-12.5,55.2c-9.9,4.6-20.3,4.2-27.6-5c-4.7,22.2-20.6,44.4-40.9,59.5
			c-3.3,2.4-8.4,6.9-12.6,5.8c-10.9,8.6-28.9,16.8-43.8,22.1C1441,1306.5,1425.3,1311.8,1406.9,1311.6"/>
		<path id="_xD83D__xDD8D_-Ink_8_" class="st1" d="M1329.3,1283.1c-18-19.1-29.5-43.9-34.5-69.5c-5.8-29.8-1.8-59.8,4.3-89.2
			l0.4-1.9c5.9-28.1,12.9-56,20.1-83.8c-0.7-0.1-1.4-0.4-2.1-0.8c-7.5-4.9-16.5-11.6-16.3-21.5c0.1-3,0.9-5.8,2.3-8.1
			c1.1-1.9,2.6-3.5,4.4-4.7c-5.1-7.3-9.2-15.2-12.5-23.6c-0.5-1.3-0.3-2.6,0.3-3.7c0.7-1.1,1.8-2.1,3-2.5c5.4-2,10.8-3.9,16.2-5.9
			c11.6-4.2,23.2-8.5,34.8-12.8c1.4-0.5,2.8-1,4.2-1.5c14.9-5.5,29.8-11,45.2-15c33.1-8.7,67.5-8.4,101-2.2
			c15.5,2.8,31.1,6.5,45.7,12.7c6.7,2.8,13.2,6.3,19.1,10.7c5.1,3.8,9.1,8.3,13.3,12.9c0.2,0.3,0.5,0.5,0.7,0.8l1.1,1.3
			c2.4,2.6,5.3,4.8,8.2,6.9c3.3,2.4,6.6,4.9,9.3,8.1c4.7,5.5,7.7,12.2,9.4,19.2c3.8,15.7,4.9,32.5,5.4,48.6
			c1.1,34.3-2.8,70-15.5,102.2c0.1,0.3,0.3,0.6,0.4,0.9c4.1,10.6,5.2,24.2,1.9,36c-2.8,10.2-8.8,19-18.6,23.7
			c-4.5,2.1-10.5,3.6-16.3,3.4c-3.9-0.1-7.7-1.1-10.7-3.1c-4.3,13.7-12.7,26.2-22.1,36.8c-5.5,6.2-11.8,11.8-18.4,16.8l-0.6,0.4
			c-3,2.3-7.7,5.8-11.9,6.6c-1.7,0.3-3.4,0.2-4.9-0.4c-1.3-0.6-2.6-1.6-3.6-3.3c-0.5-0.8-0.8-1.8-0.8-2.8c0-1,0.3-2,0.8-2.8
			c0.8-1.2,1.6-1.7,2.3-2c0.9-0.4,1.9-0.3,3-0.2c0.5,0.1,1,0.1,1.6,0.1c2-0.1,4.1-2,5.8-3.4c0.6-0.5,1.2-1,1.7-1.4l0.9-0.6
			c6-4.5,11.5-9.7,16.7-15.1c9-9.5,15.9-20.4,22.6-31.5l1.8-2.9c-0.1-0.2-0.2-0.5-0.3-0.7c-0.4-0.9-0.6-2-0.4-3c0.1-1,0.5-2,1.1-2.8
			c0.6-0.8,1.4-1.4,2.4-1.7c0.9-0.3,1.8-0.3,2.9,0.1c0.9,0.3,1.9,0.6,2.8,1c3.1,1.1,6.2,2.3,9.5,2.2c4,0,7.9-1.4,11.1-3.7
			c8-5.7,10.1-16.7,10.1-25.9c-0.1-9-2.1-19.5-9-25.9c-3.5-3.2-8-4.8-12.5-4.7c-4.7,0.1-9.3,1.8-13.3,4.8c-0.8,0.6-1.5,1.2-2.2,1.8
			c-0.3,0.5-0.7,1-1.2,1.2c0,0-0.1,0-0.1,0c-0.5,0.5-0.9,1.1-1.4,1.6c0.1-0.4,0.2-0.9,0.3-1.3c-0.2,0-0.4,0-0.6,0
			c-0.7-0.1-1.3-0.4-1.7-1c-0.3-0.4-0.6-1-0.5-1.8c0.3-4.5,0.9-9,1.5-13.4c0.9-6.3,1.8-12.6,1.6-19c-0.2-5.3-1.1-10.6-3.2-15.5
			c-1.1-2.5-2.5-4.9-4.1-7.1c-0.8-1.1-1.7-2.1-2.6-3.2c-1.3-1.4-2.5-2.9-3.5-4.4c-1.6-2.5-1.9-4.8-1.5-7c0.5-2.6,2-5.1,3.9-7.5
			l1.1-1.5c3.3-4.5,6.3-9.4,7.9-14.7c2.9-9.9-0.8-19-6.6-27c-14.3-19.7-37.7-25.7-61-25.9c-13.1-0.1-26.1,1.6-38.7,4.9
			c-9.4,2.5-18,6.4-26.8,10.4c-3.1,1.4-6.1,2.8-9.3,4.1c-6.2,2.6-12.8,4.7-19.6,4.3c-6.5-0.4-12.3-3-17.7-6.7
			c-1.3-0.9-2.7-2-4.3-3.2c-4.3-3.3-9.5-7.2-14.6-8.9c-2.8-1-5.7-1.2-8.3-0.2c0.1,0.8,0,1.6-0.3,2.5c-9.1,30.2-16.9,60.8-24,91.5
			c-6.8,29.2-13.4,59.3-10.5,89.5c2.3,24.9,11.5,49.8,26.8,69.5c13.7,17.6,32.2,30.9,55.2,36.2c12.6,2.9,25.5,3.1,38.3,0.9
			c12.3-2.2,23.7-7.3,34.6-13.3l1.5-0.8c0.7-0.4,1.4-0.5,2-0.4c0.7,0.1,1.3,0.5,1.7,1.1c0.4,0.5,0.6,1.2,0.6,1.9
			c0,0.6-0.2,1.3-0.7,1.9c-16,19.4-44.4,25.1-68.3,22.6C1370.6,1313.6,1346.9,1301.8,1329.3,1283.1z M1553.8,1147.1
			c1.9-2.1,4.2-3.7,6.6-5c4.3-2.2,9.2-3.1,14.1-2.5c7.6,1,13.5,5.7,17.7,11.7c5.3-26.7,9.4-53.5,9.6-80.9
			c0.1-16.3-0.9-32.6-3.6-48.7c-1-6.4-2.3-12.9-5-18.9c-2.6-5.7-6.7-9.2-11.2-12.9l-3.1-2.4c-3.3-2.6-6.1-5.8-8.8-8.9
			c-2-2.2-3.9-4.5-6.1-6.5c-4.9-4.6-10.7-8.3-16.8-11.4c-12.3-6.2-26-9.7-39.4-12.6l-1.9-0.4c-32-6.9-65.5-8.6-97.6-1.3
			c-16.2,3.7-31.8,9.2-47.3,14.9l-4.7,1.7c-8.5,3.1-17.1,6.3-25.6,9.5l-24,8.9c3.6,7.8,8.4,15,14,21.5c0.9,1,1.3,2,1.4,3.1
			c0.1,1.2-0.1,2.3-0.7,3.3c-0.6,0.9-1.5,1.7-2.6,2.2c-1,0.4-2.1,0.6-3.4,0.4c-0.5,0-1,0.1-1.3,0.3c-0.5,0.3-0.9,0.9-1.1,1.5
			c-0.8,1.7-0.9,4-0.3,5.4c1.6,3.6,5.2,6.1,8.6,8.2l1.1,0.7c1.4-5.2,2.7-10.4,4.1-15.5c0.2-0.8,0.6-1.6,1-2.2
			c0.2-0.8,0.7-1.7,1.5-2.4c3.9-3.7,8.6-5.3,13.5-5.3c5.6-0.1,11.5,1.8,16.4,4.7l0.6,0.3c2.7,1.6,5.3,3.5,7.8,5.4
			c7.4,5.4,14.4,10.7,24.7,8.2c5.3-1.3,10.2-3.7,15.1-6.1c0.7-0.4,1.5-0.7,2.2-1.1l1.4-0.7c6.2-3,12.6-5.5,19.2-7.7
			c13.3-4.3,27.3-6.8,41.2-7.3c24-1,51.4,3.1,69.1,20.9c8,8.1,15.6,18.8,17.2,30.3c1.7,11.8-3.5,22.9-10.3,32.2
			c-0.4,0.5-0.9,1.1-1.3,1.6c-0.8,0.9-1.6,1.8-2,2.7c-0.2,0.4-0.3,0.8-0.2,1.1c0.1,0.6,0.5,1,1,1.5l0.8,0.9c2.4,2.8,4.5,5.7,6.3,8.9
			c3.1,5.6,5,11.7,5.8,18C1558.5,1126.3,1556.9,1137.1,1553.8,1147.1L1553.8,1147.1z M1554.6,1183.6c-0.3,0.2-0.6,0.4-0.8,0.6
			c-2.2,1.7-4.1,3.1-7.3,3.2c-1.8,0.1-3.2-0.7-4.1-1.9c-0.9-1.2-1.3-2.9-1.1-4.5c0.5-3.1,2.7-5.5,5.7-7.2c3.8-2.2,8.8-3.3,12.4-3.9
			l0.7-0.1c7-1,14.1,0.4,20.4,3.4c0.7,0.3,1,0.8,1.2,1.3c0.2,0.6,0.2,1.2,0,1.8c-0.2,0.5-0.6,1-1.1,1.3c-0.5,0.3-1.1,0.4-1.7,0.3
			c-5.9-1-11.7-0.3-17.2,1.8C1559.2,1180.6,1556.8,1181.9,1554.6,1183.6z"/>
	</g>
	<g id="face_x2F_Fear">
		<path id="_xD83D__xDD8D_-Ink_7_" class="st1" d="M1382.5,1212.2c8.1,0.5,16.2,1.2,24.3,2.1c8.1,0.9,16.2,2.1,24.2,3.7
			c7.9,1.6,16.2,3,23.6,6.4c1.5,0.7,0.9,2.7-0.4,3.2l0,0l0,0l-0.3,0.1c-7.4,1.5-15.2,1.2-22.7,1.4l-3.1,0.1
			c-7.3,0.2-14.6,0.3-21.9,0.2c-8.1,0-16.2,0-24.3,0.1c-4.1,0-8.1,0.1-12.2,0.2c-4.9,0.1-9.7,1-14.1-1.7c-5.6-3.5-5.6-11.4,0-14.9
			c4.2-2.6,8.7-1.9,13.4-1.7l0.7,0C1373.9,1211.7,1378.2,1212,1382.5,1212.2z M1401.2,1113.9c0.5,0.4,0.9,0.8,1.4,1.2
			c0.2,0.2,0.1,0.6-0.2,0.7c0.6,1,1,2,1.5,3c5.6-6.7,13.9-10.9,22.5-12.8c6.4-1.4,13.5-2.3,19.9-0.8c12.7-1.4,26.6,3.9,36.5,11.7
			c15.2,12,19.4,37,4.9,51.4c-7.9,7.8-19.3,10.6-30,11c-10.6,0.3-22.7-0.3-33-3.2c-10-2.8-18.4-8.7-22.7-18.3
			c-1.8-4.1-3.4-8.5-4.2-12.9c-1.6,3.8-3.6,7.6-5.3,11.1l-0.5,1c-2.6,5.4-5.9,10.7-8.1,16.3c-1.3,3.3-4,9.7,0.4,11.6
			c5.4,2.3,10.3,0.5,15.7-0.2c8-1.1,10,10.9,3.9,14.5c-7.2,4.3-17.3,3-24.6-0.4c-8.3-3.9-11.9-11.2-10.4-20.1
			c0.4-2.6,1.3-5.1,2.4-7.4c-2.3,0.7-4.9,0.7-7.4,0.5c-7.5-0.7-14.4-4-20.3-8.6c-12-9.2-15.3-23.6-8.5-37.2
			c6-12,18.2-20.6,31.5-22.6c1.7-0.3,3.3-0.4,5-0.4c0.3-0.2,0.6-0.5,1-0.6c6.8-2.9,15.2,0.8,21.1,4.7l0.5,0.4
			C1397,1109.1,1399.3,1111.4,1401.2,1113.9z M1480.8,1188.1c-7,3-15.4,5.3-22.8,2.5c-2.1-0.8-2.5-4.1,0-4.7
			c6.7-1.7,13.7-1.5,20.4-3.5c6.8-2,13.1-5.5,19.1-9.4c0.7-0.5,1.7,0.5,1.2,1.2C1494.2,1180.6,1487.9,1185.1,1480.8,1188.1z
			 M1454.9,1117.5c-13.5-5.8-35.4-3.4-44.9,8.8c-5.6,7.2-4,16-1,23.9l0.3,0.6c3,7.7,8.5,12.5,16.4,14.7c7.2,2,14.9,2.6,22.4,3.1
			l1.7,0.1c8.5,0.4,17.6,0.2,25.3-4c14.3-7.8,14.2-26.2,4.6-37.7c-5.6-6.8-12.5-11.4-20.9-14.2l0,0l-0.4-0.1l0,0l0.2,0.2
			C1460.8,1115.5,1458.2,1118.9,1454.9,1117.5z M1347.7,1124c-6,7.6-10,18.8-2.4,26.8c3.4,3.5,8,6.3,12.6,7.8
			c2.4,0.8,4.8,1.3,7.3,1.3c2,0,3.3-0.9,5.3-1.4c2.2-0.5,4.2,0.4,5.4,2.2c0.3,0.5,0.6,1,0.7,1.5c1.3-1.7,2.6-3.4,4-5.1
			c2.2-2.8,4.6-5.5,7-8.1l2.1-2.3c2.3-2.6,4.5-5.4,7.2-7.7c-0.2-4.2,0.4-8.5,2.1-12.5c0.6-1.5,1.4-2.8,2.2-4.1
			c-3.8-2.7-7.9-5.1-11.9-7.1c-2.6-1.3-5.3-2.1-8-2.8c-3-0.7-6.1-0.8-8.8-2.4c-0.3-0.2-0.5-0.4-0.7-0.6
			C1362.4,1111.3,1353.7,1116.3,1347.7,1124z M1436.7,1151.7c-4,0-7.7-2.6-8.7-6.5c-0.6-2.4-0.3-5.1,1-7.3c0.5-0.8,1.1-1.5,1.7-2.2
			l0,0l0.7-0.6c0.2-0.7,0.5-1.3,0.7-1.9c0,0,0,0.1-0.1,0.1l0.8-1.8c1.1-2.5,4.7-3.6,7.2-2.9
			C1451.3,1131.9,1448.4,1151.8,1436.7,1151.7z M1378.5,1134.6c-0.1,2.9-0.7,5.8-1.7,8.4c-0.8,3.2-3.7,5.7-7,6.1
			c-4.1,0.6-7.9-2-9.1-6c-0.8-2.7-1.4-5.8-1.1-8.6c0.4-4.9,4.1-9.7,9.5-9.5C1374,1125.3,1378.6,1129.2,1378.5,1134.6z
			 M1469.1,1087.4l2.5,0.7c5,1.5,9.8,3.2,14.7,5l0.3,0.1c3.8,1.4,9.2,2.8,11.7,5.9c0.2,0.2,0.2,0.5-0.1,0.6c-3.7,2-9,1.2-13,1.2
			l-2.2,0c-4.4,0-8.7-0.1-13.1-0.3c-10.5-0.5-21.1-0.7-31.5-1.8c-5.5-0.6-9.9-4.5-9.1-10.5c0.8-5.9,6.1-8.6,11.6-7.7
			C1450.3,1082.1,1459.8,1084.7,1469.1,1087.4z M1404.1,1090.3c-10.4,0.8-20.7,2.8-31.1,4c-10.1,1.2-21,3.1-31.2,1.9
			c-0.9-0.1-1.5-1.3-0.5-1.8c9.1-4.5,19.9-6.4,29.7-8.8l2.1-0.5c7.8-1.9,15.8-3.5,23.6-5.7c2.3-2.2,5.7-3,9.1-1.7
			C1412.6,1080.3,1411.5,1089.8,1404.1,1090.3z"/>
	</g>
</g>
<g>
	<path class="st0" d="M1102.2,997.9c3.8-7,5.9-15.1,5.9-23.6V630.6c0-27.8-22.5-50.3-50.3-50.3H491.5c-27.8,0-50.3,22.5-50.3,50.3
		v343.7c0,27.8,22.5,50.3,50.3,50.3h545.3c41.9,24.1,133.9,36.8,136.2,30.2C1174.9,1049.4,1116.6,1035,1102.2,997.9z"/>
	<g>
		<path d="M1109.1,998.4c4.3-8.3,6.4-17.1,6.4-26.4c0-3.2,0-6.4,0-9.5c0-13.6,0-27.2,0-40.8c0-43.5,0-87,0-130.5
			c0-41.4,0-82.7,0-124.1c0-10.9,0-21.9,0-32.8c0-1.8,0-3.6,0-5.4c-0.3-16.5-7.9-31.6-21-41.7c-11.2-8.7-24.7-11.4-38.5-11.4
			c-7.9,0-15.8,0-23.7,0c-31.9,0-63.8,0-95.7,0c-44.4,0-88.8,0-133.2,0c-46.3,0-92.7,0-139,0c-37.7,0-75.4,0-113.1,0
			c-18.5,0-37,0-55.4,0c-22.5,0-44.5,10.4-55.4,30.8c-4.3,8.1-6.4,16.9-6.4,26c0,2.9,0,5.8,0,8.7c0,33.1,0,66.3,0,99.4
			c0,46.1,0,92.1,0,138.2c0,30.3,0,60.7,0,91c0,1.8,0,3.5,0,5.3c0.1,14.9,5.9,29.3,17.1,39.5c11.7,10.6,26.3,14.7,41.7,14.7
			c21.8,0,43.5,0,65.3,0c40,0,79.9,0,119.9,0c46.8,0,93.6,0,140.4,0c42.2,0,84.4,0,126.6,0c26.1,0,52.3,0,78.4,0c3.6,0,7.3,0,10.9,0
			c-1-0.3-2-0.5-3-0.8c17.5,10,37.2,16.1,56.6,21c19,4.9,38.5,8.6,58,10.7c6.6,0.7,13.3,1.2,19.9,0.9c4.7-0.2,11.8-1.1,14.2-5.8
			c2.3-4.5-3.9-7.4-7-9c-6.2-3.2-12.5-6.1-18.7-9.3c-17.8-9.3-36.9-21.6-44.7-41c-2.3-5.7-16.6-1.4-14.5,3.9
			c10.5,26.4,37.9,40,62,51.7c1.9,0.9,3.8,1.9,5.7,2.9c0.7,0.4,1.4,0.8,2.1,1.2c0.5,0.3,2,1.4,0.7,0.4c0.7,0.6,0.4,0.9,0.5,0.5
			c0.3-0.9-0.3-1.6,0.9-2.9c0.7-0.8,1.3-1.1,2.3-1.5c-0.8,0.3,2.2-0.7,1-0.4c-1.9,0.6,1.5-0.1,0,0c-0.7,0-1.5,0.1-2.2,0.2
			c-0.4,0-0.8,0-1.2,0c0,0,1.3,0-0.1,0c-2.3-0.1-4.5-0.1-6.8-0.2c-6-0.4-11.9-1.1-17.8-1.9c-15-2.1-29.9-5.1-44.6-8.8
			c-15.1-3.8-30.2-8.3-44.3-14.8c-4.8-2.2-9.7-6.2-15.1-6.2c-2.6,0-5.3,0-7.9,0c-11,0-22,0-33,0c-17.2,0-34.4,0-51.6,0
			c-21.7,0-43.3,0-65,0c-24.4,0-48.7,0-73.1,0c-25.3,0-50.6,0-75.9,0c-24.5,0-48.9,0-73.4,0c-21.9,0-43.8,0-65.7,0
			c-17.6,0-35.3,0-52.9,0c-11.4,0-22.9,0-34.3,0c-6.6,0-13.8,0.5-20.3-0.9c-16.2-3.6-29.4-16.1-34.2-31.9
			c-1.7-5.4-2.2-10.9-2.2-16.5c0-11.1,0-22.2,0-33.3c0-20,0-40.1,0-60.1c0-24.6,0-49.1,0-73.7c0-24.7,0-49.3,0-74
			c0-20.4,0-40.9,0-61.3c0-11.6,0-23.2,0-34.8c0-4.4,0.1-8.8,0.9-13.1c2.9-15.2,13.9-29.3,28.9-33.8c6.8-2,13.6-1.7,20.5-1.7
			c10.9,0,21.8,0,32.8,0c17,0,33.9,0,50.9,0c21.4,0,42.7,0,64.1,0c24.2,0,48.5,0,72.7,0c25.3,0,50.5,0,75.8,0c24.8,0,49.5,0,74.3,0
			c22.7,0,45.3,0,68,0c18.9,0,37.8,0,56.7,0c13.5,0,27,0,40.6,0c6.5,0,13,0,19.6,0c25.1,0,46,20.2,46.8,45.5c0.2,7,0,14.1,0,21.1
			c0,17.3,0,34.5,0,51.8c0,23.4,0,46.8,0,70.2c0,25.1,0,50.3,0,75.4c0,22.5,0,44.9,0,67.4c0,15.4,0,30.8,0,46.1
			c0,12.2,0.4,23.8-5.4,35.1C1092,1004.1,1106.6,1003.2,1109.1,998.4z"/>
	</g>
</g>
<g>
	<path class="st0" d="M1878.6,853.9c3.8-7,5.9-15.1,5.9-23.6V486.6c0-27.8-22.5-50.3-50.3-50.3h-566.3c-27.8,0-50.3,22.5-50.3,50.3
		v343.7c0,27.8,22.5,50.3,50.3,50.3h545.3c41.9,24.1,133.9,36.8,136.2,30.2C1951.3,905.4,1893,890.9,1878.6,853.9z"/>
	<g>
		<path d="M1885.4,854.3c4.3-8.3,6.4-17.1,6.4-26.4c0-3.2,0-6.4,0-9.5c0-13.6,0-27.2,0-40.8c0-43.5,0-87,0-130.5
			c0-41.4,0-82.7,0-124.1c0-10.9,0-21.9,0-32.8c0-1.8,0-3.6,0-5.4c-0.3-16.5-7.9-31.6-21-41.7c-11.2-8.7-24.7-11.4-38.5-11.4
			c-7.9,0-15.8,0-23.7,0c-31.9,0-63.8,0-95.7,0c-44.4,0-88.8,0-133.2,0c-46.3,0-92.7,0-139,0c-37.7,0-75.4,0-113.1,0
			c-18.5,0-37,0-55.4,0c-22.5,0-44.5,10.4-55.4,30.8c-4.3,8.1-6.4,16.9-6.4,26c0,2.9,0,5.8,0,8.7c0,33.1,0,66.3,0,99.4
			c0,46.1,0,92.1,0,138.2c0,30.3,0,60.7,0,91c0,1.8,0,3.5,0,5.3c0.1,15,5.9,29.3,17.1,39.5c11.7,10.6,26.3,14.7,41.7,14.7
			c21.8,0,43.5,0,65.3,0c40,0,79.9,0,119.9,0c46.8,0,93.6,0,140.4,0c42.2,0,84.4,0,126.6,0c26.1,0,52.3,0,78.4,0c3.6,0,7.3,0,10.9,0
			c-1-0.3-2-0.5-3-0.8c17.5,10,37.2,16.1,56.6,21c19,4.9,38.5,8.6,58,10.7c6.6,0.7,13.3,1.2,19.9,0.9c4.7-0.2,11.8-1.1,14.2-5.8
			c2.3-4.5-3.9-7.4-7-9c-6.2-3.2-12.5-6.1-18.7-9.3c-17.8-9.3-36.9-21.6-44.7-41c-2.3-5.7-16.6-1.4-14.5,3.9
			c10.5,26.4,37.9,40,62,51.7c1.9,0.9,3.8,1.9,5.7,2.9c0.7,0.4,1.4,0.8,2.1,1.2c0.5,0.3,2,1.4,0.7,0.4c0.7,0.6,0.4,0.9,0.5,0.5
			c0.3-0.9-0.3-1.6,0.9-2.9c0.7-0.8,1.3-1.1,2.3-1.5c-0.8,0.3,2.2-0.7,1-0.4c-1.9,0.6,1.5-0.1,0,0c-0.7,0-1.5,0.1-2.2,0.2
			c-0.4,0-0.8,0-1.2,0c0,0,1.3,0-0.1,0c-2.3-0.1-4.5-0.1-6.8-0.2c-6-0.4-11.9-1.1-17.8-1.9c-15-2.1-29.9-5.1-44.6-8.8
			c-15.1-3.8-30.2-8.3-44.3-14.8c-4.8-2.2-9.7-6.2-15.1-6.2c-2.6,0-5.3,0-7.9,0c-11,0-22,0-33,0c-17.2,0-34.4,0-51.6,0
			c-21.7,0-43.3,0-65,0c-24.4,0-48.7,0-73.1,0c-25.3,0-50.6,0-75.9,0c-24.5,0-48.9,0-73.4,0c-21.9,0-43.8,0-65.7,0
			c-17.6,0-35.3,0-52.9,0c-11.4,0-22.9,0-34.3,0c-6.6,0-13.8,0.5-20.3-0.9c-16.2-3.6-29.4-16.1-34.2-31.9
			c-1.7-5.4-2.2-10.9-2.2-16.5c0-11.1,0-22.2,0-33.3c0-20,0-40.1,0-60.1c0-24.6,0-49.1,0-73.7c0-24.7,0-49.3,0-74
			c0-20.4,0-40.9,0-61.3c0-11.6,0-23.2,0-34.8c0-4.4,0.1-8.8,0.9-13.1c2.9-15.2,13.9-29.3,28.9-33.8c6.8-2,13.6-1.7,20.5-1.7
			c10.9,0,21.8,0,32.8,0c17,0,33.9,0,50.9,0c21.4,0,42.7,0,64.1,0c24.2,0,48.5,0,72.7,0c25.3,0,50.5,0,75.8,0c24.8,0,49.5,0,74.3,0
			c22.7,0,45.3,0,68,0c18.9,0,37.8,0,56.7,0c13.5,0,27,0,40.6,0c6.5,0,13,0,19.6,0c25.1,0,46,20.2,46.8,45.5c0.2,7,0,14.1,0,21.1
			c0,17.3,0,34.5,0,51.8c0,23.4,0,46.8,0,70.2c0,25.1,0,50.3,0,75.4c0,22.5,0,44.9,0,67.4c0,15.4,0,30.8,0,46.1
			c0,12.2,0.4,23.8-5.4,35.1C1868.3,860.1,1882.9,859.2,1885.4,854.3z"/>
	</g>
</g>
<g>
	<path d="M550.5,642.2c4.4,0,8.1,1.4,11.2,4.2c6,5.4,9,13.9,9,25.5c0,11.6-3.3,20.7-9.9,27.4c-3.4,3.3-7.4,5.1-11.9,5.4
		c-5.9,0-10.6-2-13.9-6.1c-3.3-4.1-5.7-8.6-7.1-13.7c-1.4-5-2.1-9.9-2.1-14.6c0-8,1.9-14.6,5.7-19.8
		C535.5,645,541.9,642.2,550.5,642.2z M549.9,650c-8.4,0-13.6,4-15.7,11.9c-0.6,2.1-0.9,4.8-0.9,8.2c0,3.3,0.6,7.2,1.9,11.5
		c1.7,5.9,4.2,10,7.5,12.4c1.9,1.5,4.3,2.3,7,2.3s5.2-1.2,7.4-3.7c2.2-2.5,3.7-5.6,4.5-9.4c0.8-3.8,1.2-7.7,1.2-11.5
		c0-6.9-1-12.2-3-16C557.9,651.9,554.6,650,549.9,650z"/>
	<path d="M594.2,660.9c4.5,0,8.2,2.2,11.1,6.5c2.9,4.3,4.4,9.5,4.4,15.5c0,6-1.5,11.2-4.5,15.4c-3,4.3-6.9,6.4-11.8,6.4
		c-4.9,0-8.9-2.2-11.9-6.5c-3-4.3-4.5-9.2-4.5-14.5c0-6.8,1.4-12.3,4.1-16.3C584.1,663.1,588.4,660.9,594.2,660.9z M593.1,668.6
		c-2.6,0-4.8,1.4-6.5,4.1c-1.7,2.8-2.5,5.7-2.5,8.7c0,4.8,0.9,8.4,2.8,10.9c1.9,2.5,4,3.8,6.4,3.8c4.3,0,7-1.8,8.2-5.5
		c0.5-1.8,0.8-3.9,0.8-6.6C602.2,673.7,599.1,668.6,593.1,668.6z"/>
	<path d="M630.2,704.5c-2.1,0-4.1-0.7-5.9-2.2l-1.2-1v28.1c-0.4,1.3-1,2.3-2,3.1c-0.9,0.8-1.9,1.3-3,1.3c-1.6,0-2.4-1.1-2.4-3.3
		v-65.4c0.4-1.6,0.8-2.8,1.4-3.5c0.5-0.7,1.4-1,2.5-1s1.9,0.3,2.3,0.8c0.3,0.5,0.8,2,1.3,4.4c0.2-1.3,1.3-2.4,3-3.5
		c1.8-1.1,4.1-1.6,7-1.6c6.4,0,10.9,2.3,13.6,6.9c2.7,4.6,4,10.1,4,16.4c0,6.3-1.8,11.3-5.5,14.9
		C641.6,702.7,636.6,704.5,630.2,704.5z M623.1,676.4v17.5c0.4,0.2,0.8,0.5,1.3,0.9c1.8,1.6,3.8,2.4,5.9,2.4
		c8.6,0,12.9-4.4,12.9-13.3c0-7.6-1.9-12.4-5.8-14.4c-1.6-0.9-3.6-1.3-6-1.3c-2.3,0.3-4.3,1.3-5.9,3
		C623.9,673,623.1,674.7,623.1,676.4z"/>
	<path d="M661.1,663.9c2.6-2.2,5.7-3.3,9.1-3.3c3.5,0,6.8,0.6,10,1.9c3.2,1.3,4.8,2.9,4.8,5c0,1.1-0.4,1.9-1.2,2.5
		c-0.8,0.6-1.5,0.9-2.1,0.9c-0.6,0-1.1,0-1.4,0c-0.3,0-1.6-0.6-3.8-1.7c-2.2-1.1-4.1-1.7-6-1.7c-1.8,0-3.4,0.5-4.6,1.4
		c-1.3,0.9-1.9,2.2-1.9,4c0,1.8,0.7,3.1,2.2,4.1c1.5,1,4,1.9,7.7,2.6c3.7,0.7,6.5,1.7,8.5,3c2,1.3,3,3.8,3,7.3c0,5.2-1.4,8.9-4.1,11
		c-2.7,2.2-6,3.2-9.9,3.2s-7.2-0.5-9.9-1.6c-2.7-1.1-4.1-2.7-4.1-4.8c0-2.4,1.2-3.7,3.7-3.7c0.6,0,2,0.4,4.1,1.3
		c2.1,0.9,4.2,1.3,6.3,1.3c2.1,0,3.7-0.7,4.8-2c1.1-1.3,1.6-2.9,1.6-4.6c0-1.8-0.7-3-2.2-3.8c-1.4-0.8-3.6-1.4-6.6-1.9
		c-2.9-0.5-5.1-1-6.5-1.6c-3.8-1.5-5.6-4.8-5.6-10C657.1,669,658.4,666.1,661.1,663.9z"/>
	<path d="M698.2,693.4c1.3,0,2.5,0.5,3.5,1.5c1,1,1.6,2.4,1.8,4.1c0,1.4-0.5,2.6-1.5,3.8c-1,1.2-2.2,1.7-3.5,1.7
		c-1.3,0-2.5-0.4-3.6-1.1c-1.1-0.7-1.6-1.8-1.6-3.3c0-1.5,0.5-3,1.5-4.5C695.7,694.1,696.8,693.4,698.2,693.4z"/>
	<path d="M718.3,693.4c1.3,0,2.5,0.5,3.5,1.5c1,1,1.6,2.4,1.8,4.1c0,1.4-0.5,2.6-1.5,3.8c-1,1.2-2.2,1.7-3.5,1.7
		c-1.3,0-2.5-0.4-3.6-1.1c-1.1-0.7-1.6-1.8-1.6-3.3c0-1.5,0.5-3,1.5-4.5C715.8,694.1,716.9,693.4,718.3,693.4z"/>
	<path d="M737.6,645c1-0.6,2.1-0.9,3.3-0.9c1.3,0,2,0.7,2.3,2.2c0.1,7.3,0.2,18.1,0.4,32.6c0,8.8-0.2,16.3-0.8,22.4
		c-0.1,0.9-0.7,1.8-1.7,2.5c-1,0.7-2.1,1.1-3.1,1.1c-1.8,0-2.6-0.9-2.6-2.7c0.6-6.3,0.9-14,0.9-23.3l-0.6-31.5
		C736,646.3,736.6,645.6,737.6,645z"/>
	<path d="M777.8,660.8l4.7,0.1c1.1,0,1.7,0,1.8-0.1v-19.2c0.1-1.1,0.6-2,1.6-2.7c1-0.8,1.9-1.1,2.8-1.1s1.6,0.3,2.1,0.8
		c0.5,0.6,0.8,1.4,0.7,2.6c-0.1,1.2-0.1,7.7-0.1,19.5l11-0.4c1.9,0,2.8,1.1,2.8,3.3c0,1.6-0.5,2.8-1.5,3.7c-1,0.8-2,1.3-3.1,1.3
		c-1.1,0.1-2.2,0.1-3.2,0.1l-5.7-0.1c0,2.6,0.3,7.6,0.8,15.2c0.5,7.6,1,12.5,1.3,14.7c0.3,2.2,0.4,3.7,0.2,4.3
		c-0.2,0.7-0.5,1.1-1,1.4c-0.8,0.4-1.9,0.6-3.3,0.6c-1.4,0-2.2-0.8-2.4-2.3c-1.3-8.2-2.1-19.5-2.5-33.8c-0.6,0.1-2.7,0.1-6.5,0.1
		c-3.8,0-5.6-1.1-5.6-3.3C772.5,662.4,774.3,660.8,777.8,660.8z"/>
	<path d="M817.8,674.2l0.8,22.1c0,2.8-0.1,4.3-0.4,4.8c-0.1,1.1-0.5,2-1.1,2.6c-0.6,0.6-1.7,0.9-3.4,0.9c-0.8,0-1.5-0.5-2-1.5
		c-0.5-1-0.8-2.2-0.8-3.5c-0.4-11-1-21.3-1.7-31c-0.7-9.7-1.1-18.7-1.1-27c0-1.3,0.4-2.3,1.3-3.1c0.9-0.8,1.9-1.1,3.1-1.1
		c1.7,0,2.8,1.5,3.1,4.5c0.3,3,0.6,6.8,0.7,11.3c0.1,4.5,0.2,7.8,0.3,9.9c3.1-1.6,6.3-2.4,9.4-2.4c7.3,0,11.9,3.2,13.8,9.6
		c1.1,3.6,1.7,8.3,1.7,14c0,1.9-0.2,4.8-0.5,8.9s-0.5,6.6-0.6,7.8c-0.1,1.2-0.6,2.1-1.5,2.8c-1,0.7-2,1-3.1,1
		c-1.8,0-2.6-0.9-2.6-2.8l0.7-16.3c0-1.4-0.1-3.7-0.2-6.8c-0.1-3.2-0.8-5.7-1.9-7.6c-1.2-1.9-3.2-2.8-6.1-2.8
		C820.3,668.2,817.8,670.2,817.8,674.2z"/>
	<path d="M853.3,645.3c1.1,0,2.2,0.5,3.2,1.6c1,1.1,1.5,2.2,1.5,3.3c0,1.2-0.5,2.3-1.6,3.5c-1.1,1.2-2.2,1.8-3.4,1.8
		s-2.3-0.5-3.2-1.5c-1-1-1.5-2.3-1.5-3.8c0-3,1.6-4.6,4.9-4.9C853.2,645.3,853.3,645.3,853.3,645.3z M857.3,694.5l0.1,6.6
		c0,1.2-0.5,2.2-1.4,3c-0.9,0.8-1.9,1.2-3,1.2c-1.6,0-2.4-0.8-2.4-2.3c-0.8-20-1.2-31-1.2-33.1c0-2.1,0.1-4.7,0.3-7.8
		c0.1-1.1,0.8-1.7,2.2-1.7c3.3,0,5.2,1.3,5.6,4c0.2,1.4,0.3,2.5,0.3,3.3l-0.4,5.9V694.5z"/>
	<path d="M871.7,701.7l-1-38.1c0-1.2,0.4-2.2,1.2-2.9c0.8-0.8,1.6-1.1,2.4-1.1c2,0,3.2,0.8,3.5,2.5c0.2,1.7,0.4,3.4,0.4,5.3
		c3.4-4.4,7.6-6.7,12.7-6.7c7.8,0,11.6,8.9,11.6,26.6c0,1.6,0,4.1,0,7.4c0,3.3-0.2,5.7-0.6,7.2c-0.4,1.9-1.8,2.8-4,2.8
		c-1.5,0-2.3-1-2.3-3l0.1-5.3c0-7.3-0.2-12.2-0.7-14.9c-0.5-2.7-0.9-4.8-1.4-6.3c-1.1-3.4-2.8-5.1-5.2-5.1c-3.1,0-5.3,1.1-6.6,3.4
		c-1.4,2.4-2.2,5.3-2.4,8.6c-0.4,5.8-0.7,12-0.7,18.5c0,1.3-0.5,2.3-1.4,3c-0.9,0.8-2.1,1.1-3.4,1.1
		C872.5,704.7,871.7,703.7,871.7,701.7z"/>
	<path d="M944.1,700.4c0,2.9-1.3,4.4-4,4.4c-1.1,0-2.7-2.8-4.6-8.3c-1.9-5.5-4.5-9.8-7.8-12.8c-0.3,0.4-1.6,1.7-4,3.7
		c-2.3,2-3.7,3.3-4.2,3.7v9.4c-0.1,0.9-0.3,1.7-0.5,2.2c-0.2,0.5-0.6,1-1.3,1.4c-0.7,0.4-1.5,0.7-2.7,0.7c-1.7,0-2.5-1-2.5-3.1
		c0-5.8-0.3-14.8-0.8-27.1c-0.5-12.2-0.8-23.2-0.8-32.9c0-1.2,0.5-2.1,1.5-2.8c1-0.7,2-1,3-1c1.4,0,2.3,0.9,2.6,2.7v16.6
		c0,2,0,3.5,0.1,4.5c0.1,1,0.1,2.5,0.2,4.5c0.1,4.1,0.3,8.8,0.7,14c1.8-1.4,4.1-3.5,7-6.5c2.8-3,5-5.5,6.4-7.6
		c2.3-3.6,4.3-5.3,6.2-5.3c0.5,0,1,0.1,1.5,0.4c1.3,0.8,2,1.6,2,2.6c0,1-0.4,2.3-1.3,3.9c-2.3,3.9-4.8,7.4-7.8,10.6
		c2.8,3.1,5.6,7.6,8.4,13.4C943.2,695.3,944.1,698.3,944.1,700.4z"/>
	<path d="M533.2,817.1c-2.1,0-4.2-4.1-6.1-12.4c-2-8.3-3-17.6-3-27.9c0-1.1,0.5-1.9,1.4-2.5c0.9-0.6,1.7-0.9,2.5-0.9
		s1.4,0.2,1.8,0.7c0.5,0.5,0.7,1.1,0.7,1.8c0,9.8,1.7,19.1,5,28.1c0.5-0.8,1.3-2.3,2.3-4.6c1.1-2.3,2.1-4,3-5
		c0.9-1.1,2.1-1.6,3.4-1.6s2.7,1,4.1,2.9c1.4,1.9,2.7,4,3.7,6.2c1,2.2,1.6,3.4,1.7,3.5c1.7-5.3,2.5-10.1,2.5-14.6l-0.6-14.3
		c-0.1-0.9,0.4-1.7,1.3-2.4c0.9-0.7,1.8-1,2.7-1c1.8,0,2.7,3.5,2.7,10.6v5.2c0,8.4-1.3,15.9-3.8,22.4c-1.4,3.8-3.1,5.6-5.2,5.6
		c-1.2,0-2.3-0.8-3.3-2.3c-1-1.5-2.1-3.7-3.4-6.5c-1.3-2.8-2.2-4.8-2.9-5.8l-2.8,5.5c-1.1,2.2-1.9,3.8-2.4,4.7
		c-0.6,1-1.3,1.9-2.3,2.9C535.3,816.6,534.3,817.1,533.2,817.1z"/>
	<path d="M582.4,773.8c3.3,0,6.5,1,9.5,2.9c3,1.9,4.5,4.3,4.5,7.2c0,2.8-1.2,5.6-3.7,8.3c-2.4,2.7-5.7,4.3-9.8,4.8
		c-1.8,0.3-4.4,0.4-7.9,0.4c0.7,5.3,2,8.8,4,10.5c0.6,0.7,1.5,1,2.5,1c3.9,0,7.1-1.2,9.8-3.7c2.6-2.5,4.5-3.7,5.6-3.7
		c0.5,0,1.3,0.5,2.3,1.4s1.5,1.8,1.5,2.6c0,1.6-2,4-5.9,7c-1.8,1.4-3.9,2.6-6.3,3.6c-2.5,1-4.8,1.5-6.9,1.5c-5.4,0-9.4-3.5-12-10.5
		c-1.6-4.3-2.4-9.1-2.4-14.3c0-5.2,1.2-9.7,3.7-13.4C573.3,775.7,577.1,773.8,582.4,773.8z M582.8,780.3c-2.4,0-4.4,1.3-6.1,4
		c-0.6,0.9-1.2,3.1-1.8,6.4c8.8,0,13.1-2.2,13.1-6.5C588.1,781.6,586.3,780.3,582.8,780.3z"/>
	<path d="M611,746.8c0.7-0.6,1.4-0.8,2.3-0.8c0.8,0,1.6,0.3,2.3,0.9c0.7,0.6,1.1,1.4,1.1,2.4c0,3.4-0.6,6.8-1.9,9.9
		c-1.3,3.2-2.9,4.8-5,4.8c-2.1,0-3.1-1.1-3.1-3.2c0-0.9,0.5-2.4,1.6-4.7c1.1-2.3,1.6-4.6,1.6-7.1C610,748,610.4,747.3,611,746.8z"/>
	<path d="M638.9,803.5l0.1,9.7c0,1.1-0.5,2.2-1.5,3.1c-1,0.9-2,1.4-3,1.4c-1.4,0-2.3-1.1-2.7-3.4c-0.1-0.5-0.3-5.1-0.8-13.7
		c-0.4-8.7-1.3-15.5-2.5-20.4c-0.6-2.4-0.8-3.8-0.8-4.2c0-2.1,1.3-3.1,3.8-3.1c1.1,0,1.9,0.4,2.5,1.2c0.6,0.8,1,1.6,1.2,2.5
		c0.2,0.8,0.3,2,0.4,3.4c0.1,1.4,0.2,2.3,0.3,2.7c1.3-3.1,3.3-5.5,5.9-7c2.6-1.6,5.5-2.3,8.6-2.3c5.1,0,7.7,1.3,7.7,3.9
		c0,1.3-0.5,2.4-1.4,3.1c-0.9,0.8-2,1.2-3.1,1.2c-5.3,0-9.1,1.7-11.3,5.1C640,790,638.9,795.6,638.9,803.5z"/>
	<path d="M676.5,773.8c3.3,0,6.5,1,9.5,2.9c3,1.9,4.5,4.3,4.5,7.2c0,2.8-1.2,5.6-3.7,8.3c-2.4,2.7-5.7,4.3-9.8,4.8
		c-1.8,0.3-4.4,0.4-7.9,0.4c0.7,5.3,2,8.8,4,10.5c0.6,0.7,1.5,1,2.5,1c3.9,0,7.1-1.2,9.8-3.7c2.6-2.5,4.5-3.7,5.6-3.7
		c0.5,0,1.3,0.5,2.3,1.4c1,0.9,1.5,1.8,1.5,2.6c0,1.6-2,4-5.9,7c-1.8,1.4-3.9,2.6-6.3,3.6c-2.5,1-4.8,1.5-6.9,1.5
		c-5.4,0-9.4-3.5-12-10.5c-1.6-4.3-2.4-9.1-2.4-14.3c0-5.2,1.2-9.7,3.7-13.4C667.4,775.7,671.2,773.8,676.5,773.8z M676.9,780.3
		c-2.4,0-4.4,1.3-6.1,4c-0.6,0.9-1.2,3.1-1.8,6.4c8.8,0,13.1-2.2,13.1-6.5C682.2,781.6,680.4,780.3,676.9,780.3z"/>
	<path d="M725.4,814.3l-1-38.1c0-1.2,0.4-2.2,1.2-2.9c0.8-0.8,1.6-1.1,2.4-1.1c2,0,3.2,0.8,3.5,2.5c0.2,1.7,0.4,3.4,0.4,5.3
		c3.4-4.4,7.6-6.7,12.7-6.7c7.8,0,11.6,8.9,11.6,26.6c0,1.6,0,4.1,0,7.4c0,3.3-0.2,5.7-0.6,7.2c-0.4,1.9-1.8,2.8-4,2.8
		c-1.5,0-2.3-1-2.3-3l0.1-5.3c0-7.3-0.2-12.2-0.7-14.9c-0.5-2.7-0.9-4.8-1.4-6.3c-1.1-3.4-2.8-5.1-5.2-5.1c-3.1,0-5.3,1.1-6.6,3.4
		c-1.4,2.4-2.2,5.3-2.4,8.6c-0.4,5.8-0.7,12-0.7,18.5c0,1.3-0.5,2.3-1.4,3c-0.9,0.8-2.1,1.1-3.4,1.1
		C726.2,817.3,725.4,816.3,725.4,814.3z"/>
	<path d="M780.9,773.5c4.5,0,8.2,2.2,11.1,6.5c2.9,4.3,4.4,9.5,4.4,15.5c0,6-1.5,11.2-4.5,15.4c-3,4.3-6.9,6.4-11.8,6.4
		c-4.9,0-8.9-2.2-11.9-6.5c-3-4.3-4.5-9.2-4.5-14.5c0-6.8,1.4-12.3,4.1-16.3C770.8,775.7,775.1,773.5,780.9,773.5z M779.8,781.2
		c-2.6,0-4.8,1.4-6.5,4.1c-1.7,2.8-2.5,5.7-2.5,8.7c0,4.8,0.9,8.4,2.8,10.9c1.9,2.5,4,3.8,6.4,3.8c4.3,0,7-1.8,8.2-5.5
		c0.5-1.8,0.8-3.9,0.8-6.6C788.9,786.3,785.8,781.2,779.8,781.2z"/>
	<path d="M804.4,773.4l4.7,0.1c1.1,0,1.7,0,1.8-0.1v-19.2c0.1-1.1,0.6-2,1.6-2.7c1-0.8,1.9-1.1,2.8-1.1s1.6,0.3,2.1,0.8
		c0.5,0.6,0.8,1.4,0.7,2.6c-0.1,1.2-0.1,7.7-0.1,19.5l11-0.4c1.9,0,2.8,1.1,2.8,3.3c0,1.6-0.5,2.8-1.5,3.7c-1,0.8-2,1.3-3.1,1.3
		c-1.1,0.1-2.2,0.1-3.2,0.1l-5.7-0.1c0,2.6,0.3,7.6,0.8,15.2c0.5,7.6,1,12.5,1.3,14.7c0.3,2.2,0.4,3.7,0.2,4.3
		c-0.2,0.7-0.5,1.1-1,1.4c-0.8,0.4-1.9,0.6-3.3,0.6c-1.4,0-2.2-0.8-2.4-2.3c-1.3-8.2-2.1-19.5-2.5-33.8c-0.6,0.1-2.7,0.1-6.5,0.1
		c-3.8,0-5.6-1.1-5.6-3.3C799.2,775,800.9,773.4,804.4,773.4z"/>
	<path d="M862.1,757.9c1.1,0,2.2,0.5,3.2,1.6c1,1.1,1.5,2.2,1.5,3.3c0,1.2-0.5,2.3-1.6,3.5c-1.1,1.2-2.2,1.8-3.4,1.8
		s-2.3-0.5-3.2-1.5c-1-1-1.5-2.3-1.5-3.8c0-3,1.6-4.6,4.9-4.9C862,757.9,862.1,757.9,862.1,757.9z M866.1,807.1l0.1,6.6
		c0,1.2-0.5,2.2-1.4,3c-0.9,0.8-1.9,1.2-3,1.2c-1.6,0-2.4-0.8-2.4-2.3c-0.8-20-1.2-31-1.2-33.1c0-2.1,0.1-4.7,0.3-7.8
		c0.1-1.1,0.8-1.7,2.2-1.7c3.3,0,5.2,1.3,5.6,4c0.2,1.4,0.3,2.5,0.3,3.3l-0.4,5.9V807.1z"/>
	<path d="M880.5,814.3l-1-38.1c0-1.2,0.4-2.2,1.2-2.9c0.8-0.8,1.6-1.1,2.4-1.1c2,0,3.2,0.8,3.5,2.5c0.2,1.7,0.4,3.4,0.4,5.3
		c3.4-4.4,7.6-6.7,12.7-6.7c7.8,0,11.6,8.9,11.6,26.6c0,1.6,0,4.1,0,7.4c0,3.3-0.2,5.7-0.6,7.2c-0.4,1.9-1.8,2.8-4,2.8
		c-1.5,0-2.3-1-2.3-3l0.1-5.3c0-7.3-0.2-12.2-0.7-14.9c-0.5-2.7-0.9-4.8-1.4-6.3c-1.1-3.4-2.8-5.1-5.2-5.1c-3.1,0-5.3,1.1-6.6,3.4
		c-1.4,2.4-2.2,5.3-2.4,8.6c-0.4,5.8-0.7,12-0.7,18.5c0,1.3-0.5,2.3-1.4,3c-0.9,0.8-2.1,1.1-3.4,1.1
		C881.3,817.3,880.5,816.3,880.5,814.3z"/>
	<path d="M527.7,886l4.7,0.1c1.1,0,1.7,0,1.8-0.1v-19.2c0.1-1.1,0.6-2,1.6-2.7c1-0.8,1.9-1.1,2.8-1.1s1.6,0.3,2.1,0.8
		c0.5,0.6,0.8,1.4,0.7,2.6c-0.1,1.2-0.1,7.7-0.1,19.5l11-0.4c1.9,0,2.8,1.1,2.8,3.3c0,1.6-0.5,2.8-1.5,3.7c-1,0.8-2,1.3-3.1,1.3
		c-1.1,0.1-2.2,0.1-3.2,0.1l-5.7-0.1c0,2.6,0.3,7.6,0.8,15.2c0.5,7.6,1,12.5,1.3,14.7c0.3,2.2,0.4,3.7,0.2,4.3
		c-0.2,0.7-0.5,1.1-1,1.4c-0.8,0.4-1.9,0.6-3.3,0.6c-1.4,0-2.2-0.8-2.4-2.3c-1.3-8.2-2.1-19.5-2.5-33.8c-0.6,0.1-2.7,0.1-6.5,0.1
		c-3.8,0-5.6-1.1-5.6-3.3C522.5,887.6,524.2,886,527.7,886z"/>
	<path d="M567.7,899.4l0.8,22.1c0,2.8-0.1,4.3-0.4,4.8c-0.1,1.1-0.5,2-1.1,2.6c-0.6,0.6-1.7,0.9-3.4,0.9c-0.8,0-1.5-0.5-2-1.5
		c-0.5-1-0.8-2.2-0.8-3.5c-0.4-11-1-21.3-1.7-31c-0.7-9.7-1.1-18.7-1.1-27c0-1.3,0.4-2.3,1.3-3.1c0.9-0.8,1.9-1.1,3.1-1.1
		c1.7,0,2.8,1.5,3.1,4.5c0.3,3,0.6,6.8,0.7,11.3c0.1,4.5,0.2,7.8,0.3,9.9c3.1-1.6,6.3-2.4,9.4-2.4c7.3,0,11.9,3.2,13.8,9.6
		c1.1,3.6,1.7,8.3,1.7,14c0,1.9-0.2,4.8-0.5,8.9c-0.3,4-0.5,6.6-0.6,7.8c-0.1,1.2-0.6,2.1-1.5,2.8s-2,1-3.1,1
		c-1.8,0-2.6-0.9-2.6-2.8l0.7-16.3c0-1.4-0.1-3.7-0.2-6.8c-0.1-3.2-0.8-5.7-1.9-7.6c-1.2-1.9-3.2-2.8-6.1-2.8
		C570.3,893.4,567.7,895.4,567.7,899.4z"/>
	<path d="M610.6,886.4c3.3,0,6.5,1,9.5,2.9c3,1.9,4.5,4.3,4.5,7.2c0,2.8-1.2,5.6-3.7,8.3c-2.4,2.7-5.7,4.3-9.8,4.8
		c-1.8,0.3-4.4,0.4-7.9,0.4c0.7,5.3,2,8.8,4,10.5c0.6,0.7,1.5,1,2.5,1c3.9,0,7.1-1.2,9.8-3.7c2.6-2.5,4.5-3.7,5.6-3.7
		c0.5,0,1.3,0.5,2.3,1.4c1,0.9,1.5,1.8,1.5,2.6c0,1.6-2,4-5.9,7c-1.8,1.4-3.9,2.6-6.3,3.6c-2.5,1-4.8,1.5-6.9,1.5
		c-5.4,0-9.4-3.5-12-10.5c-1.6-4.3-2.4-9.1-2.4-14.3c0-5.2,1.2-9.7,3.7-13.4C601.5,888.3,605.3,886.4,610.6,886.4z M611.1,892.9
		c-2.4,0-4.4,1.3-6.1,4c-0.6,0.9-1.2,3.1-1.8,6.4c8.8,0,13.1-2.2,13.1-6.5C616.3,894.2,614.6,892.9,611.1,892.9z"/>
	<path d="M668.1,916.1l0.1,9.7c0,1.1-0.5,2.2-1.5,3.1c-1,0.9-2,1.4-3,1.4c-1.4,0-2.3-1.1-2.7-3.4c-0.1-0.5-0.3-5.1-0.8-13.7
		c-0.4-8.7-1.3-15.5-2.5-20.4c-0.6-2.4-0.8-3.8-0.8-4.2c0-2.1,1.3-3.1,3.8-3.1c1.1,0,1.9,0.4,2.5,1.2c0.6,0.8,1,1.6,1.2,2.5
		c0.2,0.8,0.3,2,0.4,3.4c0.1,1.4,0.2,2.3,0.3,2.7c1.3-3.1,3.3-5.5,5.9-7c2.6-1.6,5.5-2.3,8.6-2.3c5.1,0,7.7,1.3,7.7,3.9
		c0,1.3-0.5,2.4-1.4,3.1c-0.9,0.8-2,1.2-3.1,1.2c-5.3,0-9.1,1.7-11.3,5.1C669.2,902.6,668.1,908.2,668.1,916.1z"/>
	<path d="M698.3,870.5c1.1,0,2.2,0.5,3.2,1.6c1,1.1,1.5,2.2,1.5,3.3c0,1.2-0.5,2.3-1.6,3.5c-1.1,1.2-2.2,1.8-3.4,1.8
		c-1.2,0-2.3-0.5-3.2-1.5c-1-1-1.5-2.3-1.5-3.8c0-3,1.6-4.6,4.9-4.9C698.2,870.5,698.3,870.5,698.3,870.5z M702.3,919.7l0.1,6.6
		c0,1.2-0.5,2.2-1.4,3c-0.9,0.8-1.9,1.2-3,1.2c-1.6,0-2.4-0.8-2.4-2.3c-0.8-20-1.2-31-1.2-33.1c0-2.1,0.1-4.7,0.3-7.8
		c0.1-1.1,0.8-1.7,2.2-1.7c3.3,0,5.2,1.3,5.6,4c0.2,1.4,0.3,2.5,0.3,3.3l-0.4,5.9V919.7z"/>
	<path d="M740.1,926c-2.3,2.6-5.1,3.9-8.5,3.9c-3.4,0-6.4-1.1-8.9-3.2c-5.3-4.1-7.9-10.3-7.9-18.7c0-6.6,1.8-11.8,5.4-15.8
		c3.6-4,8.1-6,13.4-6c5.3,0,8.9,1.8,10.9,5.4c1.7,3.2,2.5,8,2.5,14.4l-0.2,7.7c0,3.6,0.2,8.6,0.5,15.1c0.3,6.4,0.5,11.2,0.5,14.5
		c0,5.4-1.3,9.3-4,11.9c-2.7,2.5-6.7,3.8-12.1,3.8c-3.3,0-6.6-0.7-9.9-2.1c-3.4-1.4-5.1-3-5.1-4.8c0-1.3,0.4-2.3,1.1-3
		c0.7-0.7,1.5-1,2.5-1c0.9,0,3.1,0.7,6.3,2.1c3.3,1.4,5.6,2.1,7.1,2.1c4.5,0,6.8-3.7,6.8-11.1C740.5,933.9,740.3,928.8,740.1,926z
		 M740,906.1c0-4.5-0.7-7.7-2-9.6c-1.3-1.8-3.5-2.8-6.3-2.8c-2.9,0-5.2,1.3-6.9,3.9c-1.8,2.6-2.6,6-2.6,10c0,4,0.8,7.2,2.5,9.6
		c1.7,2.4,4.2,3.6,7.6,3.6c3.4,0,5.7-1.5,6.7-4.4C739.6,914.1,740,910.7,740,906.1z"/>
	<path d="M764.9,899.4l0.8,22.1c0,2.8-0.1,4.3-0.4,4.8c-0.1,1.1-0.5,2-1.1,2.6c-0.6,0.6-1.7,0.9-3.4,0.9c-0.8,0-1.5-0.5-2-1.5
		c-0.5-1-0.8-2.2-0.8-3.5c-0.4-11-1-21.3-1.7-31c-0.7-9.7-1.1-18.7-1.1-27c0-1.3,0.4-2.3,1.3-3.1c0.9-0.8,1.9-1.1,3.1-1.1
		c1.7,0,2.8,1.5,3.1,4.5c0.3,3,0.6,6.8,0.7,11.3c0.1,4.5,0.2,7.8,0.3,9.9c3.1-1.6,6.3-2.4,9.4-2.4c7.3,0,11.9,3.2,13.8,9.6
		c1.1,3.6,1.7,8.3,1.7,14c0,1.9-0.2,4.8-0.5,8.9c-0.3,4-0.5,6.6-0.6,7.8c-0.1,1.2-0.6,2.1-1.5,2.8s-2,1-3.1,1
		c-1.8,0-2.6-0.9-2.6-2.8l0.7-16.3c0-1.4-0.1-3.7-0.2-6.8c-0.1-3.2-0.8-5.7-1.9-7.6c-1.2-1.9-3.2-2.8-6.1-2.8
		C767.5,893.4,764.9,895.4,764.9,899.4z"/>
	<path d="M796.7,886l4.7,0.1c1.1,0,1.7,0,1.8-0.1v-19.2c0.1-1.1,0.6-2,1.6-2.7c1-0.8,1.9-1.1,2.8-1.1c0.9,0,1.6,0.3,2.1,0.8
		c0.5,0.6,0.8,1.4,0.7,2.6c-0.1,1.2-0.1,7.7-0.1,19.5l11-0.4c1.9,0,2.8,1.1,2.8,3.3c0,1.6-0.5,2.8-1.5,3.7c-1,0.8-2,1.3-3.1,1.3
		c-1.1,0.1-2.2,0.1-3.2,0.1l-5.7-0.1c0,2.6,0.3,7.6,0.8,15.2c0.5,7.6,1,12.5,1.3,14.7c0.3,2.2,0.4,3.7,0.2,4.3s-0.5,1.1-1,1.4
		c-0.8,0.4-1.9,0.6-3.3,0.6c-1.4,0-2.2-0.8-2.4-2.3c-1.3-8.2-2.1-19.5-2.5-33.8c-0.6,0.1-2.7,0.1-6.5,0.1s-5.6-1.1-5.6-3.3
		C791.4,887.6,793.1,886,796.7,886z"/>
	<path d="M863,929.7c-2.1,0-4.1-0.7-5.9-2.2l-1.2-1v28.1c-0.4,1.3-1,2.3-2,3.1c-0.9,0.8-1.9,1.3-3,1.3c-1.6,0-2.4-1.1-2.4-3.3v-65.4
		c0.4-1.6,0.8-2.8,1.4-3.5c0.5-0.7,1.4-1,2.5-1c1.2,0,1.9,0.3,2.3,0.8c0.3,0.5,0.8,2,1.3,4.4c0.2-1.3,1.3-2.4,3-3.5
		c1.8-1.1,4.1-1.6,7-1.6c6.4,0,10.9,2.3,13.6,6.9c2.7,4.6,4,10.1,4,16.4c0,6.3-1.8,11.3-5.5,14.9C874.4,927.9,869.4,929.7,863,929.7
		z M855.9,901.6V919c0.4,0.2,0.8,0.5,1.3,0.9c1.8,1.6,3.8,2.4,5.9,2.4c8.6,0,12.9-4.4,12.9-13.3c0-7.6-1.9-12.4-5.8-14.4
		c-1.6-0.9-3.6-1.3-6-1.3c-2.3,0.3-4.3,1.3-5.9,3C856.7,898.2,855.9,899.9,855.9,901.6z"/>
	<path d="M888.1,869.1c0.2-2.3,0.5-3.9,1.1-4.6c0.6-0.7,1.5-1.1,2.9-1.1c2.7,0,4,1.1,4,3.3c0,1.7-0.1,6.1-0.4,13.2
		c-0.3,7.1-0.4,13.5-0.4,19.1c0,5.6,0.2,10.2,0.7,13.6c0.8,6,1.8,9,3.2,9c1.4,0,2.4-1,3.1-2.9c0.3-0.8,0.8-1.4,1.5-2
		c0.7-0.6,1.6-0.9,2.6-0.9c2.2,0,3.3,1.8,3.3,5.5c0,2-1.1,4-3.2,6s-4.3,3-6.4,3c-2.1,0-3.8-0.4-5.1-1.1c-1.3-0.7-2.3-1.8-3.1-3.2
		c-0.8-1.4-1.4-2.8-1.9-4.2c-0.5-1.3-0.8-3-1-4.9c-0.4-3.1-0.6-8.1-0.8-15.1c-0.2-6.9-0.2-13.5-0.2-19.8
		C887.9,875.7,887.9,871.4,888.1,869.1z"/>
	<path d="M939.5,886c2.8,0,4.1,2.3,4.1,7c0,0.5,0,1,0,1.6l-0.2,6.6c-0.1,2.1-0.1,4.1-0.1,6.1l1.4,21.2c0,1.6-1.6,2.3-4.8,2.3
		c-0.2,0-0.6,0-1.4,0s-1.2-0.3-1.5-0.8c-0.3-0.6-0.3-1.3-0.1-2.1c0.2-0.8,0.1-1.7-0.2-2.7c-2.9,3.1-6.7,4.6-11.4,4.6
		c-8.8,0-13.2-6.8-13.2-20.5c0-7.6,1.4-13.3,4.3-17.2c2.8-3.9,6.9-5.8,12.2-5.8c2.5,0,5,0.4,7.5,1.3C936.9,886.6,938,886,939.5,886z
		 M929.7,894.5c-3.6,0-6.2,1-8,3.1c-1.8,2.1-2.6,5.8-2.6,11.4c0,9.3,2.5,13.9,7.5,13.9c1.3,0,2.8-0.6,4.4-1.8c1.6-1.2,2.7-2.5,3.3-4
		c1.2-3.4,1.8-7.1,1.8-11.1c0-4-0.5-6.9-1.5-8.7C933.7,895.4,932,894.5,929.7,894.5z"/>
	<path d="M952.1,896.4c2.2-3.4,5.1-6,8.5-7.7c3.4-1.7,6.8-2.6,10-2.6c3.3,0,5.9,0.4,7.8,1.2c2,0.8,3,1.8,3,3.1
		c0,1.3-0.4,2.6-1.1,3.8c-0.7,1.3-1.7,1.9-2.9,1.9c-0.4,0-1.6-0.4-3.6-1.1c-2-0.7-3.2-1.1-3.8-1.1c-3.6,0-6.7,1.3-9.3,4
		c-2.6,2.7-3.8,6.2-3.8,10.6c0,4.4,0.7,7.6,2.1,9.8c1.4,2.2,3.8,3.2,7.3,3.2c1.4,0,3.7-0.8,7.1-2.4c3.3-1.6,5.4-2.4,6.2-2.4
		s1.5,0.3,2,0.8c0.5,0.5,0.8,1.1,0.8,1.9c0,1.5-1,3.1-2.9,4.7c-1.9,1.7-4.3,3-7.1,4.1c-2.8,1.1-5.3,1.6-7.6,1.6c-5,0-8.9-2-11.8-5.9
		s-4.3-9.3-4.3-16.1C948.7,903.7,949.9,899.9,952.1,896.4z"/>
	<path d="M1000,886.4c3.3,0,6.5,1,9.5,2.9c3,1.9,4.5,4.3,4.5,7.2c0,2.8-1.2,5.6-3.7,8.3c-2.4,2.7-5.7,4.3-9.8,4.8
		c-1.8,0.3-4.4,0.4-7.9,0.4c0.7,5.3,2,8.8,4,10.5c0.6,0.7,1.5,1,2.5,1c3.9,0,7.1-1.2,9.8-3.7c2.6-2.5,4.5-3.7,5.6-3.7
		c0.5,0,1.3,0.5,2.3,1.4s1.5,1.8,1.5,2.6c0,1.6-2,4-5.9,7c-1.8,1.4-3.9,2.6-6.3,3.6c-2.5,1-4.8,1.5-6.9,1.5c-5.4,0-9.4-3.5-12-10.5
		c-1.6-4.3-2.4-9.1-2.4-14.3c0-5.2,1.2-9.7,3.7-13.4C990.9,888.3,994.7,886.4,1000,886.4z M1000.4,892.9c-2.4,0-4.4,1.3-6.1,4
		c-0.6,0.9-1.2,3.1-1.8,6.4c8.8,0,13.1-2.2,13.1-6.5C1005.7,894.2,1003.9,892.9,1000.4,892.9z"/>
	<path d="M1035.6,865.3l-0.8,32c0,3.4,0,5.7,0.1,6.8c-0.2,0.8-0.7,1.5-1.5,2.2c-0.7,0.6-1.5,0.9-2.4,0.9s-1.6-0.7-2.2-2.1
		c-0.9-15.8-1.4-29-1.4-39.8c0.6-1.6,2-2.3,4.3-2.3C1034.1,862.9,1035.4,863.7,1035.6,865.3z M1029.2,925.3
		c-0.9-1.1-1.4-2.2-1.4-3.3c0-1.1,0.4-2.2,1.3-3.1c0.9-0.9,2-1.4,3.5-1.4c1.5,0,2.5,0.3,3.2,0.8c0.7,0.6,1,1.8,1,3.7
		c0,3.3-1.4,5-4.1,5C1031.2,926.9,1030.1,926.4,1029.2,925.3z"/>
	<path d="M1058.8,865.3l-0.8,32c0,3.4,0,5.7,0.1,6.8c-0.2,0.8-0.7,1.5-1.5,2.2c-0.7,0.6-1.5,0.9-2.4,0.9s-1.6-0.7-2.2-2.1
		c-0.9-15.8-1.4-29-1.4-39.8c0.6-1.6,2-2.3,4.3-2.3S1058.6,863.7,1058.8,865.3z M1052.3,925.3c-0.9-1.1-1.4-2.2-1.4-3.3
		c0-1.1,0.4-2.2,1.3-3.1c0.9-0.9,2-1.4,3.5-1.4c1.5,0,2.5,0.3,3.2,0.8c0.7,0.6,1,1.8,1,3.7c0,3.3-1.4,5-4.1,5
		C1054.4,926.9,1053.3,926.4,1052.3,925.3z"/>
</g>
<g>
	<path d="M1293.7,548.1l0.1-4.8c0-1.6-0.5-3.2-1.5-4.8c-1-1.6-3.5-6.1-7.5-13.6s-5.9-11.7-5.9-12.7c0-1,0.4-1.8,1.2-2.6
		c0.8-0.8,1.6-1.2,2.4-1.2c0.8,0,1.7,0.7,2.8,2.2c1.1,1.4,3.3,5.2,6.5,11.4c3.2,6.1,5.1,9.5,5.6,10.1c6-10.6,10.8-18.1,14.4-22.5
		c0.9-0.8,1.6-1.2,2.1-1.2c0.5,0,0.9,0.1,1.2,0.2c1.5,0.6,2.3,1.5,2.3,2.5c0,1-0.3,1.9-0.8,2.7c-0.5,0.8-1.9,2.7-4.1,5.9
		c-3.3,4.6-6.2,9.3-8.6,14c-2.4,4.7-3.6,7.6-3.6,8.7v17.2l0.3,7.5c0,1.4-0.4,2.3-1.1,2.9c-0.8,0.5-1.7,0.8-2.8,0.8
		c-1.1,0-1.8-0.6-2.2-1.8c-0.4-1.2-0.6-2.8-0.7-4.7c-0.1-1.9-0.1-4.8-0.1-8.5V548.1z"/>
	<path d="M1335.6,527.4c3.3,0,6.5,1,9.5,2.9c3,1.9,4.5,4.3,4.5,7.2c0,2.8-1.2,5.6-3.7,8.3c-2.4,2.7-5.7,4.3-9.8,4.8
		c-1.8,0.3-4.4,0.4-7.9,0.4c0.7,5.3,2,8.8,4,10.5c0.6,0.7,1.5,1,2.5,1c3.9,0,7.1-1.2,9.8-3.7c2.6-2.5,4.5-3.7,5.6-3.7
		c0.5,0,1.3,0.5,2.3,1.4c1,0.9,1.5,1.8,1.5,2.6c0,1.6-2,4-5.9,7c-1.8,1.4-3.9,2.6-6.3,3.6c-2.5,1-4.8,1.5-6.9,1.5
		c-5.4,0-9.4-3.5-12-10.5c-1.6-4.3-2.4-9.1-2.4-14.3c0-5.2,1.2-9.7,3.7-13.4C1326.5,529.2,1330.3,527.4,1335.6,527.4z M1336,533.8
		c-2.4,0-4.4,1.3-6.1,4c-0.6,0.9-1.2,3.1-1.8,6.4c8.8,0,13.1-2.2,13.1-6.5C1341.3,535.1,1339.5,533.8,1336,533.8z"/>
	<path d="M1385.6,527c2.8,0,4.1,2.3,4.1,7c0,0.5,0,1,0,1.6l-0.2,6.6c-0.1,2.1-0.1,4.1-0.1,6.1l1.4,21.2c0,1.6-1.6,2.3-4.8,2.3
		c-0.2,0-0.6,0-1.4,0c-0.7,0-1.2-0.3-1.5-0.8c-0.3-0.6-0.3-1.3-0.1-2.1c0.2-0.8,0.1-1.7-0.2-2.7c-2.9,3.1-6.7,4.6-11.4,4.6
		c-8.8,0-13.2-6.8-13.2-20.5c0-7.6,1.4-13.3,4.3-17.2c2.8-3.9,6.9-5.8,12.2-5.8c2.5,0,5,0.4,7.5,1.3
		C1383,527.5,1384.1,527,1385.6,527z M1375.8,535.5c-3.6,0-6.2,1-8,3.1c-1.8,2.1-2.6,5.8-2.6,11.4c0,9.3,2.5,13.9,7.5,13.9
		c1.3,0,2.8-0.6,4.4-1.8c1.6-1.2,2.7-2.5,3.3-4c1.2-3.4,1.8-7.1,1.8-11.1c0-4-0.5-6.9-1.5-8.7
		C1379.8,536.4,1378.1,535.5,1375.8,535.5z"/>
	<path d="M1422.3,527c2.8,0,4.1,2.3,4.1,7c0,0.5,0,1,0,1.6l-0.2,6.6c-0.1,2.1-0.1,4.1-0.1,6.1l1.4,21.2c0,1.6-1.6,2.3-4.8,2.3
		c-0.2,0-0.6,0-1.4,0c-0.7,0-1.2-0.3-1.5-0.8c-0.3-0.6-0.3-1.3-0.1-2.1c0.2-0.8,0.1-1.7-0.2-2.7c-2.9,3.1-6.7,4.6-11.4,4.6
		c-8.8,0-13.2-6.8-13.2-20.5c0-7.6,1.4-13.3,4.3-17.2c2.8-3.9,6.9-5.8,12.2-5.8c2.5,0,5,0.4,7.5,1.3
		C1419.8,527.5,1420.9,527,1422.3,527z M1412.6,535.5c-3.6,0-6.2,1-8,3.1c-1.8,2.1-2.6,5.8-2.6,11.4c0,9.3,2.5,13.9,7.5,13.9
		c1.3,0,2.8-0.6,4.4-1.8c1.6-1.2,2.7-2.5,3.3-4c1.2-3.4,1.8-7.1,1.8-11.1c0-4-0.5-6.9-1.5-8.7
		C1416.5,536.4,1414.9,535.5,1412.6,535.5z"/>
	<path d="M1459.1,527c2.8,0,4.1,2.3,4.1,7c0,0.5,0,1,0,1.6l-0.2,6.6c-0.1,2.1-0.1,4.1-0.1,6.1l1.4,21.2c0,1.6-1.6,2.3-4.8,2.3
		c-0.2,0-0.6,0-1.4,0c-0.7,0-1.2-0.3-1.5-0.8c-0.3-0.6-0.3-1.3-0.1-2.1c0.2-0.8,0.1-1.7-0.2-2.7c-2.9,3.1-6.7,4.6-11.4,4.6
		c-8.8,0-13.2-6.8-13.2-20.5c0-7.6,1.4-13.3,4.3-17.2c2.8-3.9,6.9-5.8,12.2-5.8c2.5,0,5,0.4,7.5,1.3
		C1456.6,527.5,1457.7,527,1459.1,527z M1449.4,535.5c-3.6,0-6.2,1-8,3.1c-1.8,2.1-2.6,5.8-2.6,11.4c0,9.3,2.5,13.9,7.5,13.9
		c1.3,0,2.8-0.6,4.4-1.8c1.6-1.2,2.7-2.5,3.3-4c1.2-3.4,1.8-7.1,1.8-11.1c0-4-0.5-6.9-1.5-8.7
		C1453.3,536.4,1451.7,535.5,1449.4,535.5z"/>
	<path d="M1495.9,527c2.8,0,4.1,2.3,4.1,7c0,0.5,0,1,0,1.6l-0.2,6.6c-0.1,2.1-0.1,4.1-0.1,6.1l1.4,21.2c0,1.6-1.6,2.3-4.8,2.3
		c-0.2,0-0.6,0-1.4,0c-0.7,0-1.2-0.3-1.5-0.8c-0.3-0.6-0.3-1.3-0.1-2.1c0.2-0.8,0.1-1.7-0.2-2.7c-2.9,3.1-6.7,4.6-11.4,4.6
		c-8.8,0-13.2-6.8-13.2-20.5c0-7.6,1.4-13.3,4.3-17.2c2.8-3.9,6.9-5.8,12.2-5.8c2.5,0,5,0.4,7.5,1.3
		C1493.3,527.5,1494.5,527,1495.9,527z M1486.1,535.5c-3.6,0-6.2,1-8,3.1c-1.8,2.1-2.6,5.8-2.6,11.4c0,9.3,2.5,13.9,7.5,13.9
		c1.3,0,2.8-0.6,4.4-1.8c1.6-1.2,2.7-2.5,3.3-4c1.2-3.4,1.8-7.1,1.8-11.1c0-4-0.5-6.9-1.5-8.7
		C1490.1,536.4,1488.5,535.5,1486.1,535.5z"/>
	<path d="M1516.5,540.4l0.8,22.1c0,2.8-0.1,4.3-0.4,4.8c-0.1,1.1-0.5,2-1.1,2.6c-0.6,0.6-1.7,0.9-3.4,0.9c-0.8,0-1.5-0.5-2-1.5
		c-0.5-1-0.8-2.2-0.8-3.5c-0.4-11-1-21.3-1.7-31c-0.7-9.7-1.1-18.7-1.1-27c0-1.3,0.4-2.3,1.3-3.1c0.9-0.8,1.9-1.1,3.1-1.1
		c1.7,0,2.8,1.5,3.1,4.5c0.3,3,0.6,6.8,0.7,11.3c0.1,4.5,0.2,7.8,0.3,9.9c3.1-1.6,6.3-2.4,9.4-2.4c7.3,0,11.9,3.2,13.8,9.6
		c1.1,3.6,1.7,8.3,1.7,14c0,1.9-0.2,4.8-0.5,8.9c-0.3,4-0.5,6.6-0.6,7.8c-0.1,1.2-0.6,2.1-1.5,2.8c-1,0.7-2,1-3.1,1
		c-1.8,0-2.6-0.9-2.6-2.8l0.7-16.3c0-1.4-0.1-3.7-0.2-6.8c-0.1-3.2-0.8-5.7-1.9-7.6c-1.2-1.9-3.2-2.8-6.1-2.8
		C1519.1,534.4,1516.5,536.4,1516.5,540.4z"/>
	<path d="M1552.4,559.5c1.3,0,2.5,0.5,3.5,1.5c1,1,1.6,2.4,1.8,4.1c0,1.4-0.5,2.6-1.5,3.8c-1,1.2-2.2,1.7-3.5,1.7
		c-1.3,0-2.5-0.4-3.6-1.1c-1.1-0.7-1.6-1.8-1.6-3.3c0-1.5,0.5-3,1.5-4.5C1549.9,560.3,1551.1,559.5,1552.4,559.5z"/>
	<path d="M1572.5,559.5c1.3,0,2.5,0.5,3.5,1.5c1,1,1.6,2.4,1.8,4.1c0,1.4-0.5,2.6-1.5,3.8c-1,1.2-2.2,1.7-3.5,1.7
		c-1.3,0-2.5-0.4-3.6-1.1c-1.1-0.7-1.6-1.8-1.6-3.3c0-1.5,0.5-3,1.5-4.5C1570,560.3,1571.2,559.5,1572.5,559.5z"/>
	<path d="M1585,557.8l0.1-7.3l0.8-39.2c0-0.8,0.4-1.3,1.2-1.8c0.8-0.4,1.8-0.7,3.1-0.7c3,0,4.5,1.1,4.5,3.2c0,0.7-0.4,5.9-1.1,15.8
		c-0.7,9.8-1.1,15.7-1.1,17.6v9.9c0,4.7,0.3,7.3,0.9,7.7c0.9,0.3,2,0.5,3.3,0.5l13.5-0.9c2.9,0,4.4,1.1,4.4,3.2
		c0,1.7-0.8,2.9-2.4,3.7c-1.6,0.8-3.2,1.2-4.7,1.3c-1.6,0.1-3.5,0.1-5.7,0.1c-9.8,0-15.1-0.3-16-0.9c-0.4-0.4-0.7-1.8-0.8-4.3
		c-0.1-2.5-0.1-4.2-0.1-5.2C1585.1,559.5,1585,558.6,1585,557.8z"/>
	<path d="M1634.5,527.4c3.3,0,6.5,1,9.5,2.9c3,1.9,4.5,4.3,4.5,7.2c0,2.8-1.2,5.6-3.7,8.3c-2.4,2.7-5.7,4.3-9.8,4.8
		c-1.8,0.3-4.4,0.4-7.9,0.4c0.7,5.3,2,8.8,4,10.5c0.6,0.7,1.5,1,2.5,1c3.9,0,7.1-1.2,9.8-3.7c2.6-2.5,4.5-3.7,5.6-3.7
		c0.5,0,1.3,0.5,2.3,1.4c1,0.9,1.5,1.8,1.5,2.6c0,1.6-2,4-5.9,7c-1.8,1.4-3.9,2.6-6.3,3.6c-2.5,1-4.8,1.5-6.9,1.5
		c-5.4,0-9.4-3.5-12-10.5c-1.6-4.3-2.4-9.1-2.4-14.3c0-5.2,1.2-9.7,3.7-13.4C1625.4,529.2,1629.2,527.4,1634.5,527.4z M1635,533.8
		c-2.4,0-4.4,1.3-6.1,4c-0.6,0.9-1.2,3.1-1.8,6.4c8.8,0,13.1-2.2,13.1-6.5C1640.2,535.1,1638.5,533.8,1635,533.8z"/>
	<path d="M1660.7,527l4.7,0.1c1.1,0,1.7,0,1.8-0.1v-19.2c0.1-1.1,0.6-2,1.6-2.7c1-0.8,1.9-1.1,2.8-1.1c0.9,0,1.6,0.3,2.1,0.8
		c0.5,0.6,0.8,1.4,0.7,2.6c-0.1,1.2-0.1,7.7-0.1,19.5l11-0.4c1.9,0,2.8,1.1,2.8,3.3c0,1.6-0.5,2.8-1.5,3.7c-1,0.8-2,1.3-3.1,1.3
		c-1.1,0.1-2.2,0.1-3.2,0.1l-5.7-0.1c0,2.6,0.3,7.6,0.8,15.2c0.5,7.6,1,12.5,1.3,14.7c0.3,2.2,0.4,3.7,0.2,4.3
		c-0.2,0.7-0.5,1.1-1,1.4c-0.8,0.4-1.9,0.6-3.3,0.6c-1.4,0-2.2-0.8-2.4-2.3c-1.3-8.2-2.1-19.5-2.5-33.8c-0.6,0.1-2.7,0.1-6.5,0.1
		c-3.8,0-5.6-1.1-5.6-3.3C1655.4,528.5,1657.2,527,1660.7,527z"/>
	<path d="M1695.4,500.3c0.7-0.6,1.4-0.8,2.3-0.8c0.8,0,1.6,0.3,2.3,0.9c0.7,0.6,1.1,1.4,1.1,2.4c0,3.4-0.6,6.8-1.9,9.9
		c-1.3,3.2-2.9,4.8-5,4.8c-2.1,0-3.1-1.1-3.1-3.2c0-0.9,0.5-2.4,1.6-4.7c1.1-2.3,1.6-4.6,1.6-7.1
		C1694.4,501.6,1694.8,500.9,1695.4,500.3z"/>
	<path d="M1716.8,530.1c2.6-2.2,5.7-3.3,9.1-3.3s6.8,0.6,10,1.9c3.2,1.3,4.8,2.9,4.8,5c0,1.1-0.4,1.9-1.2,2.5
		c-0.8,0.6-1.5,0.9-2.1,0.9c-0.6,0-1.1,0-1.4,0c-0.3,0-1.6-0.6-3.8-1.7c-2.2-1.1-4.1-1.7-6-1.7c-1.8,0-3.4,0.5-4.6,1.4
		c-1.3,0.9-1.9,2.2-1.9,4c0,1.8,0.7,3.1,2.2,4.1c1.5,1,4,1.9,7.7,2.6c3.7,0.7,6.5,1.7,8.5,3c2,1.3,3,3.8,3,7.3c0,5.2-1.4,8.9-4.1,11
		c-2.7,2.2-6,3.2-9.9,3.2c-3.9,0-7.2-0.5-9.9-1.6c-2.7-1.1-4.1-2.7-4.1-4.8c0-2.4,1.2-3.7,3.7-3.7c0.6,0,2,0.4,4.1,1.3
		c2.1,0.9,4.2,1.3,6.3,1.3c2.1,0,3.7-0.7,4.8-2c1.1-1.3,1.6-2.9,1.6-4.6c0-1.8-0.7-3-2.2-3.8c-1.4-0.8-3.6-1.4-6.6-1.9
		c-2.9-0.5-5.1-1-6.5-1.6c-3.8-1.5-5.6-4.8-5.6-10C1712.8,535.2,1714.1,532.3,1716.8,530.1z"/>
	<path d="M1795.9,566.9c-2.3,2.6-5.1,3.9-8.5,3.9c-3.4,0-6.4-1.1-8.9-3.2c-5.3-4.1-7.9-10.3-7.9-18.7c0-6.6,1.8-11.8,5.4-15.8
		c3.6-4,8.1-6,13.4-6c5.3,0,8.9,1.8,10.9,5.4c1.7,3.2,2.5,8,2.5,14.4l-0.2,7.7c0,3.6,0.2,8.6,0.5,15.1c0.3,6.4,0.5,11.2,0.5,14.5
		c0,5.4-1.3,9.3-4,11.9c-2.7,2.5-6.7,3.8-12.2,3.8c-3.3,0-6.6-0.7-9.9-2.1c-3.4-1.4-5.1-3-5.1-4.8c0-1.3,0.4-2.3,1.1-3
		c0.7-0.7,1.5-1,2.5-1c0.9,0,3,0.7,6.3,2.1c3.3,1.4,5.6,2.1,7.1,2.1c4.5,0,6.8-3.7,6.8-11.1C1796.2,574.9,1796.1,569.8,1795.9,566.9
		z M1795.8,547.1c0-4.5-0.7-7.7-2-9.6c-1.3-1.8-3.5-2.8-6.3-2.8c-2.9,0-5.2,1.3-6.9,3.9c-1.8,2.6-2.6,6-2.6,10c0,4,0.8,7.2,2.5,9.6
		c1.7,2.4,4.2,3.6,7.6,3.6c3.4,0,5.7-1.5,6.7-4.4C1795.4,555.1,1795.8,551.6,1795.8,547.1z"/>
	<path d="M1827.3,527.1c4.5,0,8.2,2.2,11.1,6.5c2.9,4.3,4.4,9.5,4.4,15.5c0,6-1.5,11.2-4.5,15.4c-3,4.3-6.9,6.4-11.8,6.4
		c-4.9,0-8.9-2.2-11.9-6.5c-3-4.3-4.5-9.2-4.5-14.5c0-6.8,1.4-12.3,4.1-16.3C1817.2,529.2,1821.5,527.1,1827.3,527.1z M1826.2,534.8
		c-2.6,0-4.8,1.4-6.5,4.1c-1.7,2.8-2.5,5.7-2.5,8.7c0,4.8,0.9,8.4,2.8,10.9c1.9,2.5,4,3.8,6.4,3.8c4.3,0,7-1.8,8.2-5.5
		c0.5-1.8,0.8-3.9,0.8-6.6C1835.3,539.9,1832.2,534.8,1826.2,534.8z"/>
</g>
<g>
	<g id="body_x2F_mono_x2F_Paper">
		<path id="_xD83C__xDFA8_-Background_6_" class="st0" d="M1893.6,1431.6c-7.1,0.5-13,8.1-8.6,14.8c10.7,16.2,20.2,33.3,27.6,51.2
			c4.2,10.1,8.1,18.9,11.2,29.4c-3.1-0.3-6.2,1.5-7.6,4.5c-2.1,4.4-4.6,11.2-3.6,16.5c0,0,1.7,7.4,1.8,7.4
			c-6.4,10.4-15.3,9-11.4,24.5c0.8,3.3,3.8,6.8,2.7,10c-2.5,6.5-5,15-2.7,21.3c1.6,4.5,4.8,6.4,6,10.9c1.7,6.3-2.1,13,0,19.1
			c-14.7,33.2-15.1,70.7-6.8,105.5c-9.1,10.6,13.8,41,19.7,51.6c19.2,18.3,41.2,35.1,68.4,40.5c4.5,1,9-1,11.2-4.5
			c26.3,8,53.9,10.8,81.3,7.7c27.4-3.1,65.3-7.8,96.8-7.7c71.5,0.4,140.7,9.1,212.2,7.6c14.5,0.9,27.8-10.1,31.4-25.4
			c1.4-4.9,1.9-8.5,5.2-11.7c83-46.5,92.1-156,91.8-240.1c-0.1-20-35-90.1-50.1-126.4c9.2-6.1-2.5-27.7-4.6-36.7
			c2.7-3.9,1.8-8.8-1.2-12.4c-32.6-39.3-80.4-66.3-131.4-74.3c-26-2.5-52-5.5-78.1-8.8c-11.7-3.2-19.1-9.2-26.7-19.1
			c3.6-25.5-20.1-46.7-44.3-53.4c-5.5-1.5-44-0.8-49.7,0.5c-26,6-36.5,22-34.9,53.9c0.2,3.1-4.5,12.2-3.9,15.4
			c-0.6,0.5-1.2,1.1-1.8,1.7c-4.2-4.8-13.8-3-15.8,3.7c-6.7,22.3-7.4,36.1-34.1,40.8c-25.6,5.6-43.2,13.3-55.2,22.4
			c-12.9,9.8-19.5,21.7-26.7,49.7C1939.3,1426.8,1916.6,1430.1,1893.6,1431.6z"/>
		<path id="_xD83D__xDD8D_-Ink_9_" class="st1" d="M2027.6,1557.5c1.2-2.3,2.1-4.7,4-6.6c2.8-2.9,6.3-2.9,10.1-2.6
			c5.4,0.5,10.8,1.4,16.1,2.3c-9.9,0.8-19.8,2.8-29,6.4C2028.4,1557.1,2028,1557.3,2027.6,1557.5z M1929.8,1522.4
			c-15.5-27.8-29.2-56.6-41.6-86c9.1-0.7,18.2-2.1,27.4-3c10.3-1,20.6-1.8,31-2.4c2.2-0.1,4.3-0.2,6.4-0.4
			c7.1-0.4,14.2-0.7,21.3-0.9c4.8-0.1,9.7-0.3,14.6-0.3c2.3,0,4.1,0.2,5.6,2.1c0.9,1.1,1.4,2.9,2.8,3.7c0.1,0.1,0.4,0.2,0.7,0.4
			c0.2,0.2,0.5,0.4,0.7,0.7c1,1.3,1.8,2.6,2.6,4c2.3,4,4.5,8.2,6.6,12.3c3.7,7.3,7,14.8,10.9,22.1c3.6,6.7,7.3,13.3,11.3,19.8
			c0.9,1.4,8,12.3,12.1,17.9c-3.3,0.1-6.5,0.6-9.5,1.5c-1.2-2.8-2.8-5.5-4.1-8.3c-1.3-2.8-2.1-6-3.8-8.5c-1.2-1.7-3.6-0.6-3.3,1.4
			c0.6,3.1,2.6,6.1,4.3,8.7c1.7,2.5,3.4,5.1,5.6,7.1c-0.1,0-0.2,0.1-0.3,0.1c-7.6,2.9-12.5,10.9-17.2,17.1
			c-3.3,4.4-26.3,35.6-10.3,36.5c4.1,0.2,4.1-6.3,0-6.4c1,0,0.6-0.9,0.8-1.8c0.2-0.9,0.7-1.8,1-2.7c1-2.4,2.1-4.7,3.4-7
			c2.1-3.8,4.5-7.4,7-10.8c2.7-3.7,5.5-7.2,8.4-10.7c3-3.7,5.8-7.3,10.6-8.6c3.2-0.9,6.7-1.2,10.3-1.2c5.1,0,10.4,0.6,15.2,0.9
			c8.7,0.7,17.4,1.9,25.8,3.9c7.2,1.7,13.1,5,18,10.6c4.6,5.2,8,11.4,11.5,17.4c8.4,14.3,19.7,26.5,33.2,35.5c0.4,1,1.2,1.9,2.3,2.5
			c0,0,0,0,0,0.1c0.3,0.1,0.6,0.2,0.9,0.4c0,0,0,0,0.1,0c9.4,4.1,18.7,8.1,27.5,13.3c0.1,1,0.3,2,0.4,2.9c0.3,3.7,0.8,7.4,1.1,11.1
			c0.6,7.4,1.1,14.9,0.8,22.3c-0.2,7.8-1.2,15.5-3.1,23.1c-0.8,3.2-1.8,6.3-2.8,9.5c-5-3.9-11.1-6.8-16.7-9.4c-6-2.8-12.1-5-18.7-6
			c-6.8-1-13.4-0.2-20.2,0.7c-6.1,0.9-12.7,2-18.7,0.2c-10-3.2-13.6-15-20.8-21.6c-3.4-3.2-7.5-5.4-12.2-5.9
			c-3.4-0.4-7.1,0.6-10.4-0.9c-3.1-1.4-4.9-4.1-5.8-7.3c-0.4-1.2-1.2-2.2-2.3-2.7c2.1-0.7,3.4-2.2,5.2-3.6c2.3-1.8,4.6-3.6,7-5.3
			c2.2-1.5,4.4-3,6.7-4.5c1.5-1,4.7-4.3,6.7-3.9c0.2,0,0.4-0.1,0.3-0.3c-2.3-6-27.5,10.2-29.4,14.3c-0.5,1.1-0.2,2.3,0.5,3
			c-4.9,1.3-8.6-3.5-9.7-7.7c-1.3-5.4-0.1-11.6,0.7-17c0.1-0.6-0.5-1.1-0.9-0.9l-0.2-0.4c5.8-2.5,12.1-4.3,18-6.4
			c3.9-1.3,7.7-2.7,11.6-4c2.9-1,6-1.8,8-4.2c1.3-1.6,1.1-4.5-1.3-5c-3.9-0.9-7.5,0.9-11.2,2.1c-3.6,1.2-7.2,2.5-10.8,3.7
			c-6.4,2.2-13,4-19.1,6.8c-5.2,2.3-9.6,5.8-12,11.1c-0.9,2-1.9,7.4-4.5,8c-3.1,0.7-3.9-6-4.2-8.2c-1.6-13.5,6-28.9,18.2-34.9
			c6.3-3,13.3-4.8,20-6.5c5.6-1.5,11.4-2.6,17.1-3.5c2.4-0.4,4.8-0.7,7.3-1c0.5-0.1,0.5-0.8,0-0.8c-3-0.1-6-0.2-9-0.1
			c-8.3-4.2-18.2-7.6-27.4-8.1c-8.4-0.5-15.8,6.5-17.6,14.5c-0.4,1.9,0.5,3.3,1.8,3.9c-7.4,5-12.1,12.4-15.2,21.4
			c-0.1,0.4-0.3,0.9-0.4,1.4c-1.8-4.5-5.8-8.4-9.7-11c-4.3-2.8-9-5.5-14.1-7.8c0.4-0.2,0.8-0.4,1.2-0.7c2.1-1.7,2.2-4.8,2.5-7.3
			c0.4-3.3,0.6-6.6-0.2-9.8c-1.5-6.3-6.5-10.1-12.1-12.8c-13.6-6.5-28.7-10.1-43.7-10.8C1930.1,1523,1930,1522.7,1929.8,1522.4z
			 M2004.1,1596c-0.1,2.1,0,4.3,0.3,6.3c-1.8-1.3-3.7-2.4-5.7-3.3C2000.7,1598.5,2002.6,1597.5,2004.1,1596z M1918.6,1530.9
			c1.7-3.2,4.4-2.7,7.7-2.6c2.8,0.1,5.6,0.3,8.4,0.6c12.1,1.3,24.3,4.4,35.4,9.5c5,2.3,9.9,5,10.8,10.9c0.4,2.6,0.1,5.4-0.2,8
			c-0.1,0.8-0.2,2-0.6,2.2c-0.5,0.3-4.2-0.9-4.8-1c-6.1-1.3-12.2-2.6-18.4-4c-5.7-1.2-11.7-3.3-17.5-3.4c-2.2,0-3.4,3.5-1.2,4.4
			c7.5,3.2,16.5,4.1,24.4,5.8c1.4,0.3,2.7,0.6,4.1,0.9c7.7,3.6,15.5,6.7,22.9,11c4.3,2.5,9.1,5.2,11.6,9.6c2.3,3.9,2,10.5-3.3,11.7
			c-1.6,0.4-3.4,0.3-5.3,0.1c-3.8-0.5-7.8-2-11-2.7l-16-3.6c-11-2.5-21.9-5-32.9-7.4c-2.8-0.6-4,3.7-1.2,4.4
			c14.4,3.3,28.9,6.6,43.3,9.9c5.8,1.3,11.8,3.1,17.8,4c5.3,3.4,10.5,6.7,14.7,11.7c0.3,0.4,0.6,0.7,0.9,1.1c2.3,3,1.7,6.7-2.5,6.8
			c-0.1,0-0.3,0-0.4,0c-2.2,0-4.4-0.8-6.5-1.3c-4.4-1.1-8.8-2.1-13.3-2.9c-17.8-3.5-36-5-54-6.7c-3.1-0.3-3.1,4.6,0,4.9
			c12.6,1.2,25.2,2.4,37.7,4.2c6.1,0.9,12.2,1.9,18.2,3c3.1,0.6,6.3,1.5,9.4,2.2c0,0.1,0,0.2,0,0.3c3.3,5,6.3,13.3,1,18.2
			c-2.6,2.4-6.3,2-9.5,1.6c-3.7-0.4-7.5-0.9-11.2-1.4c-6.5-0.9-13.1-2-19.6-3.1c-3.4-0.6-6.8-1.2-10.1-1.9c-2.8-0.5-4.4-1.2-6.9,0
			c-0.9,0.5-0.9,1.7-0.3,2.4c2.5,2.9,7.7,2.7,11.3,3.4c4.4,0.8,8.9,1.5,13.3,2.2c8.4,1.3,17,2.6,25.5,3.1c5.3,0.3,9.9-1.7,12.3-6
			c0,1.2-0.1,2.4-0.1,3.6c-0.2,4.4-0.2,8.7-0.3,13.1c0,1.4,0.3,3.5-0.2,5.1c-6.6,0.2-13.2,0.3-19.9,0.2c-3.8,0-7.5-0.1-11.3-0.3
			c-0.6-1-1.6-1.7-3-1.7c-13.5,0.3-20.9-10.2-29.4-19.2c-7.8-8.2-16.8-16.2-27-21.4c-1.5-3.5-3.8-6.8-5.5-10.1
			c-1.9-3.6-4.6-8.5-2.9-12.6c1.3-3.2,5.1-4.6,6.5-7.8c1.1-2.6,0.6-5.2-0.8-7.6c-1.4-2.5-4.8-5.1-4.9-8.2c-0.2-3.8,5-6.4,7.3-8.8
			c4.5-4.5,5.7-10.8,2.9-16.5c-0.1-0.1-0.2-0.2-0.3-0.2C1914.5,1542.6,1915.9,1536,1918.6,1530.9z M1923.2,1733.8
			c-3.7-8.8-1.3-19.3,1.5-27.9c1.4-4.4,3.2-8.5,5.5-12.5c1.9-3.3,4.6-7.5,8-9.5c0.2-0.1,0.5,0,0.5,0.3c-0.2,3.6-1.9,7.3-2.9,10.8
			c-1.3,4.3-2.4,8.7-3.3,13.1c-1.7,8.5-1,17.5-3.4,25.8C1928.1,1737,1924.3,1736.4,1923.2,1733.8z M2003.9,1623.1
			c-0.3,2.3-0.5,4.5-0.7,6.8c-1.2-3-3.3-5.7-5.6-7.9c2,0.5,4.1,0.8,6.1,1C2003.8,1623.1,2003.8,1623.1,2003.9,1623.1z
			 M2018.8,1795.9c-1-1.7-0.3-3.5,1.2-4.5c3.1-2.1,5.3-5.4,7.9-8.1c3-3.1,7.7,1.6,4.7,4.7c-3.1,3.1-5.7,6.6-9.3,9.1
			C2021.9,1798.2,2019.7,1797.4,2018.8,1795.9z M2040.1,1706.3c-6.1-2.6-12-5.4-18.3-7.3c-4.1-1.2-2.3-7.6,1.8-6.4
			c6.9,2,13.3,5.1,19.9,8C2047.4,1702.2,2044,1707.9,2040.1,1706.3z M2107.2,1711.9c-1.6,3.9-8,2.2-6.4-1.8
			c1.8-4.5,3.9-8.9,5.7-13.4c1.6-3.9,8-2.2,6.4,1.8C2111.1,1703,2109,1707.4,2107.2,1711.9z M2172.4,1767c-3-3,1.7-7.7,4.7-4.7
			c3.7,3.8,6.9,7.9,10.1,12.2c1.1,1.4,0.2,3.7-1.2,4.5c-1.7,1-3.5,0.2-4.5-1.2C2178.6,1774,2175.7,1770.3,2172.4,1767z
			 M2195.8,1334.4c1,1.6,0.3,3.5-1.2,4.5c-2.6,1.8-4.8,4-7,6.2c-3,3-7.7-1.7-4.7-4.7c2.6-2.6,5.3-5.1,8.3-7.2
			C2192.7,1332.2,2194.9,1332.9,2195.8,1334.4z M2097.3,1436.7c2.3,4.5,4.2,9,4.3,14.1c0.1,4.3-6.5,4.3-6.6,0
			c-0.1-3.9-1.6-7.3-3.4-10.8C2089.6,1436.3,2095.3,1432.9,2097.3,1436.7z M2063.5,1360c3.5,2.4,0.2,8.1-3.4,5.7
			c-2.9-1.9-5.7-3.8-8.6-5.7c-3.5-2.4-0.2-8.1,3.4-5.7C2057.8,1356.2,2060.7,1358.1,2063.5,1360z M2209.8,1485.2
			c-1.1-4.1,5.3-5.9,6.4-1.8c1.8,6.3,2.9,12.7,3.8,19.1c0.6,4.2-5.8,6-6.4,1.8C2212.7,1497.9,2211.5,1491.5,2209.8,1485.2z
			 M2227.3,1582.2c-4.1,1-5.9-5.4-1.8-6.4c3.7-0.9,7.5-1.9,11.4-2c4.3-0.1,4.3,6.6,0,6.6C2233.6,1580.5,2230.4,1581.4,2227.3,1582.2
			z M2240.2,1729.9c-2.4-1.7-1.1-5.8,2.1-5c1.9,0.5,3.4,0.3,5.2,1.1c1.4,0.6,2.8,1.3,4.2,1.9c3.2,1.5,6.4,3,9.6,4.5
			c5.9,2.8,11.8,5.6,17.7,8.4c12.5,6,24.9,12.2,37.3,18.4c12.2,6.1,24.3,12.2,36.4,18.3c6.1,3.1,12.1,6.2,18.1,9.4
			c2.9,1.5,5.8,3,8.6,4.6c2.8,1.6,6.2,3,8.3,5.4c0.2,0.2,0.1,0.6-0.2,0.5c-5.6-0.4-11.9-4.4-17-6.7c-6-2.7-11.9-5.4-17.9-8.1
			c-12.6-5.9-25.2-11.7-37.9-17.5c-12.4-5.7-24.9-11.2-37.2-16.9c-6.2-2.9-12.4-5.7-18.6-8.6c-3-1.4-5.9-2.7-8.9-4.1
			c-1.5-0.7-3-1.3-4.5-2C2243.2,1732.6,2242.2,1731.4,2240.2,1729.9z M2280.4,1816.7c-3,3.1-7.7-1.6-4.7-4.7
			c3.3-3.4,5.9-7.5,7.8-11.9c0.7-1.7,2.2-2.8,4.1-2.3c1.6,0.4,3,2.4,2.3,4.1C2287.6,1807.4,2284.6,1812.4,2280.4,1816.7z
			 M2313.9,1703.8c-3,3-7.7-1.7-4.7-4.7l8.6-8.6c3-3,7.7,1.7,4.7,4.7L2313.9,1703.8z M2390.3,1675.6c-14.2-3.7-28.6-6.7-43-9.6
			c-14.4-3-28.8-5.9-43.1-9.4c-6.9-1.7-13.8-3.3-20.5-5.6c-6.7-2.3-14.3-5.1-20.1-9.1c-1.7-1.2-1.4-4.6,1.2-4.4
			c7.1,0.8,14.4,3,21.3,4.8c7.3,1.9,14.6,4.1,22,5.9c15,3.7,30.2,6.8,45.3,10.2c4.7,1.1,9.5,2.2,14.2,3.3c-0.7-3.5-0.9-7.1-1.2-10.8
			c-0.4-4.8-0.9-9.5-1.2-14.3c-0.8-10-1.4-20.1-1.5-30.2c-0.1-9.8,0.2-19.5,1.3-29.3c1.1-9.5,2.5-19.4,5.7-28.4
			c0.3-0.8,1.6-0.7,1.5,0.2c-0.6,9.7-1.8,19.3-2.1,29c-0.3,9.7-0.2,19.5,0.1,29.3c0.3,9.5,1,19.1,1.8,28.6
			c0.8,8.9,2.9,18.5,2.1,27.5c7.8,2.1,15.6,4.4,23.2,7.1c10.7,3.9,26.2,7.9,31.6,19.1c0.1,0.3-0.2,0.6-0.4,0.3
			c-4.2-5.3-11.4-6.9-17.6-8.8C2404,1679.2,2397.2,1677.4,2390.3,1675.6z M2431.2,1497.1c-3.9-1.6-2.2-8,1.8-6.4
			c5.2,2.1,10.3,4.2,15.1,7c3.7,2.2,0.3,7.9-3.4,5.7C2440.4,1500.9,2435.8,1499,2431.2,1497.1z M2441.8,1742.6
			c-3.8-1.9-0.5-7.6,3.4-5.7c5.4,2.6,11.1,4.6,16.3,7.7c3.7,2.1,0.4,7.9-3.4,5.7C2452.9,1747.2,2447.2,1745.2,2441.8,1742.6z
			 M2468.8,1614.9c-4.5,4.2-10.2,6.3-15.8,8.5c-4,1.6-5.7-4.8-1.8-6.4c4.5-1.8,9.3-3.4,12.9-6.8
			C2467.2,1607.2,2471.9,1611.9,2468.8,1614.9z M2437.9,1415.1c4-1.6,5.7,4.9,1.8,6.4c-4.4,1.7-9,3.1-13.4,4.8
			c-4,1.6-5.7-4.9-1.8-6.4C2428.9,1418.2,2433.4,1416.9,2437.9,1415.1z M2369.8,1348.2c3.9,1.5,2.2,8-1.8,6.4
			c-4.9-1.9-10.1-2.9-15.3-3.8c-4.2-0.7-2.4-7.1,1.8-6.4C2359.7,1345.2,2364.8,1346.3,2369.8,1348.2z M2317.2,1533.5
			c-4.2,0.9-6-5.5-1.8-6.4c4.4-0.9,8.6-2.5,12.6-4.4c3.8-1.9,7.2,3.8,3.4,5.7C2326.8,1530.6,2322.1,1532.4,2317.2,1533.5z
			 M2331.5,1429.5c4.2,1,2.4,7.4-1.8,6.4c-7.3-1.8-14.8-2.8-22-4.8c-4.1-1.1-2.4-7.5,1.8-6.4
			C2316.8,1426.7,2324.2,1427.7,2331.5,1429.5z M2232.1,1391.1c4.3,0,4.3,6.6,0,6.6c-4.5,0-9,0-13.5,0.8c-4.2,0.8-6-5.6-1.8-6.4
			C2221.9,1391.2,2227,1391.1,2232.1,1391.1z M1883.1,1430.9c-1.4,0.3-2.6,2.2-2.1,3.6c0.4,1,0.8,1.9,1.2,2.9
			c12,29.1,25.4,57.6,39.7,85.6c-3.3,0.2-6.2,1.2-7.5,5.1c-2.5,7.1-4.2,15.1-1.8,22.3c0.1,0.2,0.3,0.3,0.5,0.2c0.1,4-1.3,8-4.2,10.9
			c-2.5,2.6-5.8,4.2-8,7.1c-4.2,5.8,0,10.1,2.9,15.2c2.5,4.5-2,5.9-4.4,9c-2.1,2.7-2.7,6-2.3,9.3c0.5,3.8,2.2,7.4,3.9,10.7
			c2.1,4.1,4.1,8.7,7,12.3c0.1,0.1,0.2,0.2,0.3,0.3c0,0-0.1,0-0.1,0c-0.4,0-1,0.7-1.2,1.1c-0.2,0.4-0.3,0.8-0.5,1.2
			c0,0,0-0.1,0.1-0.1c0.2-0.5-0.4-0.8-0.7-0.8c-0.5,0-1.3,1-1.5,1.4c-3,6.9-5.6,13.9-7.8,21.1c-0.9,3.4-1.8,6.9-2.7,10.3
			c-1.2,5.1-1.9,10.2-2.6,15.3c-0.5,3.5-1,6.9-1.2,10.5c-0.6,5.2-0.9,10.3-1,15.5c0.1,8.4,1,16.7,2.2,25.1c0.4,3.4,0.9,6.8,1.7,10.2
			c0.9,5.1,2.1,10.2,3.6,15.2c0.8,3.1,1.5,6.2,2.3,9.3c0.3,0.9,0.7,1.8,1,2.7c0.6,2,1.2,3.9,2.1,5.8c0.3,0.9,0.6,1.8,1,2.7
			c6.9-2,13.8-3.8,21.2-3.9c4.3-0.1,4.3,6.6,0,6.6c-6.4,0.1-12.5,1.6-18.5,3.3c0.9,1.9,2,3.7,3.1,5.5c3.1,6.1,6.1,12.1,9.7,17.9
			c2.1,3.3,4.3,6.6,6.7,9.7c4.1,5.3,8.9,10.4,14.3,14.4c2.6,2.1,5.4,4.1,8.5,5.4c3.6,1.6,7.1,2.7,10.9,3.6c2.1,0.5,4.2,0.9,6.3,1.2
			c2.5,0.3,5.1,0.3,7.7,0.7c2.3,0.3,4.6,0.8,6.8,1.7c1.2,0.4,2.2,1,3.1,1.6c0.8,0.7,1.5,1.4,2.3,2.4c0,0,0,0,0.1,0
			c0.7,2.1,2.3,3.8,5.1,4.2c15.5,2.6,30.8,2.9,46.4,1.2c15.4-1.6,30.6-4.2,46-5.6c9-0.8,18.1-1.5,27.1-1.9c-1.1-2.2-2.3-4.5-3.4-6.7
			c-1.9-3.8,3.8-7.2,5.7-3.4c1.6,3.2,3.4,6.4,4.9,9.7c44.7-1.9,89.6,0,134.2,1c28.7,0.6,57.4,0.9,86.2,1.9c13.5,0.4,27,1.1,40.6,1.6
			c1.1-3.5,2.3-7,3.5-10.5c1.4-4,7.8-2.3,6.4,1.8c-1,3-2.1,6-3,8.9c12.6,0.4,25.3,0.7,37.9,0.7c0.3,0,0.7-0.1,1-0.2
			c0,0.3,0.1,0.5,0.1,0.8c0,0.1,0.2,0.1,0.2,0c0-0.3,0-0.6,0-0.9c1-0.4,1.8-1.3,2.1-2.4c0.9-3.5,0.9-6.9,0.4-10.4
			c0.8-1.8,2-3.4,3.4-4.6c4.4-3.7,11.1-4.6,16.2-7.2c4-2,7.7-4.4,11.3-7.1c7.4-5.5,13.6-12.2,19.1-19.5
			c12.1-16.3,20.3-35.3,26.5-54.6c12.5-39.2,18.1-81.5,19.1-122.6c0.4-17.2-0.3-34.5-2-51.6c-4-2.6-8.1-4.9-12.3-7.1
			c-3.8-1.9-0.5-7.7,3.4-5.7c2.7,1.4,5.4,2.9,8,4.5c-4.8-39.2-15.2-77.7-31.1-113.8c-8.3-18.8-17.9-38-30.3-54.9
			c-4.5,0.3-9,1-13.4,2.4c-4.1,1.3-5.8-5.1-1.8-6.4c3.4-1.1,6.9-1.8,10.4-2.2c-3.6-4.5-7.5-8.9-11.6-12.9
			c-18.2-18-41.1-30-65.1-38.3c-25.1-8.6-51.3-13.4-77.4-17.8c-23.8-4-46.6-5.3-60.9-27.9c-0.9-1.4-2.9-2.2-4.4-1.2
			c-0.6,0.4-1.3,0.9-1.9,1.3c0-0.1-0.1-0.2-0.1-0.3c-2.1-6.4-2.5-12.8-4.1-19.2c-0.2-1-1.5-0.8-1.8,0c-2.5,6.7-1.9,15.3,0.6,23.3
			c-6.8,4.8-13.6,9.9-20.9,14c-11.1,6.2-30.1,9.5-42.5,11.6c-12.3,2.1-25.2,3.4-37.7,2.8c-4.8-0.2-9.7-0.9-14.3-2.4
			c-2.4-0.8-4.7-1.9-6.9-3.3c-0.5-0.3-0.9-0.6-1.3-1c0.7-5.2,0.9-10.5,0.7-15.7c-0.2-5.5-0.5-10.9-3.3-15.7
			c-0.1-0.2-0.3-0.1-0.4,0.1c-2.7,6.4-2.9,13.9-3.6,21.1c-6.7-2-13.9,0.2-18.2,6.2c-3.1,4.3-3.8,9.4-5.9,14.1
			c-0.6,1.4-3.3,4.2-3.3,5.6c-0.7,0.6-0.6,0.7,0.2,0.3c0.4-0.1,0.6-0.2,0.6-0.2c-0.1,0-0.3,0.1-0.7,0.2c-1.6,0.8-2.6,1.2-4,2.4
			c-1.8,1.6-2.5,4.2-2.3,6.6c-3.3,1.6-6.6,3.3-10,4.7c-6.2,2.5-12.4,5-18.4,7.8c-13.1,6-25.9,12.7-38.5,19.8
			c-3.3,1.9-6.8,3.8-10.1,5.9c2.9,2.1,5.7,4.5,8.2,7c3.1,3-1.6,7.7-4.7,4.7c-2.9-2.9-6.1-5.5-9.5-7.8c-5.6,3.9-10.8,8.4-14.6,14.2
			c-3.3,5.1-5.4,10.9-7.6,16.5c-2.3,5.9-4.9,11.1-8.4,16.3c-0.1,0.1-0.2,0.2-0.2,0.3c-0.5,0-1,0.1-1.5,0.1
			c-10.9,0.6-21.8,1.5-32.6,2.5C1904.2,1427.9,1893.5,1428.6,1883.1,1430.9z"/>
	</g>
	<g id="head_x2F_mono_x2F_Flat-Top-Long">
		<path id="_xD83C__xDFA8_-Background_7_" class="st0" d="M2254.5,972.4c13.4,19.1,16.9,67.1,10.5,144.1
			c11.8,5.7,17.6,17.9,17.5,36.4s-11.8,29.8-35.1,33.7c-8.8,24.8-16.9,41.1-24.2,49.1c-10.9,11.9-58.5,46.7-122.3,46.7
			s-92.6-32.5-100-76.4c-7.4-43.9,6.2-178.1,12.3-213.8c5.2-30.3,74.2-61.8,121.3-61.8S2234.5,943.8,2254.5,972.4z"/>
		<path id="_xD83D__xDD8D_-Ink_10_" class="st1" d="M2148.3,865.5c7.6-0.1,15.3,0.6,22.9,0.4c7.5-0.2,15.4,0.1,22.8,0.9
			c14.3,1.5,28.6,2.6,42.8,4.8c7.4,1.2,15.2,3.3,21.4,7.6c2.2-0.8,4.6-0.8,6.6,0.5c12.1,8,8.8,24.5,8.5,36.9c0,0.2,0,0.4,0,0.6
			c-0.4,15.4-0.4,30.9-0.3,46.3c0.1,31.6,1.4,63.1,1.5,94.7c0,9.1,0.6,18.1,0.7,27.1c0.1,5.7-0.2,11.3-0.3,17
			c0.4,3.7,0.7,7.5,1.1,11.2c0.1,0.6-0.3,1-0.7,1.2c0.4,1.3,0.8,2.6,1.1,3.9c0.2,0.7,0.1,1.4-0.2,2c4,3.2,7.2,7.3,9.4,11.8
			c9.1,19,4.4,49.3-15,60.5c-5.1,3-11.1,4.1-16.9,3.3c-2.9-0.4-5.7-1.3-8.2-3.1c-5.4,22.5-16.9,42.4-32.1,59.7
			c-3.7,4.2-8.5,11.1-14.9,9.4c-6.4-1.6-4.9-9.1-1.4-12.9c8-8.6,16.5-16.5,23.8-25.9c8-10.4,15.5-21.3,22.4-32.5
			c-0.9-1.5-1.4-3.1-2.1-5c-1-2.5,2-5.5,4.5-4.5c1.7,0.7,3.9,0.5,5.7,1c1.8,0.5,3.6,0.9,5.5,0.9c3.8,0,7.5-1.4,10.4-3.9
			c6.7-5.6,10-15.4,10.9-23.9c0.9-9.1-1-18.9-7.3-25.9c-3-3.3-6.4-6.1-10.4-8.1c-1.5-0.7-4.1-1.8-6.8-2.4c-0.4,0.3-0.7,0.6-1.1,0.9
			c-1.4,0.9-3,1.6-4.5,2.5c-2.5,1.5-4.8,2.9-7.5,4c-4,1.6-8.6,1.8-12.4-0.5c-7.1-4.3-7.2-13.8-6.4-21.1c0.4-4,1-8,1.8-11.9
			c0.3-1.6,0.6-3.2,0.9-4.9c0-0.1,0.1-0.4,0.1-0.6c0-0.1,0-0.1,0-0.2c0.1-0.6,0.1-1.1,0.2-1.7c-0.6-3.2-1.3-6.5-2.1-9.6
			c-1.6-6.1-3.9-12-6.5-17.8c-0.5-1.2-1-2.3-1.6-3.5c-5.3-0.4-11.6-4.3-15.1-6.8c-3.4-2.5-5.5-7.1-2.9-11.1c9.2-14,9.4-31.3,5-47.1
			c-13.2,2.4-27,2.2-40.3,2.5c-14.3,0.4-28.7,0.2-43.1,0.2c-14.4,0-28.7,0-43.1,0c-14.3,0-28.8,0.9-43.1,0.2
			c-1.5-0.1-2.8-0.5-3.8-1.2c-2.6,2.5-6.4,3.3-9.8,3.2c-0.6,0-1.1-0.1-1.7-0.2c-0.8,3.6-1.7,7.2-2.4,10.8
			c-1.4,6.9-2.5,13.8-3.3,20.7c-1.6,13.1-3.4,26.1-4.5,39.2c-2.4,27.1-3.4,54.1-3.9,81.3c-0.5,24.8-1.2,51.5,9.4,74.5
			c9.1,19.9,25.9,35,45.4,44.2c12.5,5.9,26.5,9.8,40.3,10.8c7.5,0.6,15,0.6,22.5,0c3.5-0.2,7-0.6,10.4-1.1c4.2-0.6,6.8-0.4,10.6,1.3
			c2,0.9,2,3.8,0.7,5.2c-4.9,5.1-11.9,5-18.7,5.7c-7,0.7-14,1-21,0.8c-13.6-0.4-27.8-2.1-40.6-6.5c-22.5-7.8-42.8-22.3-56.1-42.3
			c-15.2-22.8-17.6-50.6-17.1-77.3c0.5-28.2,1.5-56.5,4.1-84.5c1.5-15.8,4-31.4,7.8-46.8c1.9-7.6,4.5-15.1,7.3-22.5
			c1.7-4.6,3.4-9.5,5.5-14c-0.2,0.1-0.4,0.1-0.6,0.2c-0.9,0.2-2.1,0.1-2.7-0.7c-3.5-4.1-5.8-8.5-6.3-13.9
			c-0.6-6.2-0.3-12.5-0.3-18.8c0.1-9,0.4-18,1.1-27c-1.6-7.1-1.7-15,0.2-22.2c0-0.2,0-0.4-0.1-0.6c-0.9-7.8-0.3-15.5,1.2-23.2
			c1.1-5.2,6.1-7.2,10.6-6.3c1.6-0.9,3.3-1.4,5.1-1.6c1.3-1.2,2.8-2.3,4.6-3.3c14-7.5,30.5-9.1,46.1-9.7c16.4-0.7,32.7-2.1,49.1-0.5
			c0.4,0,0.8,0.1,1.2,0.1C2130.9,866,2139.7,865.6,2148.3,865.5l1.9,0L2148.3,865.5z M2264.2,1146.8c-0.6,0.6-1.3-0.1-1-0.8
			c0.9-2-3.7-0.5-3.8-0.4c-1.1,0.5-2.1,1.3-3.1,2c-2.2,1.5-4.3,3.1-6.3,5c-4,3.8-6.2,9.4-10.9,12.4c-5,3.3-9.8-2.1-9.1-7
			c0.8-5.3,6-9.2,10.2-12c3.9-2.6,8.4-4.6,13-5.5c3.3-0.6,7.4-1.2,10.1,1.4C2264.9,1143.2,2265.8,1145.2,2264.2,1146.8z"/>
	</g>
	<g id="face_x2F_Hectic">
		<path id="_xD83D__xDD8D_-Ink_11_" class="st1" d="M2120.5,1186.1c6.6,2.3,15.4,5.3,18,12.5c2.5,7-1.5,14.2-7.5,18
			c-6.3,4-14.6,5.2-22,6.2l-3.2,0.4c-9.1,1.1-18.2,1.3-27.3,0.4c-8.2-0.8-17.6-1.8-24.4-6.9c-2.9-2.2-5.2-5.3-6.3-8.8
			c-1.2-0.1-2.4-0.3-3.6-0.6c-1.8-0.4-1.9-3.5,0-3.8c0.9-0.2,1.9-0.3,2.9-0.4c0-1.5,0.3-3,0.9-4.5c2.9-7.4,11.7-12.2,18.9-14.9
			l0.7-0.3c7.8-2.9,16-3.9,23.8-1.2C2101.1,1181.5,2111.1,1182.8,2120.5,1186.1z M2092,1207.1c0,2.7-0.1,5.5-0.9,8.1
			c4.5,0,9.1-0.2,13.6-0.8c-0.3-0.5-0.5-1.1-0.5-1.7c0.1-2.1,0.2-4.2,0.3-6.3C2100.2,1206.7,2096.1,1206.9,2092,1207.1z
			 M2074.9,1207.8c0.2,2.2,0.5,4.4,0.6,6.6c0.6,0.1,1.2,0.1,1.8,0.2l2.7,0.2c2.1,0.2,4.2,0.3,6.3,0.4c-0.1-2.1,0.4-4.3,1-6.4
			l0.4-1.4C2083.5,1207.5,2079.2,1207.7,2074.9,1207.8z M2067.5,1208c-0.6,0-1.1,0-1.7,0c-2.8,0-5.7,0.2-8.6,0.3
			c0.9,1,2,1.9,3.5,2.6c2.9,1.5,6.2,2.3,9.7,2.8c0.1-1.9,0.3-3.9,0.5-5.8L2067.5,1208z M2112.2,1205.8l-1.7,0.1
			c0.2,2.3,0.4,4.5,0.6,6.8c0,0.2,0,0.5-0.1,0.8c3.2-0.6,6.4-1.3,9.5-2.2c3.3-0.9,9.6-3.8,9.8-7.8
			C2124.5,1204.9,2118.2,1205.3,2112.2,1205.8z M2074.6,1190.1c-0.2,4.2-0.2,8.4-0.1,12.6c0,0.2,0,0.4,0,0.6c4.1,0,8.2,0,12.4-0.1
			l0,0l1.7,0c0.9-5,1.6-10,2.1-15C2085.3,1188.6,2079.8,1188.9,2074.6,1190.1z M2058.8,1197.6c-2,1.7-3,3.5-3.3,5.3
			c3.5,0.1,7,0.3,10.3,0.3c0.6,0,1.2,0,1.8,0l3.6,0c0.3-4.2,0.7-8.4,1.2-12.7C2067.6,1191.9,2062.9,1194,2058.8,1197.6z
			 M2092.3,1188.1L2092.3,1188.1l-0.5,0c0.3,5,0.4,10,0.2,15c4.2-0.1,8.3-0.2,12.5-0.3c0.1-1.4,0.1-2.7,0.2-4.1c0.2-3.1,0-6.5,1-9.4
			c-3.9-1-7.8-1.7-11.8-2.1C2093.6,1187.7,2093,1188,2092.3,1188.1z M2109.7,1198.7l0.2,1.3c0.1,0.9,0.2,1.7,0.3,2.6
			c6.7-0.3,13.5-0.9,20.1-0.3c-0.1-0.6-0.4-1.2-0.8-1.9c-2.6-3.8-8.8-6.3-13.6-8l-2-0.7c-1.8-0.6-3.6-1.2-5.4-1.7
			C2109.4,1192.8,2109.4,1195.9,2109.7,1198.7z M2072.4,1125.3c-31.9,5.5-15.4,60.4,25.3,30.3c4.8-3.9-1-12.5-6.2-9.2
			c-5.6,4.3-17.1,13.9-25,5.5c-6.7-9.4,2.8-18.3,9.1-22.1C2077.2,1128.6,2075.9,1124.6,2072.4,1125.3z M2169.3,1100.2
			c5.2,15-2.9,31.5-18.1,36.2c-16.1,5-36.1,1.1-46.3-13c-9.6-13.2-8.1-32.5,3.9-43.8c12.6-11.8,34.7-11.6,43.6,3.8
			C2160,1086.5,2166.5,1092.1,2169.3,1100.2z M2168.1,1079.8c-0.5,0.6-1.4,0.6-2.1,0.3c-2.6-1.3-4.4-4.1-6.1-6.3
			c-2.2-2.8-5.3-4.6-8.5-6.1c-7.7-3.6-16.4-2.2-23.9-5.6c-6.5-3-4-12.4,1.9-14.3c10.2-3.3,23.8,3.2,31.4,9.8
			C2165.6,1061.9,2173.8,1073.5,2168.1,1079.8z M2064.1,1054.5c0.3,0.8,0.3,1.9-0.6,2.3c-1.2,0.4-3.4,0.6-3.2,0.2
			c-2.7-0.3-5.6-1.2-8.3-1.2c-3.6,0.1-7,0.7-10.4,2.1c-3,1.2-5.9,3-8.3,5.2c-2.9,2.7-4.6,6.7-8.1,8.7c-4.3,2.5-9.2-0.7-9.4-5.4
			c-0.3-5.6,4.8-10.2,9-13.4l0.4-0.3c3.9-2.9,8.7-4.8,13.4-5.6c4.7-0.8,9.9-0.8,14.5,0.5C2056.8,1048.5,2062.5,1050.8,2064.1,1054.5
			z M2064.2,1087.8c0.1,0.2,0.1,0.3,0.1,0.4c4,4.2,6.7,9.8,7.4,16c1.5,14.6-9.6,29-23.9,31.6c-14.1,2.5-28.8-5.9-34.2-19
			c-5.4-13.3-0.2-30.2,11.5-38.4c6.5-4.6,15.2-6.3,23-4.7C2056,1075.3,2061.4,1080.3,2064.2,1087.8z M2110.8,1114.5
			c5.9,12.1,19,15.6,31.6,14.6c12.3-1,21.5-9.4,20.4-22.3c-0.6-7.2-4.3-13.1-9.5-17.3c-0.9,1.1-2.7,1.5-4.2,0.2
			c-7.7-6.5-20.8-9.5-29.8-4.1C2109.4,1091.6,2105.7,1104,2110.8,1114.5z M2021.8,1108.7c1,9.7,9.6,17.3,19.1,18.3
			c10.3,1.1,19.6-6.5,22.2-16.2c1.8-6.7-0.5-15-5.1-21c-6.1-4.7-16.1-6.3-23.1-3.6C2025.9,1089.7,2020.8,1099.4,2021.8,1108.7z
			 M2043.9,1106.6c0.3,3.2-1.1,6.6-4.5,7.5c-3.1,0.8-6.1-1.5-6.2-4.7c0-1.6,0.5-2.8,1.5-4c0.1-0.1,0.7-0.9,0.8-0.9
			c0.1-0.2,0.2-0.3,0.3-0.5l0.1-0.2c0,0,0.2-0.4,0.4-0.8l0.3-0.7c0.6-1.5,2.5-2.8,4.1-1.7
			C2042.8,1102.2,2043.7,1104.1,2043.9,1106.6z M2132.6,1111.4c-1.6,2.1-4,3.2-6.6,2.2c-2.6-1.1-3.4-3.6-3-6.2
			c0.2-1.1,0.8-2,1.4-2.9l0.3-0.4c0.6-0.9,0.9-1.8,1.7-2.6c1.5-1.5,3.7-1.3,5.2,0C2133.9,1103.5,2134.5,1108.9,2132.6,1111.4z"/>
	</g>
</g>
</svg>
