<?xml version="1.0" encoding="utf-8"?>
<!-- Generator: Adobe Illustrator 24.1.0, SVG Export Plug-In . SVG Version: 6.00 Build 0)  -->
<svg version="1.1" id="Calque_1" xmlns="http://www.w3.org/2000/svg" xmlns:xlink="http://www.w3.org/1999/xlink" x="0px" y="0px"
	 viewBox="0 0 250 250" style="enable-background:new 0 0 250 250;" xml:space="preserve">
<style type="text/css">
	.st0{fill:#DEF3FF;}
	.st1{fill:#037CF9;}
	.st2{fill:none;stroke:#037CF9;stroke-miterlimit:10;}
	.st3{fill:#2D81FF;}
	.st4{fill:#1D1D1B;}
	.st5{fill:none;stroke:#037CF9;stroke-width:3;stroke-miterlimit:10;}
</style>
<g>
	<path class="st4" d="M179.5,104.1c-0.2,0-0.4,0-0.7-0.1c-0.7-0.4-1.1-1.3-0.7-2l10-20.7c1.3-2.8,0.2-6.1-2.6-7.5l-36.5-17.6
		c-1.3-0.6-2.9-0.7-4.3-0.2c-1.4,0.5-2.5,1.5-3.2,2.9L125,92.5c-0.4,0.7-1.3,1.1-2,0.7c-0.7-0.4-1.1-1.3-0.7-2l16.4-33.7
		c1-2.1,2.7-3.6,4.9-4.4c2.2-0.8,4.5-0.6,6.6,0.4l36.5,17.6c4.3,2.1,6.1,7.2,4,11.5l-10,20.7C180.6,103.8,180,104.1,179.5,104.1z"/>
	<path class="st4" d="M141.8,172.7c-1.2,0-2.5-0.3-3.7-0.8l-18.3-8.8c-0.7-0.4-1.1-1.3-0.7-2c0.4-0.7,1.3-1.1,2-0.7l18.3,8.8
		c2.8,1.3,6.1,0.2,7.5-2.6l8.7-18c0.4-0.7,1.3-1.1,2-0.7c0.7,0.4,1.1,1.3,0.7,2l-8.7,18C148.1,170.9,145,172.7,141.8,172.7z"/>
	<path class="st4" d="M151.3,160.8c-0.2,0-0.4,0-0.7-0.1l-26.7-12.9c-0.7-0.4-1.1-1.3-0.7-2c0.4-0.7,1.3-1.1,2-0.7l26.7,12.9
		c0.7,0.4,1.1,1.3,0.7,2C152.4,160.5,151.8,160.8,151.3,160.8z"/>
	<path class="st4" d="M188.1,84.6c-0.2,0-0.4,0-0.7-0.1l-47.3-22.8c-0.7-0.4-1.1-1.3-0.7-2c0.4-0.7,1.3-1.1,2-0.7l47.3,22.8
		c0.7,0.4,1.1,1.3,0.7,2C189.2,84.3,188.7,84.6,188.1,84.6z"/>
	<path class="st4" d="M128.5,157.7c-0.2,0-0.4,0-0.7-0.1l-5.1-2.4c-0.7-0.4-1.1-1.3-0.7-2c0.4-0.7,1.3-1.1,2-0.7l5.1,2.4
		c0.7,0.4,1.1,1.3,0.7,2C129.6,157.4,129.1,157.7,128.5,157.7z"/>
	<path class="st4" d="M69.6,187.7c-0.2,0-0.4,0-0.7-0.1c-0.7-0.4-1.1-1.3-0.7-2l14.3-29.7l5.7-32c0.1-5.5,2.9-10.8,7.5-13.9
		l30.4-21.1c1.9-1.4,4.3-1.9,6.6-1.4c2.3,0.4,4.3,1.8,5.6,3.8c2.5,3.8,1.6,9-2.1,11.8l-21.9,16.4c2,2.2,5.9,7.1,8.4,13.9
		c2.1,5.4,2.8,10.8,2.3,16.1c-0.7,6.6-3.5,13.1-8.2,19.2c-0.5,0.7-1.5,0.8-2.1,0.3c-0.7-0.5-0.8-1.5-0.3-2.1
		c4.4-5.6,6.9-11.6,7.6-17.6c0.5-4.8-0.2-9.8-2.1-14.8c-3.2-8.5-8.9-14-8.9-14.1c-0.3-0.3-0.5-0.7-0.5-1.2c0-0.4,0.2-0.8,0.6-1.1
		l23.3-17.4c2.4-1.8,3-5.2,1.4-7.7c-0.9-1.3-2.2-2.2-3.7-2.5c-1.5-0.3-3.1,0-4.3,0.9l-30.4,21.1c-3.8,2.7-6.1,7-6.2,11.6
		c0,0.1,0,0.2,0,0.2l-5.8,32.3c0,0.1-0.1,0.3-0.1,0.4L71,186.9C70.7,187.4,70.2,187.7,69.6,187.7z"/>
	<path class="st4" d="M171.5,120.7c-1.4,0-2.7-0.4-4-1c-1.9-1.1-3.2-2.8-3.8-4.9l0,0c-1.2-4.3,1.3-8.8,5.6-10l13.3-3.7
		c4.3-1.2,8.8,1.3,10,5.6c1.2,4.3-1.3,8.8-5.6,10l-13.3,3.7C172.9,120.6,172.2,120.7,171.5,120.7z M184.8,103.8
		c-0.5,0-0.9,0.1-1.4,0.2l-13.3,3.7c-2.7,0.7-4.3,3.6-3.5,6.3v0c0.4,1.3,1.2,2.4,2.4,3.1c1.2,0.7,2.5,0.8,3.9,0.5l13.3-3.7
		c2.7-0.7,4.3-3.6,3.5-6.3c-0.4-1.3-1.2-2.4-2.4-3.1C186.5,104,185.6,103.8,184.8,103.8z"/>
	<path class="st4" d="M168.5,135.3c-3.5,0-6.8-2.3-7.8-5.9c-1.2-4.3,1.3-8.8,5.6-10l13.3-3.7c4.3-1.2,8.8,1.3,10,5.6
		c1.2,4.3-1.3,8.8-5.6,10l-13.3,3.7C170,135.2,169.2,135.3,168.5,135.3z M181.8,118.5c-0.4,0-0.9,0.1-1.4,0.2l-13.3,3.7
		c-2.7,0.7-4.3,3.6-3.5,6.3c0.7,2.7,3.6,4.3,6.3,3.5l13.3-3.7c1.3-0.4,2.4-1.2,3.1-2.4c0.7-1.2,0.8-2.6,0.5-3.9
		C186.1,120,184,118.5,181.8,118.5z"/>
	<path class="st4" d="M160.9,151.2c-1.4,0-2.7-0.4-4-1c-1.9-1.1-3.2-2.8-3.8-4.9c-0.6-2.1-0.3-4.3,0.8-6.1c1.1-1.9,2.8-3.2,4.9-3.8
		l13.3-3.7c4.3-1.2,8.8,1.3,10,5.6c1.2,4.3-1.3,8.8-5.6,10l-13.3,3.7C162.3,151.1,161.6,151.2,160.9,151.2z M174.2,134.3
		c-0.4,0-0.9,0.1-1.4,0.2l-13.3,3.7c-1.3,0.4-2.4,1.2-3.1,2.4c-0.7,1.2-0.8,2.6-0.5,3.9c0,0,0,0,0,0c0.4,1.3,1.2,2.4,2.4,3.1
		c1.2,0.7,2.6,0.8,3.9,0.5l13.3-3.7c2.7-0.7,4.3-3.6,3.5-6.3C178.5,135.8,176.4,134.3,174.2,134.3z"/>
	<path class="st4" d="M103.2,210.1c-0.2,0-0.4,0-0.7-0.1c-0.7-0.4-1.1-1.3-0.7-2l13.5-28c0.3-0.5,0.8-0.9,1.4-0.9
		c5.9,0.1,11.2-1.4,15.7-4.6c3.4-2.4,5-4.9,5-4.9c0.5-0.7,1.4-0.9,2.1-0.4c0.7,0.5,0.9,1.4,0.4,2.1c-0.1,0.1-1.9,2.9-5.7,5.6
		c-3.3,2.4-8.9,5.2-16.6,5.3l-13.1,27.2C104.3,209.8,103.8,210.1,103.2,210.1z"/>
	<path class="st4" d="M40.8,159.6c-0.7,0-1.3-0.5-1.5-1.2c-1.6-6.9-2.5-14.1-2.5-21.2c0-3.9,0.2-7.8,0.7-11.7
		c0.1-0.8,0.9-1.4,1.7-1.3c0.8,0.1,1.4,0.9,1.3,1.7c-0.5,3.7-0.7,7.5-0.7,11.3c0,6.9,0.8,13.9,2.4,20.5c0.2,0.8-0.3,1.6-1.1,1.8
		C41,159.6,40.9,159.6,40.8,159.6z"/>
	<path class="st4" d="M129.3,229.7c-14.7,0-28.7-3.3-41.6-9.9c-12.4-6.3-23.4-15.4-31.8-26.5c-0.5-0.7-0.4-1.6,0.3-2.1
		c0.7-0.5,1.6-0.4,2.1,0.3C66.4,202.2,77,211,89,217.1c12.6,6.4,26.1,9.6,40.3,9.6c5.4,0,10.9-0.5,16.1-1.5c0.8-0.1,1.6,0.4,1.7,1.2
		c0.1,0.8-0.4,1.6-1.2,1.7C140.5,229.2,134.9,229.7,129.3,229.7z"/>
	<path class="st4" d="M216.4,165.3c-0.1,0-0.3,0-0.4-0.1c-0.8-0.2-1.3-1-1.1-1.8c0.7-2.7,1.4-5.5,1.9-8.3c0.1-0.8,0.9-1.4,1.7-1.2
		c0.8,0.1,1.4,0.9,1.2,1.7c-0.5,2.9-1.1,5.7-1.9,8.5C217.7,164.9,217,165.3,216.4,165.3z"/>
	<path class="st4" d="M218.2,119.7c-0.7,0-1.3-0.5-1.5-1.2c-2.6-12.3-7.7-23.7-15.1-33.9c-0.5-0.7-0.3-1.6,0.3-2.1
		c0.7-0.5,1.6-0.3,2.1,0.3c7.7,10.5,12.9,22.3,15.6,35c0.2,0.8-0.3,1.6-1.2,1.8C218.4,119.7,218.3,119.7,218.2,119.7z"/>
	<path class="st4" d="M43.5,176.5h-3.2c-0.8,0-1.5-0.7-1.5-1.5c0-0.8,0.7-1.5,1.5-1.5h3.2c0.8,0,1.5,0.7,1.5,1.5
		C45,175.8,44.3,176.5,43.5,176.5z"/>
	<path class="st4" d="M55.9,176.5h-3.6c-0.8,0-1.5-0.7-1.5-1.5c0-0.8,0.7-1.5,1.5-1.5h3.6c0.8,0,1.5,0.7,1.5,1.5
		C57.4,175.8,56.7,176.5,55.9,176.5z"/>
	<path class="st4" d="M48,184.4c-0.8,0-1.5-0.7-1.5-1.5v-3.2c0-0.8,0.7-1.5,1.5-1.5s1.5,0.7,1.5,1.5v3.2
		C49.5,183.7,48.8,184.4,48,184.4z"/>
	<path class="st4" d="M48,172.3c-0.8,0-1.5-0.7-1.5-1.5v-3.6c0-0.8,0.7-1.5,1.5-1.5s1.5,0.7,1.5,1.5v3.6
		C49.5,171.7,48.8,172.3,48,172.3z"/>
	<path class="st4" d="M214.3,137.8H211c-0.8,0-1.5-0.7-1.5-1.5c0-0.8,0.7-1.5,1.5-1.5h3.2c0.8,0,1.5,0.7,1.5,1.5
		C215.8,137.1,215.1,137.8,214.3,137.8z"/>
	<path class="st4" d="M226.7,137.8h-3.6c-0.8,0-1.5-0.7-1.5-1.5c0-0.8,0.7-1.5,1.5-1.5h3.6c0.8,0,1.5,0.7,1.5,1.5
		C228.2,137.1,227.5,137.8,226.7,137.8z"/>
	<path class="st4" d="M218.8,145.7c-0.8,0-1.5-0.7-1.5-1.5V141c0-0.8,0.7-1.5,1.5-1.5c0.8,0,1.5,0.7,1.5,1.5v3.2
		C220.3,145,219.6,145.7,218.8,145.7z"/>
	<path class="st4" d="M218.8,133.7c-0.8,0-1.5-0.7-1.5-1.5v-3.6c0-0.8,0.7-1.5,1.5-1.5c0.8,0,1.5,0.7,1.5,1.5v3.6
		C220.3,133,219.6,133.7,218.8,133.7z"/>
	<g>
		<path class="st4" d="M142.6,39.9h-3.2c-0.8,0-1.5-0.7-1.5-1.5c0-0.8,0.7-1.5,1.5-1.5h3.2c0.8,0,1.5,0.7,1.5,1.5
			C144.1,39.2,143.4,39.9,142.6,39.9z"/>
		<path class="st4" d="M155,39.9h-3.6c-0.8,0-1.5-0.7-1.5-1.5c0-0.8,0.7-1.5,1.5-1.5h3.6c0.8,0,1.5,0.7,1.5,1.5
			C156.5,39.2,155.9,39.9,155,39.9z"/>
		<path class="st4" d="M147.1,47.8c-0.8,0-1.5-0.7-1.5-1.5v-3.2c0-0.8,0.7-1.5,1.5-1.5c0.8,0,1.5,0.7,1.5,1.5v3.2
			C148.6,47.1,147.9,47.8,147.1,47.8z"/>
		<path class="st4" d="M147.1,35.8c-0.8,0-1.5-0.7-1.5-1.5v-3.6c0-0.8,0.7-1.5,1.5-1.5c0.8,0,1.5,0.7,1.5,1.5v3.6
			C148.6,35.1,147.9,35.8,147.1,35.8z"/>
	</g>
	<path class="st4" d="M209.6,187.9h-3.2c-0.8,0-1.5-0.7-1.5-1.5c0-0.8,0.7-1.5,1.5-1.5h3.2c0.8,0,1.5,0.7,1.5,1.5
		C211.2,187.2,210.5,187.9,209.6,187.9z"/>
	<path class="st4" d="M222.1,187.9h-3.6c-0.8,0-1.5-0.7-1.5-1.5c0-0.8,0.7-1.5,1.5-1.5h3.6c0.8,0,1.5,0.7,1.5,1.5
		C223.6,187.2,222.9,187.9,222.1,187.9z"/>
	<path class="st4" d="M214.2,195.8c-0.8,0-1.5-0.7-1.5-1.5v-3.2c0-0.8,0.7-1.5,1.5-1.5c0.8,0,1.5,0.7,1.5,1.5v3.2
		C215.7,195.1,215,195.8,214.2,195.8z"/>
	<path class="st4" d="M214.2,183.8c-0.8,0-1.5-0.7-1.5-1.5v-3.6c0-0.8,0.7-1.5,1.5-1.5c0.8,0,1.5,0.7,1.5,1.5v3.6
		C215.7,183.1,215,183.8,214.2,183.8z"/>
	<path class="st4" d="M62.1,147.8c-2.7,0-4.9-2.2-4.9-4.9c0-2.7,2.2-4.9,4.9-4.9c2.7,0,4.9,2.2,4.9,4.9
		C67,145.7,64.8,147.8,62.1,147.8z M62.1,141.1c-1,0-1.9,0.8-1.9,1.9c0,1,0.8,1.9,1.9,1.9S64,144,64,143
		C64,141.9,63.1,141.1,62.1,141.1z"/>
	<path class="st4" d="M110.5,46.3c-2.7,0-4.9-2.2-4.9-4.9c0-2.7,2.2-4.9,4.9-4.9c2.7,0,4.9,2.2,4.9,4.9
		C115.4,44.1,113.2,46.3,110.5,46.3z M110.5,39.6c-1,0-1.9,0.8-1.9,1.9s0.8,1.9,1.9,1.9c1,0,1.9-0.8,1.9-1.9S111.5,39.6,110.5,39.6z
		"/>
	<path class="st4" d="M179.5,56.3c-2.7,0-4.9-2.2-4.9-4.9c0-2.7,2.2-4.9,4.9-4.9c2.7,0,4.9,2.2,4.9,4.9
		C184.4,54.1,182.2,56.3,179.5,56.3z M179.5,49.6c-1,0-1.9,0.8-1.9,1.9s0.8,1.9,1.9,1.9c1,0,1.9-0.8,1.9-1.9S180.5,49.6,179.5,49.6z
		"/>
	<path class="st4" d="M194.9,176.6c-2.7,0-4.9-2.2-4.9-4.9s2.2-4.9,4.9-4.9c2.7,0,4.9,2.2,4.9,4.9S197.6,176.6,194.9,176.6z
		 M194.9,169.9c-1,0-1.9,0.8-1.9,1.9c0,1,0.8,1.9,1.9,1.9c1,0,1.9-0.8,1.9-1.9C196.7,170.7,195.9,169.9,194.9,169.9z"/>
	<path class="st4" d="M176,234.8c-13.4,0-24.2-10.9-24.2-24.2c0-13.4,10.9-24.2,24.2-24.2s24.2,10.9,24.2,24.2
		C200.2,224,189.3,234.8,176,234.8z M176,189.4c-11.7,0-21.2,9.5-21.2,21.2c0,11.7,9.5,21.2,21.2,21.2c11.7,0,21.2-9.5,21.2-21.2
		C197.2,198.9,187.7,189.4,176,189.4z"/>
	<g>
		<path class="st4" d="M176,221.1h-0.2c-4,0-7.2-2.7-7.2-6.1c0-0.8,0.7-1.5,1.5-1.5c0.8,0,1.5,0.7,1.5,1.5c0,1.7,1.9,3.1,4.2,3.1
			h0.2c2.3,0,4.2-1.4,4.2-3.1c0-1.7-1.9-3.1-4.2-3.1c-4,0-7.2-2.7-7.2-6.1v0c0-3.4,3.2-6.1,7.2-6.1h0.2c4,0,7.2,2.7,7.2,6.1
			c0,0.8-0.7,1.5-1.5,1.5c-0.8,0-1.5-0.7-1.5-1.5c0-1.7-1.9-3.1-4.2-3.1H176c-2.3,0-4.2,1.4-4.2,3.1v0c0,1.7,1.9,3.1,4.2,3.1
			c4,0,7.2,2.7,7.2,6.1C183.2,218.4,179.9,221.1,176,221.1z"/>
		<path class="st4" d="M176,199.1c-0.8,0-1.5-0.7-1.5-1.5v-1.8c0-0.8,0.7-1.5,1.5-1.5c0.8,0,1.5,0.7,1.5,1.5v1.8
			C177.5,198.5,176.9,199.1,176,199.1z"/>
		<path class="st4" d="M176,226.8c-0.8,0-1.5-0.7-1.5-1.5v-2c0-0.8,0.7-1.5,1.5-1.5c0.8,0,1.5,0.7,1.5,1.5v2
			C177.5,226.1,176.9,226.8,176,226.8z"/>
	</g>
	<path class="st4" d="M103.2,81.6c-0.1,0-0.2,0-0.3,0c-0.8-0.2-1.3-1-1.1-1.8l5.2-23.5L52.3,44.1l-5.5,25.7c-0.2,0.8-1,1.3-1.8,1.2
		c-0.8-0.2-1.3-1-1.2-1.8L49.7,42c0.1-0.4,0.3-0.7,0.7-0.9c0.3-0.2,0.7-0.3,1.1-0.2l57.5,12.7c0.4,0.1,0.7,0.3,0.9,0.7
		c0.2,0.3,0.3,0.7,0.2,1.1l-5.5,25C104.5,81.1,103.9,81.6,103.2,81.6z"/>
	<path class="st4" d="M98.9,76.1c-0.1,0-0.2,0-0.3,0c-0.8-0.2-1.3-1-1.1-1.8l2.2-9.8c-0.9-0.5-1.7-1.2-2.3-2.1c-0.6-0.9-0.9-2-1-3
		l-35-7.7c-0.5,1-1.2,1.8-2.2,2.3c-0.9,0.6-2,0.9-3,0.9l-1.9,8.5c1,0.5,1.8,1.2,2.4,2.1c0.9,1.3,1.2,3,0.8,4.5
		c-0.2,0.8-1,1.3-1.8,1.1c-0.8-0.2-1.3-1-1.1-1.8c0.2-0.8,0-1.6-0.4-2.2c-0.4-0.7-1.1-1.1-1.9-1.3c-0.4-0.1-0.7-0.3-0.9-0.7
		c-0.2-0.3-0.3-0.7-0.2-1.1l2.4-11c0.1-0.4,0.3-0.7,0.7-0.9c0.3-0.2,0.7-0.3,1.1-0.2c0.8,0.2,1.6,0,2.3-0.4c0.7-0.4,1.1-1.1,1.3-1.9
		c0.1-0.4,0.3-0.7,0.7-0.9c0.3-0.2,0.7-0.3,1.1-0.2l37.6,8.3c0.4,0.1,0.7,0.3,0.9,0.7c0.2,0.3,0.3,0.7,0.2,1.1
		c-0.2,0.8,0,1.6,0.4,2.3c0.4,0.7,1.1,1.1,1.8,1.3c0.8,0.2,1.3,1,1.1,1.8l-2.5,11.1C100.2,75.6,99.6,76.1,98.9,76.1z"/>
	<path class="st4" d="M76.6,68.8c-0.3,0-0.7,0-1-0.1c-1.3-0.3-2.3-1-3-2.1c-0.7-1.1-0.9-2.4-0.6-3.6c0.6-2.6,3.2-4.2,5.8-3.7
		c2.6,0.6,4.2,3.2,3.7,5.8h0C80.8,67.2,78.8,68.8,76.6,68.8z M76.6,62.1c-0.8,0-1.6,0.6-1.8,1.4c-0.1,0.5,0,1,0.2,1.4
		c0.3,0.4,0.7,0.7,1.1,0.8c1,0.2,2-0.4,2.2-1.4c0.2-1-0.4-2-1.4-2.2C76.9,62.1,76.7,62.1,76.6,62.1z M79.8,64.6L79.8,64.6L79.8,64.6
		z"/>
	<g>
		<path class="st4" d="M54.1,100.7C54.1,100.7,54,100.7,54.1,100.7c-2.9,0-5.2-2.4-5.2-5.2c0-1.4,0.6-2.7,1.5-3.6
			c1-1,2.3-1.5,3.6-1.5c0,0,0,0,0,0c2.9,0,5.2,2.4,5.1,5.2c0,1.4-0.6,2.7-1.5,3.6C56.7,100.2,55.4,100.7,54.1,100.7z M54.1,93.4
			c-0.6,0-1.1,0.2-1.5,0.6c-0.4,0.4-0.6,0.9-0.6,1.5c0,0,0,0,0,0c0,0.6,0.2,1.1,0.6,1.5c0.4,0.4,0.9,0.6,1.5,0.6c0,0,0,0,0,0
			c0.6,0,1.1-0.2,1.5-0.6c0.4-0.4,0.6-0.9,0.6-1.5C56.2,94.3,55.3,93.4,54.1,93.4C54.1,93.4,54.1,93.4,54.1,93.4z M50.4,95.5
			L50.4,95.5L50.4,95.5z"/>
		<path class="st4" d="M84.3,115.9H23.3c-0.8,0-1.5-0.7-1.5-1.5V74.5c0-0.8,0.7-1.5,1.5-1.5h60.9c0.8,0,1.5,0.7,1.5,1.5v39.9
			C85.8,115.2,85.1,115.9,84.3,115.9z M24.8,112.9h57.9V76H24.8V112.9z"/>
		<path class="st4" d="M74.3,110.3H32.8c-0.7,0-1.3-0.4-1.4-1.1c-0.4-1.5-1.5-2.7-2.9-3.4c-0.5-0.2-0.9-0.8-0.9-1.4V84.1
			c0-0.6,0.3-1.1,0.9-1.4c1.3-0.6,2.3-1.7,2.8-3.1c0.2-0.6,0.8-1,1.4-1h41.7c0.6,0,1.2,0.4,1.4,1c0.5,1.5,1.7,2.6,3.1,3.2
			c0.6,0.2,0.9,0.8,0.9,1.4v20.1c0,0.6-0.4,1.2-0.9,1.4c-1.5,0.6-2.8,1.9-3.2,3.5C75.6,109.9,75,110.3,74.3,110.3z M33.9,107.3h39.4
			c0.8-1.7,2-3.1,3.6-4V85.2c-1.5-0.8-2.7-2.1-3.5-3.6H33.7c-0.7,1.4-1.8,2.5-3.1,3.3v18.6C32.1,104.5,33.2,105.8,33.9,107.3z"/>
	</g>
</g>
</svg>
