<?xml version="1.0" encoding="utf-8"?>
<!-- Generator: Adobe Illustrator 24.1.0, SVG Export Plug-In . SVG Version: 6.00 Build 0)  -->
<svg version="1.1" id="Calque_1" xmlns="http://www.w3.org/2000/svg" xmlns:xlink="http://www.w3.org/1999/xlink" x="0px" y="0px"
	 viewBox="0 0 250 250" style="enable-background:new 0 0 250 250;" xml:space="preserve">
<style type="text/css">
	.st0{fill:#DEF3FF;}
	.st1{fill:#037CF9;}
	.st2{fill:none;stroke:#037CF9;stroke-miterlimit:10;}
	.st3{fill:#2D81FF;}
	.st4{fill:#1D1D1B;}
	.st5{fill:none;stroke:#037CF9;stroke-width:3;stroke-miterlimit:10;}
</style>
<g>
	<g>
		<path class="st4" d="M48,108.5h-3.2c-0.8,0-1.5-0.7-1.5-1.5c0-0.8,0.7-1.5,1.5-1.5H48c0.8,0,1.5,0.7,1.5,1.5
			C49.5,107.8,48.8,108.5,48,108.5z"/>
		<path class="st4" d="M60.4,108.5h-3.6c-0.8,0-1.5-0.7-1.5-1.5c0-0.8,0.7-1.5,1.5-1.5h3.6c0.8,0,1.5,0.7,1.5,1.5
			C61.9,107.8,61.2,108.5,60.4,108.5z"/>
		<path class="st4" d="M52.5,116.4c-0.8,0-1.5-0.7-1.5-1.5v-3.2c0-0.8,0.7-1.5,1.5-1.5c0.8,0,1.5,0.7,1.5,1.5v3.2
			C54,115.7,53.3,116.4,52.5,116.4z"/>
		<path class="st4" d="M52.5,104.4c-0.8,0-1.5-0.7-1.5-1.5v-3.6c0-0.8,0.7-1.5,1.5-1.5c0.8,0,1.5,0.7,1.5,1.5v3.6
			C54,103.7,53.3,104.4,52.5,104.4z"/>
	</g>
	<g>
		<path class="st4" d="M104,56.5h-3.2c-0.8,0-1.5-0.7-1.5-1.5s0.7-1.5,1.5-1.5h3.2c0.8,0,1.5,0.7,1.5,1.5S104.8,56.5,104,56.5z"/>
		<path class="st4" d="M116.4,56.5h-3.6c-0.8,0-1.5-0.7-1.5-1.5s0.7-1.5,1.5-1.5h3.6c0.8,0,1.5,0.7,1.5,1.5S117.2,56.5,116.4,56.5z"
			/>
		<path class="st4" d="M108.5,64.4c-0.8,0-1.5-0.7-1.5-1.5v-3.2c0-0.8,0.7-1.5,1.5-1.5c0.8,0,1.5,0.7,1.5,1.5v3.2
			C110,63.7,109.3,64.4,108.5,64.4z"/>
		<path class="st4" d="M108.5,52.4c-0.8,0-1.5-0.7-1.5-1.5v-3.6c0-0.8,0.7-1.5,1.5-1.5c0.8,0,1.5,0.7,1.5,1.5v3.6
			C110,51.7,109.3,52.4,108.5,52.4z"/>
	</g>
	<path class="st4" d="M148,199.7h-3.2c-0.8,0-1.5-0.7-1.5-1.5s0.7-1.5,1.5-1.5h3.2c0.8,0,1.5,0.7,1.5,1.5S148.8,199.7,148,199.7z"/>
	<path class="st4" d="M160.4,199.7h-3.6c-0.8,0-1.5-0.7-1.5-1.5s0.7-1.5,1.5-1.5h3.6c0.8,0,1.5,0.7,1.5,1.5S161.3,199.7,160.4,199.7
		z"/>
	<path class="st4" d="M152.5,207.6c-0.8,0-1.5-0.7-1.5-1.5v-3.2c0-0.8,0.7-1.5,1.5-1.5s1.5,0.7,1.5,1.5v3.2
		C154,206.9,153.3,207.6,152.5,207.6z"/>
	<path class="st4" d="M152.5,195.6c-0.8,0-1.5-0.7-1.5-1.5v-3.6c0-0.8,0.7-1.5,1.5-1.5s1.5,0.7,1.5,1.5v3.6
		C154,194.9,153.3,195.6,152.5,195.6z"/>
	<path class="st4" d="M160.8,41.1h-3.2c-0.8,0-1.5-0.7-1.5-1.5s0.7-1.5,1.5-1.5h3.2c0.8,0,1.5,0.7,1.5,1.5S161.7,41.1,160.8,41.1z"
		/>
	<path class="st4" d="M173.3,41.1h-3.6c-0.8,0-1.5-0.7-1.5-1.5s0.7-1.5,1.5-1.5h3.6c0.8,0,1.5,0.7,1.5,1.5S174.1,41.1,173.3,41.1z"
		/>
	<path class="st4" d="M165.3,49c-0.8,0-1.5-0.7-1.5-1.5v-3.2c0-0.8,0.7-1.5,1.5-1.5s1.5,0.7,1.5,1.5v3.2
		C166.9,48.3,166.2,49,165.3,49z"/>
	<path class="st4" d="M165.3,37c-0.8,0-1.5-0.7-1.5-1.5v-3.6c0-0.8,0.7-1.5,1.5-1.5s1.5,0.7,1.5,1.5v3.6
		C166.9,36.3,166.2,37,165.3,37z"/>
	<path class="st4" d="M79.3,83.6c-2.7,0-4.9-2.2-4.9-4.9c0-2.7,2.2-4.9,4.9-4.9c2.7,0,4.9,2.2,4.9,4.9C84.2,81.4,82,83.6,79.3,83.6z
		 M79.3,76.8c-1,0-1.9,0.8-1.9,1.9c0,1,0.8,1.9,1.9,1.9c1,0,1.9-0.8,1.9-1.9C81.2,77.7,80.3,76.8,79.3,76.8z"/>
	<path class="st4" d="M195.3,139.6c-2.7,0-4.9-2.2-4.9-4.9c0-2.7,2.2-4.9,4.9-4.9c2.7,0,4.9,2.2,4.9,4.9
		C200.2,137.4,198,139.6,195.3,139.6z M195.3,132.8c-1,0-1.9,0.8-1.9,1.9c0,1,0.8,1.9,1.9,1.9c1,0,1.9-0.8,1.9-1.9
		C197.2,133.7,196.3,132.8,195.3,132.8z"/>
	<path class="st4" d="M96.4,37.2c-0.6,0-1.2-0.4-1.4-1.1c-0.2-0.8,0.2-1.6,1-1.9c9.1-2.8,18.6-4.3,28.3-4.3c7.5,0,15,0.9,22.3,2.6
		c0.8,0.2,1.3,1,1.1,1.8c-0.2,0.8-1,1.3-1.8,1.1c-7-1.7-14.3-2.5-21.6-2.5c-9.3,0-18.5,1.4-27.4,4.1C96.6,37.1,96.5,37.2,96.4,37.2z
		"/>
	<path class="st4" d="M60,58.5c-0.4,0-0.8-0.2-1.1-0.5c-0.6-0.6-0.5-1.6,0.1-2.1c1.5-1.4,3-2.8,4.6-4.1c0.6-0.5,1.6-0.4,2.1,0.2
		c0.5,0.6,0.4,1.6-0.2,2.1c-1.5,1.3-3,2.6-4.5,4C60.7,58.3,60.3,58.5,60,58.5z"/>
	<path class="st4" d="M31.4,138.4c-0.7,0-1.4-0.6-1.5-1.3c-0.5-4-0.8-8-0.8-12.1c0-4,0.3-8.1,0.8-12c1.6-12.3,5.4-24,11.6-34.8
		c0.4-0.7,1.3-1,2-0.6c0.7,0.4,1,1.3,0.6,2c-5.9,10.4-9.7,21.8-11.2,33.7c-0.5,3.8-0.7,7.8-0.7,11.6c0,3.9,0.2,7.9,0.7,11.7
		c0.1,0.8-0.5,1.6-1.3,1.7C31.5,138.4,31.4,138.4,31.4,138.4z"/>
	<path class="st4" d="M77.4,207.6c-0.3,0-0.5-0.1-0.8-0.2c-3.6-2.1-7.2-4.5-10.5-7.1c-0.7-0.5-0.8-1.5-0.3-2.1
		c0.5-0.7,1.5-0.8,2.1-0.3c3.2,2.5,6.7,4.8,10.2,6.8c0.7,0.4,1,1.3,0.5,2.1C78.5,207.3,78,207.6,77.4,207.6z"/>
	<path class="st4" d="M124.2,220c-8.5,0-16.9-1.1-25-3.3c-0.8-0.2-1.3-1-1.1-1.8c0.2-0.8,1-1.3,1.8-1.1c7.8,2.1,16,3.2,24.2,3.2
		c6.6,0,13.3-0.7,19.7-2.1c0.8-0.2,1.6,0.3,1.8,1.1c0.2,0.8-0.3,1.6-1.1,1.8C137.9,219.3,131,220,124.2,220z"/>
	<path class="st4" d="M170,208.1c-0.5,0-1-0.3-1.3-0.8c-0.4-0.7-0.2-1.6,0.6-2c2.2-1.3,4.5-2.6,6.6-4.1c0.7-0.5,1.6-0.3,2.1,0.4
		c0.5,0.7,0.3,1.6-0.4,2.1c-2.2,1.5-4.5,2.9-6.8,4.2C170.5,208,170.3,208.1,170,208.1z"/>
	<path class="st4" d="M193.6,189.2c-0.4,0-0.7-0.1-1-0.4c-0.6-0.6-0.7-1.5-0.1-2.1c10.3-11.4,17.6-25.2,21.2-40
		c0.2-0.8,1-1.3,1.8-1.1c0.8,0.2,1.3,1,1.1,1.8c-3.7,15.3-11.3,29.6-21.9,41.3C194.4,189.1,194,189.2,193.6,189.2z"/>
	<path class="st4" d="M217.7,126.5c-0.8,0-1.5-0.7-1.5-1.5c0-2.8-0.1-5.6-0.4-8.3c-0.2-2.2-0.5-4.5-0.9-6.7
		c-0.1-0.8,0.4-1.6,1.2-1.7c0.8-0.1,1.6,0.4,1.7,1.2c0.4,2.3,0.7,4.6,0.9,6.9c0.3,2.8,0.4,5.7,0.4,8.6
		C219.2,125.8,218.5,126.5,217.7,126.5z"/>
	<path class="st4" d="M134.5,160.8h-28.1c-0.8,0-1.5-0.7-1.5-1.5c0-0.8,0.7-1.5,1.5-1.5h28.1c4.9,0,8.8-5.3,8.8-11.7
		c0-6.5-4-11.7-8.8-11.7h-16.6c-0.8,0-1.5-0.7-1.5-1.5c0-0.8,0.7-1.5,1.5-1.5h16.6c6.5,0,11.8,6.6,11.8,14.7
		C146.3,154.2,141,160.8,134.5,160.8z"/>
	<path class="st4" d="M134.5,134.4h-16.6c-0.8,0-1.5-0.7-1.5-1.5c0-0.8,0.7-1.5,1.5-1.5h16.6c4.9,0,8.8-5.3,8.8-11.7
		c0-6.5-4-11.7-8.8-11.7h-28.1c-0.8,0-1.5-0.7-1.5-1.5s0.7-1.5,1.5-1.5h28.1c6.5,0,11.8,6.6,11.8,14.7
		C146.3,127.8,141,134.4,134.5,134.4z"/>
	<path class="st4" d="M119.1,107.9c-0.8,0-1.5-0.7-1.5-1.5V99c0-0.8,0.7-1.5,1.5-1.5c0.8,0,1.5,0.7,1.5,1.5v7.4
		C120.6,107.2,119.9,107.9,119.1,107.9z"/>
	<path class="st4" d="M130.7,107.9c-0.8,0-1.5-0.7-1.5-1.5V99c0-0.8,0.7-1.5,1.5-1.5s1.5,0.7,1.5,1.5v7.4
		C132.2,107.2,131.6,107.9,130.7,107.9z"/>
	<path class="st4" d="M119.1,168c-0.8,0-1.5-0.7-1.5-1.5v-6.6c0-0.8,0.7-1.5,1.5-1.5c0.8,0,1.5,0.7,1.5,1.5v6.6
		C120.6,167.4,119.9,168,119.1,168z"/>
	<path class="st4" d="M110.2,160.7c-0.8,0-1.5-0.7-1.5-1.5v-52.8c0-0.8,0.7-1.5,1.5-1.5c0.8,0,1.5,0.7,1.5,1.5v52.8
		C111.7,160,111,160.7,110.2,160.7z"/>
	<path class="st4" d="M130.7,168c-0.8,0-1.5-0.7-1.5-1.5v-6.6c0-0.8,0.7-1.5,1.5-1.5s1.5,0.7,1.5,1.5v6.6
		C132.2,167.4,131.6,168,130.7,168z"/>
	<path class="st4" d="M129.7,127.9h-11.8c-0.8,0-1.5-0.7-1.5-1.5v-12.7c0-0.8,0.7-1.5,1.5-1.5h11.8c4.5,0,8.1,3.5,8.1,7.9
		C137.8,124.3,134.2,127.9,129.7,127.9z M119.4,124.8h10.3c2.8,0,5.1-2.2,5.1-4.9c0-2.7-2.3-4.9-5.1-4.9h-10.3V124.8z"/>
	<path class="st4" d="M129.7,154h-11.8c-0.8,0-1.5-0.7-1.5-1.5v-12.7c0-0.8,0.7-1.5,1.5-1.5h11.8c4.5,0,8.1,3.5,8.1,7.9
		C137.8,150.4,134.2,154,129.7,154z M119.4,151h10.3c2.8,0,5.1-2.2,5.1-4.9c0-2.7-2.3-4.9-5.1-4.9h-10.3V151z"/>
	<path class="st4" d="M125.6,183.1c-13.4,0-26.1-5.2-35.6-14.7c-9.5-9.5-14.7-22.1-14.7-35.6s5.2-26.1,14.7-35.6
		c9.5-9.5,22.1-14.7,35.6-14.7s26.1,5.2,35.6,14.7c9.5,9.5,14.7,22.1,14.7,35.6s-5.2,26.1-14.7,35.6
		C151.7,177.9,139,183.1,125.6,183.1z M125.6,85.5c-12.6,0-24.5,4.9-33.4,13.9c-8.9,8.9-13.9,20.8-13.9,33.4
		c0,12.6,4.9,24.5,13.9,33.4c8.9,8.9,20.8,13.9,33.4,13.9c12.6,0,24.5-4.9,33.4-13.9c8.9-8.9,13.9-20.8,13.9-33.4
		c0-12.6-4.9-24.5-13.9-33.4C150.1,90.4,138.2,85.5,125.6,85.5z"/>
	<path class="st4" d="M38.1,200.5c-0.4,0-0.7-0.1-1-0.4c-0.6-0.6-0.7-1.5-0.1-2.1l22.5-25.3c0.5-0.6,1.4-0.7,2.1-0.2l13.9,11.2
		l15.9-16.2c0.6-0.6,1.5-0.6,2.1,0c0.6,0.6,0.6,1.5,0,2.1l-16.9,17.1c-0.5,0.5-1.4,0.6-2,0.1l-13.9-11.1L39.2,200
		C38.9,200.3,38.5,200.5,38.1,200.5z"/>
	<path class="st4" d="M162.8,102.7c-0.4,0-0.7-0.1-1-0.4c-0.6-0.6-0.6-1.5,0-2.1l15.5-16.2c0.6-0.6,1.5-0.6,2.1-0.1l12.7,10.8
		l25.8-25.9c0.6-0.6,1.5-0.6,2.1,0c0.6,0.6,0.6,1.5,0,2.1l-26.8,26.8c-0.6,0.6-1.4,0.6-2,0.1L178.4,87l-14.5,15.2
		C163.6,102.5,163.2,102.7,162.8,102.7z"/>
	<path class="st4" d="M219.4,81.9c-0.8,0-1.5-0.7-1.5-1.5v-9.6h-9.2c-0.8,0-1.5-0.7-1.5-1.5c0-0.8,0.7-1.5,1.5-1.5h10.7
		c0.8,0,1.5,0.7,1.5,1.5v11.1C220.9,81.2,220.2,81.9,219.4,81.9z"/>
	<path class="st4" d="M38.2,185.5c-0.8,0-1.5-0.7-1.5-1.5v-33.4c0-0.8,0.7-1.5,1.5-1.5c0.8,0,1.5,0.7,1.5,1.5V184
		C39.7,184.8,39.1,185.5,38.2,185.5z"/>
	<path class="st4" d="M49.5,174.6c-0.8,0-1.5-0.7-1.5-1.5v-33.4c0-0.8,0.7-1.5,1.5-1.5s1.5,0.7,1.5,1.5v33.4
		C51,173.9,50.3,174.6,49.5,174.6z"/>
	<path class="st4" d="M60.3,164.1c-0.8,0-1.5-0.7-1.5-1.5v-33.4c0-0.8,0.7-1.5,1.5-1.5s1.5,0.7,1.5,1.5v33.4
		C61.8,163.5,61.2,164.1,60.3,164.1z"/>
	<path class="st4" d="M162.4,88.1c-0.8,0-1.5-0.7-1.5-1.5V65.7c0-0.8,0.7-1.5,1.5-1.5s1.5,0.7,1.5,1.5v20.9
		C163.9,87.4,163.2,88.1,162.4,88.1z"/>
	<path class="st4" d="M150.7,81.5c-0.8,0-1.5-0.7-1.5-1.5v-9.7c0-0.8,0.7-1.5,1.5-1.5c0.8,0,1.5,0.7,1.5,1.5V80
		C152.2,80.8,151.5,81.5,150.7,81.5z"/>
	<path class="st4" d="M173.2,78.8c-0.8,0-1.5-0.7-1.5-1.5V54c0-0.8,0.7-1.5,1.5-1.5c0.8,0,1.5,0.7,1.5,1.5v23.3
		C174.7,78.1,174,78.8,173.2,78.8z"/>
	<path class="st4" d="M184.1,78.8c-0.8,0-1.5-0.7-1.5-1.5V47.4c0-0.8,0.7-1.5,1.5-1.5c0.8,0,1.5,0.7,1.5,1.5v29.9
		C185.6,78.1,184.9,78.8,184.1,78.8z"/>
	<path class="st4" d="M194.9,81.5c-0.8,0-1.5-0.7-1.5-1.5V61c0-0.8,0.7-1.5,1.5-1.5c0.8,0,1.5,0.7,1.5,1.5v19
		C196.4,80.8,195.8,81.5,194.9,81.5z"/>
	<path class="st4" d="M71.6,168.8c-0.8,0-1.5-0.7-1.5-1.5v-16.7c0-0.8,0.7-1.5,1.5-1.5c0.8,0,1.5,0.7,1.5,1.5v16.7
		C73.1,168.1,72.4,168.8,71.6,168.8z"/>
</g>
</svg>
