<?xml version="1.0" encoding="utf-8"?>
<!-- Generator: Adobe Illustrator 24.1.0, SVG Export Plug-In . SVG Version: 6.00 Build 0)  -->
<svg version="1.1" id="Calque_1" xmlns="http://www.w3.org/2000/svg" xmlns:xlink="http://www.w3.org/1999/xlink" x="0px" y="0px"
	 viewBox="0 0 512 180" style="enable-background:new 0 0 512 180;" xml:space="preserve">
<style type="text/css">
	.st0{fill:#FFFFFF;}
	.st1{fill:#1D1D1B;}
	.st2{fill:#FEDA00;}
	.st3{fill-rule:evenodd;clip-rule:evenodd;fill:#FFFFFF;}
	.st4{fill-rule:evenodd;clip-rule:evenodd;fill:#0269A0;}
	.st5{fill:#42A9C5;}
	.st6{fill:#0269A0;}
</style>
<g>
	<g>
		<path class="st1" d="M130,78.4h-10.6v20.8h-10.8V43.9H130c11.4,0,18.2,7.8,18.2,17.2C148.3,70.5,141.5,78.4,130,78.4z M129.5,53.5
			h-10.1v15.1h10.1c4.9,0,8-3,8-7.5C137.5,56.6,134.4,53.5,129.5,53.5z"/>
		<path class="st1" d="M184.9,99.2l-3.3-9.8H162l-3.3,9.8h-11.3l20.1-55.3h8.5l20.2,55.3H184.9z M172,60.2l-7,20.1h13.7L172,60.2z"
			/>
		<path class="st1" d="M221.4,76.5v22.7h-10.7V76.5l-16.6-32.6h11.7l10.3,22.3l10.2-22.3h11.7L221.4,76.5z"/>
		<path class="st1" d="M284,99.2V67l-10.6,21h-7.3l-10.6-21v32.2h-10.8V43.9h10.6l14.4,29.9l14.4-29.9h10.6v55.3H284z"/>
		<path class="st1" d="M307.7,99.2V43.9h36.4v9.6h-25.6v13h21.8v9.6h-21.8v13.4h25.6v9.6H307.7z"/>
		<path class="st1" d="M387.4,99.2l-21.9-33.9v33.9h-10.8V43.9h9.6l21.9,33.9V43.9H397v55.3H387.4z"/>
		<path class="st1" d="M431,53.5v45.7h-10.8V53.5h-14.4v-9.6h39.7v9.6H431z"/>
		<path class="st1" d="M469.4,99.6c-8.4,0-14.8-1.8-20.2-7.3l7-7c3.5,3.5,8.2,4.7,13.4,4.7c6.4,0,9.8-2.4,9.8-6.8
			c0-1.9-0.5-3.6-1.7-4.7c-1.1-1-2.3-1.6-4.9-1.9l-6.7-0.9c-4.7-0.7-8.2-2.2-10.7-4.6c-2.6-2.6-4-6.2-4-10.9
			c0-9.9,7.3-16.8,19.3-16.8c7.6,0,13.1,1.9,17.9,6.4l-6.8,6.8c-3.5-3.3-7.7-3.8-11.3-3.8c-5.7,0-8.5,3.2-8.5,7c0,1.4,0.5,2.9,1.6,4
			c1.1,1,2.9,1.9,5.1,2.2l6.5,0.9c5,0.7,8.2,2.1,10.6,4.3c2.9,2.8,4.3,6.8,4.3,11.7C489.9,93.6,481,99.6,469.4,99.6z"/>
	</g>
	<path class="st1" d="M97.7,112.4c0-14.1-8.1-20.7-14.5-23.7c5.3-2.5,13-10.1,13-21.8c0-16.2-9.7-27.1-26.6-29.2v-9.5h-8.1v9.1H41.9
		v-9.1h-8.1v9.1H21.3v105.4h12.5v9.1h8.1v-9.1h19.7v9.1h8.1v-9.3C86.2,141,97.7,130.5,97.7,112.4z M75.6,67.8
		c0,7.3-4.9,12.1-13.6,12.1H41.9V55.7H62C70.7,55.7,75.6,60.5,75.6,67.8z M63.3,124.3H41.9V98.4h21.5c9.3,0,13.8,5.8,13.8,12.9
		C77.1,118.4,72.6,124.3,63.3,124.3z"/>
	<g>
		<path class="st1" d="M121.2,136.6v-2c-1.5,1.5-3,2.2-5.6,2.2c-2.6,0-4.5-0.7-5.8-2c-1.2-1.3-1.9-3.1-1.9-5.1
			c0-3.6,2.5-6.6,7.8-6.6h5.4v-1.1c0-2.5-1.2-3.6-4.2-3.6c-2.2,0-3.2,0.5-4.4,1.9l-3.6-3.5c2.2-2.4,4.4-3.1,8.2-3.1
			c6.4,0,9.7,2.7,9.7,8v15H121.2z M121.1,127h-4.5c-2.1,0-3.2,1-3.2,2.6c0,1.6,1,2.6,3.3,2.6c1.6,0,2.6-0.1,3.6-1.1
			c0.6-0.6,0.8-1.5,0.8-2.9V127z"/>
		<path class="st1" d="M152,136.8c-4.5,0-10.2-2.4-10.2-11.7c0-9.2,5.6-11.6,10.2-11.6c3.1,0,5.5,1,7.5,3.1l-3.8,3.8
			c-1.2-1.3-2.2-1.8-3.7-1.8c-1.4,0-2.4,0.5-3.2,1.5c-0.9,1.1-1.3,2.6-1.3,5s0.4,4,1.3,5.1c0.8,1,1.9,1.5,3.2,1.5
			c1.5,0,2.5-0.5,3.7-1.8l3.8,3.8C157.5,135.8,155.2,136.8,152,136.8z"/>
		<path class="st1" d="M177,136.6v-13.9c0-3-1.9-4-3.7-4s-3.7,1-3.7,4v13.9h-5.7v-31.1h5.7v10.4c1.5-1.6,3.5-2.4,5.5-2.4
			c5,0,7.6,3.5,7.6,8.3v14.7H177z"/>
		<path class="st1" d="M201.2,120c-0.9-0.9-1.6-1.4-3-1.4c-1.7,0-3.7,1.3-3.7,4.2v13.7h-5.7v-22.8h5.5v2.2c1.1-1.3,3.3-2.4,5.7-2.4
			c2.2,0,3.8,0.6,5.4,2.1L201.2,120z"/>
		<path class="st1" d="M223,134c-1.4,1.5-3.7,2.8-7.1,2.8c-3.4,0-5.6-1.3-7-2.8c-2.1-2.1-2.6-4.7-2.6-8.9c0-4.1,0.5-6.7,2.6-8.8
			c1.4-1.5,3.7-2.8,7-2.8c3.4,0,5.7,1.3,7.1,2.8c2.1,2.1,2.6,4.7,2.6,8.8C225.6,129.3,225.1,131.9,223,134z M218.6,119.7
			c-0.7-0.7-1.5-1-2.7-1c-1.1,0-2,0.3-2.6,1c-1.2,1.2-1.3,3.1-1.3,5.5c0,2.4,0.1,4.4,1.3,5.5c0.7,0.7,1.5,1,2.6,1c1.1,0,2-0.3,2.7-1
			c1.2-1.2,1.3-3.2,1.3-5.5C219.9,122.8,219.8,120.8,218.6,119.7z"/>
		<path class="st1" d="M257.5,136.6v-13.8c0-3.1-2-4.2-3.8-4.2c-1.7,0-3.8,1-3.8,4v13.9h-5.7v-13.8c0-3.1-2-4.2-3.8-4.2
			c-1.8,0-3.8,1-3.8,4.2v13.8H231v-22.8h5.5v2.1c1.5-1.5,3.6-2.4,5.7-2.4c2.5,0,4.6,0.9,6,2.9c1.9-2,4-2.9,6.8-2.9
			c2.3,0,4.3,0.7,5.6,2c1.8,1.8,2.5,4,2.5,6.5v14.5H257.5z"/>
		<path class="st1" d="M273.7,127c0,2.9,1.8,5.1,5,5.1c2.5,0,3.7-0.7,5.2-2.1l3.5,3.4c-2.3,2.3-4.5,3.6-8.6,3.6
			c-5.4,0-10.5-2.4-10.5-11.7c0-7.4,4-11.6,9.9-11.6c6.3,0,9.9,4.6,9.9,10.9v2.5H273.7z M281.9,120.6c-0.6-1.4-1.9-2.4-3.8-2.4
			c-1.9,0-3.2,1-3.8,2.4c-0.3,0.8-0.5,1.4-0.5,2.4h8.6C282.3,122.1,282.2,121.5,281.9,120.6z"/>
		<path class="st1" d="M307.8,127c0,2.9,1.8,5.1,5,5.1c2.5,0,3.7-0.7,5.2-2.1l3.5,3.4c-2.3,2.3-4.5,3.6-8.6,3.6
			c-5.4,0-10.5-2.4-10.5-11.7c0-7.4,4-11.6,9.9-11.6c6.3,0,9.9,4.6,9.9,10.9v2.5H307.8z M315.9,120.6c-0.6-1.4-1.9-2.4-3.8-2.4
			c-1.9,0-3.2,1-3.8,2.4c-0.3,0.8-0.5,1.4-0.5,2.4h8.6C316.4,122.1,316.3,121.5,315.9,120.6z"/>
		<path class="st1" d="M339.5,136.6l-4.2-6.8l-4.2,6.8h-6.8l7.9-11.6l-7.6-11.1h6.8l3.8,6.5l3.9-6.5h6.8l-7.6,11.1l7.9,11.6H339.5z"
			/>
		<path class="st1" d="M357.1,136.6c-4.6,0-6.6-3.3-6.6-6.5v-11.3h-2.4v-4.3h2.4v-6.7h5.7v6.7h4v4.3h-4v10.9c0,1.3,0.6,2.1,2,2.1
			h2.1v4.8H357.1z"/>
		<path class="st1" d="M369.7,127c0,2.9,1.8,5.1,5,5.1c2.5,0,3.7-0.7,5.2-2.1l3.5,3.4c-2.3,2.3-4.5,3.6-8.6,3.6
			c-5.4,0-10.5-2.4-10.5-11.7c0-7.4,4-11.6,9.9-11.6c6.3,0,9.9,4.6,9.9,10.9v2.5H369.7z M377.8,120.6c-0.6-1.4-1.9-2.4-3.8-2.4
			c-1.9,0-3.2,1-3.8,2.4c-0.3,0.8-0.5,1.4-0.5,2.4h8.6C378.3,122.1,378.2,121.5,377.8,120.6z"/>
		<path class="st1" d="M402.4,136.6v-13.8c0-3.1-2-4.2-3.8-4.2c-1.8,0-3.8,1-3.8,4.2v13.8h-5.7v-22.8h5.5v2.1
			c1.5-1.6,3.6-2.4,5.7-2.4c2.3,0,4.1,0.7,5.4,2c1.8,1.8,2.3,4,2.3,6.5v14.5H402.4z"/>
		<path class="st1" d="M421.7,136.8c-3.6,0-6.8-0.4-9.7-3.3l3.7-3.7c1.9,1.9,4.3,2.1,6.1,2.1c2,0,4-0.7,4-2.4c0-1.1-0.6-1.9-2.4-2.1
			l-3.6-0.3c-4.1-0.4-6.6-2.2-6.6-6.4c0-4.7,4.2-7.3,8.8-7.3c3.5,0,6.5,0.6,8.7,2.7l-3.5,3.5c-1.3-1.2-3.3-1.5-5.3-1.5
			c-2.3,0-3.2,1-3.2,2.2c0,0.8,0.3,1.8,2.4,2l3.6,0.3c4.5,0.4,6.8,2.8,6.8,6.7C431.3,134.4,427.1,136.8,421.7,136.8z"/>
		<path class="st1" d="M436,109.9v-4.6h5.8v4.6H436z M436.1,136.6v-22.8h5.7v22.8H436.1z"/>
		<path class="st1" d="M463.8,134c-1.4,1.5-3.7,2.8-7.1,2.8c-3.4,0-5.6-1.3-7-2.8c-2.1-2.1-2.6-4.7-2.6-8.9c0-4.1,0.5-6.7,2.6-8.8
			c1.4-1.5,3.7-2.8,7-2.8c3.4,0,5.7,1.3,7.1,2.8c2.1,2.1,2.6,4.7,2.6,8.8C466.4,129.3,465.9,131.9,463.8,134z M459.4,119.7
			c-0.7-0.7-1.5-1-2.7-1c-1.1,0-2,0.3-2.6,1c-1.2,1.2-1.3,3.1-1.3,5.5c0,2.4,0.1,4.4,1.3,5.5c0.7,0.7,1.5,1,2.6,1c1.1,0,2-0.3,2.7-1
			c1.2-1.2,1.3-3.2,1.3-5.5C460.7,122.8,460.6,120.8,459.4,119.7z"/>
		<path class="st1" d="M485,136.6v-13.8c0-3.1-2-4.2-3.8-4.2s-3.8,1-3.8,4.2v13.8h-5.7v-22.8h5.5v2.1c1.5-1.6,3.6-2.4,5.7-2.4
			c2.3,0,4.1,0.7,5.4,2c1.8,1.8,2.3,4,2.3,6.5v14.5H485z"/>
	</g>
</g>
</svg>
