<?xml version="1.0" encoding="utf-8"?>
<!-- Generator: Adobe Illustrator 24.1.0, SVG Export Plug-In . SVG Version: 6.00 Build 0)  -->
<svg version="1.1" id="Calque_1" xmlns="http://www.w3.org/2000/svg" xmlns:xlink="http://www.w3.org/1999/xlink" x="0px" y="0px"
	 viewBox="0 0 841.3 1193" style="enable-background:new 0 0 841.3 1193;" xml:space="preserve">
<style type="text/css">
	.st0{fill-rule:evenodd;clip-rule:evenodd;fill:#FFFFFF;}
	.st1{fill-rule:evenodd;clip-rule:evenodd;}
</style>
<g id="body_x2F_mono_x2F_Tee-Arms-Crossed">
	<path id="_xD83C__xDFA8_-Background" class="st0" d="M643.9,659.8c-8.7-3.1-17.1-6.7-24.7-11.9c-22-16.4-36.3-41-49.9-64.3
		c-19.1-33.9-32.7-70.1-42.1-107.8c-4-16.2-5.4-35-14.6-49.4c-20.8-30.1-81.8-26.2-114.1-20.9c-21.7,3.8-26.2,28.1-31.1,46.1
		c-4.1,14.9-6.8,30-9,45.3c-5.4,3.5-11.4,6.4-17.2,8.9c-62.9,19.3-73.9,55-97.9,110.2C202.8,696.1,92.7,727.5,76.1,822.4
		c-10.7,62.7,19.7,121.7,51.1,173.8c29.2,56.9,70.1,84.2,135.1,70.8c61-13.7,119.6-36.6,179.5-54.2c29-7.1,58-25.7,88.5-19.2
		c62.9,14.1,127.5,20.8,191.9,18.9c90.5,3.7,90.5-83.2,81.2-150.4C796.9,757.4,744.1,690.2,643.9,659.8L643.9,659.8z"/>
	<path id="_xD83D__xDD8D_-Ink" class="st1" d="M649.9,811.2c7.6,5,13.9,12.6,19,20.6c-21.3-2.2-42.6-4.8-63.8-7.7
		c2.8-1.8,5.6-3.5,8.5-5.2C624,813,638.2,803.5,649.9,811.2z M295.8,874.2c-3.9-1.5-5.4-7.5-6.9-10.9c-4.8-10.7-9.1-21.6-13.7-32.4
		c17.2-4.9,33.9-10.3,51.8-13c19.2-2.8,38.6-3.5,57.9-2.9c39.2,1.3,78,7.7,116.5,14.5c38.5,6.9,76.9,13.4,115.7,18.6
		c38,5.1,76,8.8,114.2,12c7.4,0.6,19.8,3.3,25.7-2.5c4.7-4.6,4.9-13.1-1-16.9c-3.7-2.3-9-2.4-13.2-2.9c-5.3-0.7-10.6-1.1-15.9-1.5
		c-2.2-0.1-4.3-0.3-6.5-0.4c17.4-6.6,35.6-10.1,54.5-9.2c1.1,6.5,5.9,13.2,8.5,18.5c4.6,9.3,8.2,18.8,10.5,28.9
		c4.9,21.2,5.1,43.3,3.7,64.9c-1.3,18.1-4,38-18.2,50.8c-10.7,9.7-25.8,13.3-39.9,14.4c-16.3,1.3-32.9-0.1-49-2.3
		c-22.7-3.1-45.5-7.1-67.7-12.6c-43.1-10.5-84.4-27.3-122.4-50c-18.6-11.1-36.3-23.5-55.1-34.2c-19.2-10.9-39.6-19.3-61-24.5
		c-24-5.9-49.1-8.4-73.7-6.9C306.2,874.3,300,875.8,295.8,874.2z M268,863.3c2.5,8.2,4.4,17.5,9.8,24.4c5.3,6.8,13.4,9.2,21.7,9.8
		c10,0.7,20.2,0.3,30.3,0.6c20.6,0.8,41,4.1,60.7,10.3c18.4,5.7,35.5,14.7,51.9,24.6c15.2,9.2,30,19,45.2,28.2
		c-4,1.9-8.1,3.9-12.1,5.6c-8.4,3.7-16.9,7.2-25.5,10.7c-16.8,6.8-33.7,13.4-50.8,19.6c-34.4,12.4-69.4,23.3-104.8,32.5
		c-16.9,4.4-34,9.6-51.6,10.3c-15.6,0.7-30-3.7-42.5-13c-26-19.2-46.7-46.9-63.5-74.2c-9.9-16.2-18.6-33.3-25.8-50.9
		c-3.6-8.9-6.9-18-9.9-27.1c-1.4-4.3-2.7-8.6-4-13c-0.5-1.9-1.1-3.8-1.6-5.7c26.6-8.1,53.5-15.4,81.1-19.5
		c14.7-2.2,29.6-3.3,44.5-3.1c7.4,0.1,14.8,0.5,22.1,1.2c4,0.4,7.9,0.9,11.8,1.6c1.6,0.3,3.3,0.7,5,1
		C262.8,845.9,265.3,854.6,268,863.3z M818.1,828.6c1.4-2.9,2-5.8,2.6-8.9c0.4-2.4,1.4-5.8,0.5-8.9c-1-3.5-3.8-6.6-5.8-9.6
		c-2.2-3.3-4.4-6.6-6.6-9.9c-4.4-6.6-8.8-13.2-13.2-19.8c-17.9-27-35.7-54.2-53.4-81.3c-15.8-24.1-31.3-48.3-47.6-72
		c-13.9-20.3-29.1-40.2-48.1-56c-24.1-20-52.8-29.4-82.7-36.7c-3.3-3.4-7.6-5.2-12.3-4.9c-6.6-7.5-11.8-12.7-14.2-22.2
		c-1.1-4.6-0.8-17.4-5.2-20.1c-5.3-3.2-8,1-9.5,5.8c-4.9,16,0.7,37.5,13.6,53.5c-5.4,18.7-12.6,45.3-25.4,60.3
		c-13.7,16.1-32.7,21-53.1,21.4c-39,0.6-78-13.9-107.8-39c-9-7.6-17.4-16.2-25-25.2c-5.7-6.8-12.4-17.3-16.9-25.3
		c0-3.1-3.7-6.3,33.5-8.8s40-53.4,40.8-60.4c0.7-5.6,3.5-14.4-0.4-19c-1.7-1.9-5.1-2.3-7.3-0.9c-4,2.5-5.3,8.9-6.6,13.2
		c-1.8,6.1-7.6,43.8-18.5,48.2c-5.1,2-11,2.1-16.5,2.5c-6.7,0.5-13.4,0.8-20.1,1.6c-2.5,0.3-5.2,1.1-7.6,1.1c-1.6,0-3.2-0.8-4.7-1.3
		c-5.2-1.8-10.3-0.5-15.6,0.3c-47,6.3-95.5,20.7-135.6,46.7c-35.4,22.9-60.3,55.8-76.7,94.3C55.7,686.3,46.1,728.8,38,770.6
		c-2.7,14-5.1,28.1-7.1,42.2c-2,13.6-4.4,27.6-5,41.4c-0.2,5.5,1.1,10.5,3.1,15.5c2.3,5.6,7.6,7.8,12.7,10.4
		c11.2,5.7,23.1,10.2,35.3,13.4c7.5,13.6,13.7,27.7,18.8,42.3c-1.9,3.7-1.9,9.2-2.3,12.9c-0.9,9-1.3,18-1.4,27
		c-0.2,18.1,0.9,36.1,1.8,54.2c0.9,18.3,3.7,90.5,4.2,99.3c0.4,6.9-0.1,16.4,3.5,22.5c5.5,9.3,19.2,9,25.6,1.5
		c157.5,33.9,453.6,23.7,572.9,6.6c15.5-2.2,10.6,0.2,14.6-3.7c3-2.9,5.5-8,6.3-12c1.1-5.4-0.7-10.3-3.8-14.7
		c-3.3-4.6-3.8-12.1-5.1-17.5c-2.9-12.9-4.3-69.7-5.6-76c-0.4-2-0.8-4-1.3-6.1c21.9,2.1,44.7,2.1,65.5-5.2
		c11.8-4.1,22.8-10.7,31.3-20c10.3-11.3,16-25.5,18.9-40.3c3.8-19.1,4.6-38.9,3.8-58.3c-1-22.9-4.8-46.2-14.3-67.3
		C813.6,835.8,816.2,832.3,818.1,828.6z"/>
</g>
<g id="head_x2F_mono_x2F_Medium-Straight">
	<path id="_xD83D__xDD8D_-Ink_1_" class="st1" d="M696,476.4c-11.4-53.6-18.7-107.8-25.3-162.1c-3.2-26.3-5.7-52.7-8.6-79
		c-2.7-24.5-5.9-49.1-12.3-73c-5.9-22.2-14.6-44.2-27.5-63.3c-12-18-27.1-33.4-44.5-46.2C543.5,27.3,499.7,13.8,457,18.3
		c-6.4,0.7-12.8,1.8-19.1,3.2c2-0.6,4-1.1,6.1-1.6c0.7-0.2,0.4-1-0.3-1c-173.5,15.8-214.3,317.4-218,378.3
		c-0.3,4.7-0.5,9.5-0.7,14.2c-1.3,10.6-2.3,21.1-2.7,31.7c-0.5,12.2-0.3,24.6,0.9,36.8c1.2,12.5,2.5,25.3,7.7,36.8
		c3.2,7.1,152.4-2.6,153.9-11c3.1-16.9,4.7-34.3,3.7-51.5c-0.5-8.2-1.3-16.4-3.1-24.5c-0.5-2.2-1-6.3-2.3-9.6
		c13.6-25.9,28.6-51,44-75.8c32.1-51.7,66.2-102.4,92.4-157.5c13.1-27.6,26.1-56.9,32.3-87.1l1,0.2c-0.1,0.4,0,0.8,0.3,1.1
		c28.5,19.7,47.5,49.5,59.9,81.5c14.4,37.2,21.3,77.4,20.3,117.2c-1.6,63.3-25.6,141.6-93.5,161.6c-15.5,4.6-32.2,5.9-48.1,2.5
		c-7.5-1.6-14.8-4-21.6-7.6c-7.5-4-13.7-9.6-20.7-14.3c-6.4-4.2-14,4-10.3,10.3c8.2,13.9,25.8,22.4,40.8,26.6
		c16.1,4.5,33.1,4.7,49.5,1.8c1.2-0.2,2.5-0.5,3.7-0.7c0.3,4.1,2,8.2,4.9,11.6c1.3,1.5,2.9,2.8,4.7,3.9c0.2,4,2.8,8.1,7,8.9
		c22.5,4.7,115.9-7.6,138.3-14.3C694.2,488.3,697.3,482.4,696,476.4"/>
	<path id="_xD83C__xDFA8_-Background_1_" class="st0" d="M637.3,283.2c-1.7-78.6-21.3-165.6-88.4-214.1c-4.3-3.1-10.7-1.6-14.2,1.9
		c-2.9,0.6-5.6,2.3-7.4,5.6C487.7,149,445.9,220.3,402,290.3c-28.2,45.3-62.4,90.6-66.9,145.4c-0.8,1-8,9.2-3.8,8.6
		c1.9-1,3.8-1.8,5.8-2.4c5.4,7.8,17.8,6.6,20.8-2.2c10.3,0.3,20.4,2.9,30.2,6c24,7.5,48.4,14.9,72.8,20.7
		c80.6,21.4,167.3-5.8,173.7-99.8C643.3,354.4,638.6,300,637.3,283.2L637.3,283.2z"/>
</g>
<g id="face_x2F_Smile">
	<path id="_xD83D__xDD8D_-Ink_2_" class="st1" d="M538.3,398.9c-6.7-2.7-12.7-7.3-17.1-13.2c-1.5-2-1.9-4.2-1.6-6.1
		c0.4-2.2,1.7-4.2,3.4-5.5c1.8-1.3,4-2,6.2-1.7c1.9,0.3,3.7,1.3,5.2,3.5l0.3,0.4c2.6,3.5,6,6.4,9.9,8.3c3.7,1.8,7.9,2.6,12.2,2.1
		c8.2-0.9,13.9-5.4,19.9-11.4c0.7-0.8,1.5-1.5,2.2-2.3c0.5-0.7,1.1-1.2,1.9-1.4c0.8-0.3,1.8-0.5,2.6,0c10.1,6.7,1.5,0.8,2,1.5
		c0.5,0.7,0.7,1.5,0.6,2.5c-0.6,6.3-3.8,11.8-8.5,16.2c-5.2,4.9-12,8.2-18.4,9.4C552.1,402.5,544.9,401.6,538.3,398.9L538.3,398.9z
		 M562.5,302.3c7.6,4.6,19.1,15.3,10.9,26.7c-9.6,10-23.3-1.5-30.1-6.7c-6.3-4-13.4,6.3-7.5,11c49,36.3,68.9-29.8,30.5-36.4
		C562.1,296.2,560.6,300.9,562.5,302.3z M474.7,260.1c0.8-10.4,16.6-12.7,18.2-2.5c1.4,9.2-0.2,17.6-4.4,25.9
		c-4,7.9-13.9,4.2-14.6-3C472.8,270.9,474.2,266.6,474.7,260.1z M594.8,255.5c2.2-2.9,5.4-4.8,9.2-3.7c11.9,3.5,8.4,20.3,4.2,28.6
		c-2.3,4.5-9.6,5.6-12.9,1.7c-5.4-6.4-8-19.2-1.1-25.5C594.3,256.2,594.5,255.9,594.8,255.5z M488.3,214.8l1.9-0.3
		c5.8-1,13-2,17.1,2.7c2.2,2.5,2.9,7.1,0,9.4c-5.2,4.2-10.8,2.6-17,2.9c-5.1,0.3-10,1.1-14.9,2.5c-10.8,3.1-19.5,8.7-28.7,14.8
		c-1.2,0.8-2.4-0.7-1.9-1.9c5.3-10.4,15.6-18.9,25.9-24.1C476.2,218.2,482.2,215.9,488.3,214.8z M583.9,210.1l1.4,0.3
		c15.6,3.3,36,9.8,43.4,25.2c0.3,2.2,0,2.6-0.3,2.9l-0.1,0.1c-0.2,0.3-0.4,0.6-1.3,0.9c-0.3-0.1-0.5-0.1-0.8-0.2
		c-3.4-0.9-6.1-2.1-8.7-3.4l-2.8-1.4c-3.3-1.6-6.6-3.1-10.1-4.3c-7.5-2.4-15.1-4.1-22.9-5.1c-1.7-0.2-3.3-0.8-4.6-1.7
		c-1.2-0.9-2.1-2.2-2.6-3.9c-0.5-2.2-0.4-3.9,0.8-5.9c0.9-1.5,2.2-2.5,3.6-3.1C580.5,210,582.2,209.8,583.9,210.1z"/>
</g>
<g id="facial-hair_x2F_Moustache-1">
	<path id="_xD83D__xDD8D_-Ink_3_" class="st1" d="M579.5,346.4c11.7,0.8,22.8,8.1,32.9,13.7c9.7,5.8,16.9,14.4,22.6,23.9l0.4,0.6
		c0.3,0.5-0.3,1.1-0.8,0.9l-0.1,0c-9.5-4.8-19.6-8.6-28.9-13.9c-9.1-5.6-20.3-7.6-29.5-12.7C570.8,355.1,572.4,346.7,579.5,346.4z
		 M549,352.1c0.4,2.7-0.7,6.9-4.2,8.2c-6.2,2.2-11.8,3.3-18,5l-8,2.2c-15.4,4.3-31.1,9-44.7,15.8l-0.4-0.2
		c-9.9-6.2,44.9-32.1,63.8-36.2C540.9,346.2,548.3,348,549,352.1z"/>
</g>
</svg>
