<?xml version="1.0" encoding="utf-8"?>
<!-- Generator: Adobe Illustrator 24.1.0, SVG Export Plug-In . SVG Version: 6.00 Build 0)  -->
<svg version="1.1" id="Calque_1" xmlns="http://www.w3.org/2000/svg" xmlns:xlink="http://www.w3.org/1999/xlink" x="0px" y="0px"
	 viewBox="0 0 512.3 310.1" style="enable-background:new 0 0 512.3 310.1;" xml:space="preserve">
<style type="text/css">
	.st0{fill-rule:evenodd;clip-rule:evenodd;fill:#FFFFFF;}
	.st1{fill-rule:evenodd;clip-rule:evenodd;}
	.st2{font-family:'PatrickHand-Regular';}
	.st3{font-size:18px;}
</style>
<desc>Created with Sketch.</desc>
<g id="Introduction">
	<g id="variations" transform="translate(-1806.000000, -758.000000)">
		<g id="images" transform="translate(126.000000, 110.000000)">
			<g id="a-person_x2F_bust" transform="translate(1680.000000, 648.000000)">
				<g id="body_x2F_Polka-Dot-Jacket" transform="translate(31.056338, 135.052838)">
					<path id="_xD83C__xDFA8_-Background" class="st0" d="M219.4,10.1c1.4,4.8,0.5,9.7,3.9,13.3c1.3,1.4,3.7,0.9,6.3,0.9h0.2
						c2.7,0,3.3,2.7,5.7,3.6c3.7,1.4,16.9,6.7,20.7,7.5c4.4,1,16.8,12.3,28.1,45.6c4.4,13,6.4,39.1,6,78.3
						c-73.8,1-118.7,0.2-134.4-2.4c-1.3-0.2-1.5-3-0.6-8.5l0.1-0.3c-3.8,3.1-15.5,4.7-17.8,4.4c-10.4-1.4-17.1-35.3-17.1-36.8
						c0-0.9,1.1-1.8,2.7-3l0.4-0.3l-1.2-11.3L119.9,91l-3-7.2c-3.3-0.7-5.7-1.6-7-2.7c-1.4-1.1-2.5-2.9-3.5-5.5
						c-1.3-0.9-2.3-1.9-2.9-3.1c-0.6-1.2-0.3-2.7,0.9-4.5v-2c0-0.4,0.6-1.2,1.9-2.4l0.1-0.1c-1-1.4-1.2-2.6-0.7-3.6s2.1-2.2,4.8-3.7
						l0.2-0.3l-2.1-1.7c-5.6-3.9-9.2-6.6-10.6-8.1c-2.1-2.3,2.1-3.8,4.6-3.1c1.5,0.4,6.9,3,16.1,7.6l1.8,0.9c1.2,1,2.7,1.6,4.4,1.6
						h0.1c2.5,0.1,8.2,2.6,10.6,5.8c2.4,3.2,0,15.8,0,18.7c0,1.9,0.9,7.4,2.8,16.4l0.2,1.1c0.6-1.4,1.2-3,1.7-4.7
						c4.5-15,13-44.3,14.4-46.7c3.3-5.8,20-10.5,25.6-13c1.7-0.7,6-0.5,7.2-2.8c2.7-5.3,1.1-15.2,1.9-17.8
						c0.5-1.7,10.1-4.3,16.2-4.6C213.1,5.1,218.6,7.5,219.4,10.1z"/>
					<path id="_xD83D__xDD8D_-Ink" class="st1" d="M226.7,24.8c3.4-1.8,7.5,0.9,9.4,3.8c21,6.5,32.4,9.1,40.6,31.5
						c9.3,19.5,15.6,40.5,15.3,62.3c0.3,12.5-0.3,25.1-0.6,37.7c0,1.7-2.7,1.7-2.7,0c0.1-8.2,0.3-16.3,0.4-24.5
						c-3.4,1.7-3.3-4.2,0-2.5c0.2-10,0.2-20-1.3-29.9c-3.5,1.8-4.5-4.5-0.6-3.9c-2-11.1-5.9-21.7-10.3-32.1l-0.3-0.8
						c0,1.9-2.8,2.4-3.4,0.6c-0.8-1.7,1.5-3.3,2.8-2c-7.2-18.1-11.6-25.9-31.1-31.6c0.6,4.6-6.3,1.9-2.8-1.1c-2-0.8-3.9-1.8-5.7-3
						c1.3,2.5,1.5,5.3,1.9,8l0.1,0.4c1.4,7.7,5.9,14.4,7.2,22.1c1.3-1.5,3.9-0.5,3.8,1.5c0,1.7-2.1,2.8-3.5,1.8
						c1.6,9.5-11.2,18.3-3.5,26.1c3,3.7,1.2,8.7,0.3,12.9l-0.1,0.3c-2,9.1-4.5,18.1-7.2,27.1c4.2,0.4,2.2,6.5-1.4,4.7
						c-0.8,2-9,28.4-10.3,21.3c6.3-18.3,12.9-36.5,16.8-55.5c1.4-5.7,1.7-7-2.1-11.6c-3.3-6,1.1-12.1,3.6-17.5
						c0.9-2.2,1.4-4.5,1.4-6.9c-0.3-9.8-6.5-18.1-7.6-27.8c-0.4-4.4-1.6-10.4-7.1-10.6c4,38-1,76.4-6.6,114.1l-0.3,2.3
						c-0.9,3.2-1.3,12.1-4.5,13c-2.8,1.9-7.4,0.7-10.8,1c-6.9-0.1-13.9-0.2-20.8-0.3c-0.8,0-1.1-0.6-1.2-1.3
						c-2.2,1.1-1.7-10.8-2.3-12.5c-2.6-36.8-4.2-74.2,1-110.8c-1,0.4-2,0.7-3,1.1l-2,0.7c-1.1,12.2-10.3,22.6-9.8,35.2
						c-0.1,4.1,2.2,7.6,3.1,11.4c0.2,7.5-6.4,9.3-4.7,21c2.6,15.8,6.7,31.3,9.7,47c0.5,2.4,1.2,4.8,1.4,7.3c0.1,1.3-1.7,1.4-2.1,0.3
						c-0.7-2.1-1-4.4-1.5-6.5c-2.4-10.9-4.8-21.9-7.1-32.8c-1.9-9.3-5.2-19.8-0.4-28.8c0.9-1.6,1.9-3.1,2.4-4.9s-0.1-3.5-0.8-5.1
						l0.3-0.5c-6.8-15,6-28.9,8.8-43.2C162,38.7,154.6,42,151,59.2c-3.7,12.7-7.7,25.5-10.6,38.4c2.6,0,6.8,11.9,8.3,14.5
						c1.8,4.6,5.3,9.5,4.1,14.6c-0.2,0.5-0.9,0.7-1.2,0.2c-1.3-2.2-1.6-4.7-2.5-7.1c-2.9-6.8-5.9-13.6-8.1-20.6
						c-1.4,9.3-9.9,16.1-18.7,18.4c1.4,2.2,2.2,5.1,2.8,7.6l0.2,0.7c1.2,5.8,2.9,11.6,6.1,16.7c-0.3-1.8,2.2-2.8,3.1-1.2l0,0
						c0.9,1.5-1.1,3.2-2.5,2.2c3.2,6.2,6.2,8.4,13.4,7.4c2.5-0.3,5.1-1.2,7-2.9c0.9-0.8,1.3-2.1,2.5-2.5c1.4-20.5,0.1-41,0.4-61.4
						c0-0.1,0.2-0.1,0.2,0c0.2,1.1,0.5,2.1,0.7,3.2c1.9,14.6,2.1,29.4,2.1,44.1v1.9c4.3-1.4,4.1,5.6-0.1,4.2
						c-0.1,4.5-0.3,8.9-0.6,13.4c3.7-1,2.9,5.2-0.4,3.3c-0.2,1.4-1.7,1.9-2.3,0.6c-0.4-1.3-0.2-2.6-0.2-3.9
						c-6.3,5-18.8,6.3-23.4-1.5c-4-5.9-7.2-12.4-8.4-19.4c-0.8-4.1-1.4-8.4-2.8-12.3c-0.1,0-0.1,0-0.2,0c-2.6-2.7,0-5.8,2.8-6.9
						c-0.5-8.6-1.9-17.5-6.2-25.1c-1.8-2-5-2.1-7.2-3.6c-2-1.4-3.6-3.8-3.4-6.3c-3-0.2-3.9-5.5-1.9-7.4c0.3-0.4,0.1,0,0.1-0.5
						c-0.4-1.7-0.2-3.7,1.6-4.5c0,0,0-0.1-0.1-0.1c-2.2-3,1.2-6.4,4-7.2c-4.4-2.9-10.8-5-12.3-10.6c-0.6-3.2,2.8-3.7,5.2-3.3
						c7.6,2.1,13.8,7.4,20.9,10.6c4-1.1,8.6,0.8,11.8,3.3c3.5,3.1,2.1,11.6,1.9,16.1v0.3c-0.7,5.7,0.3,11.4,1.3,17.1l0.4,2
						c3.3-10.8,6.1-21.8,9.5-32.6c1.6-5.2,2.9-11.1,6.1-15.6c7.3-9,21.7-13.3,32.9-14.3c1.2-2.1,1-4.7,2.1-6.8
						c0.2-0.3,0.6-0.2,0.7,0.1c1.1,3.9-0.1,9.4-3.8,11.6c3.3,9.6,14.3,15.1,24,12.4c6.2-1.4,13.2-3.3,17.3-8.5
						c0.1-3.3,0.4-6.5,0.7-9.8c-3.2-1.5-5.6-4.7-6.9-8c-0.5-1.7-2.5-4.4-0.6-5.8c0.6-0.3,1.6-0.4,2,0.3
						C223.9,18.1,224.8,21.7,226.7,24.8z M260,101c0.5-0.6,0.9-1.2,1.4-1.9l0.3-0.4l0,0l0.7-1c0.2-0.3,0.5-0.6,0.7-0.9v-0.1
						c0.1-0.3,0.2-0.3,0.5-0.2c0.5,0.2,0.3,1.1,0.2,1.5v0.1c-0.2,1.1-0.6,2.1-1.1,3.2l-0.1,0.2c-0.4,1-0.8,2.1-1.5,2.8
						c-0.2,0.2-0.4,0.4-0.6,0.5c0,0.2,0,0.3,0.1,0.5c0.4,3.5,0.8,7.1,1.1,10.7l0.2,2.7c0.7,7.9,1.3,15.9,1.6,23.8
						c0.1,2.4,0.2,4.7,0.2,7.1c0,1.1,0.1,2.2,0.1,3.3c0,0.6,0,1.3-0.1,1.9c-0.1,0.2-0.2,0.4-0.2,0.6c0,0,0,0,0,0.1
						c0.4,0.4,0.7,1.1,0.4,1.6c-0.3,0.6-1.1,0.7-1.7,0.4c-0.7-0.4-1-1.4-1.2-2.1v-0.1c-0.4-1.1-0.4-2.2-0.4-3.3v-2.8l0,0v-1.3
						c-0.1-2.5-0.1-5-0.2-7.5c-0.1-2.9-0.1-5.8-0.3-8.6l0,0l0,0c-0.3,0.1-0.6,0.2-0.9,0.2h-0.1c-0.4,0-0.8-0.1-1.2-0.3
						c-0.4-0.2-0.6-0.5-0.9-0.9c-0.2-0.4-0.3-0.8-0.3-1.2v-0.1c0-0.3,0.1-0.6,0.2-0.9c0.1-0.3,0.3-0.6,0.5-0.8l0.1-0.1
						c0.3-0.3,0.6-0.5,1-0.6s0.9-0.1,1.3,0c0.1,0,0.2,0.1,0.3,0.1c-0.2-5.7-0.6-11.3-1-17c-0.2-2.1-0.3-4.3-0.5-6.5
						c-0.2-3.5-0.4-7.1-0.2-10.6c0-0.3,0.4-0.3,0.5-0.1C259.1,95.7,259.6,98.4,260,101z M230,152.4L230,152.4c0.5,0.4,0.5,1.4,0,1.8
						l0,0l0,0l0,0c-0.9,0.7-2.3,0.3-2.3-0.9C227.7,152,229.1,151.6,230,152.4C230,152.3,230,152.3,230,152.4z M267.8,149.9
						c0.3,0,0.5,0.1,0.8,0.2c0.3,0.1,0.5,0.2,0.7,0.5c0.2,0.2,0.4,0.4,0.4,0.7c0.1,0.3,0.2,0.5,0.2,0.8c0,0.2-0.1,0.4-0.1,0.6
						c-0.1,0.4-0.3,0.7-0.6,1c-0.1,0.1-0.3,0.2-0.4,0.3c-0.3,0.2-0.7,0.3-1.1,0.3h-0.1c-0.3,0-0.5-0.1-0.8-0.2
						c-0.3-0.1-0.5-0.2-0.7-0.4c-0.2-0.2-0.4-0.4-0.4-0.7c-0.1-0.3-0.2-0.5-0.2-0.8l0,0l0.1-0.6c0.1-0.4,0.3-0.7,0.6-1
						c0.1-0.1,0.3-0.2,0.4-0.3C266.9,150,267.3,149.9,267.8,149.9L267.8,149.9L267.8,149.9z M169.9,146.1c0.2,0.1,0.3,0.2,0.5,0.4
						c0,0,0.1,0.1,0.1,0.2l0.1,0.1c0.2,0.3,0.3,0.4,0.4,0.7v0.1c0,0.1,0,0.1,0.1,0.2c0.1,0.4,0.1,0.7,0,1.1
						c-0.1,0.2-0.1,0.3-0.2,0.5c-0.1,0.1-0.2,0.3-0.3,0.4c-0.1,0.1-0.3,0.2-0.4,0.3c-0.2,0.1-0.5,0.2-0.7,0.2s-0.4,0-0.5,0
						c-0.3,0-0.5-0.1-0.7-0.2c-0.3-0.2-0.5-0.4-0.7-0.7c-0.1-0.1-0.2-0.2-0.2-0.3c-0.2-0.2-0.3-0.4-0.4-0.7c-0.1-0.3-0.1-0.6,0-0.8
						c0-0.3,0.1-0.5,0.2-0.8c0.3-0.4,0.7-0.8,1.2-1l0,0l0.6-0.1C169.2,145.8,169.6,145.9,169.9,146.1z M240.6,144.5
						c0.2,0,0.4,0.1,0.6,0.1c0.2,0.1,0.4,0.2,0.5,0.4c0.2,0.2,0.3,0.3,0.4,0.5c0.1,0.2,0.2,0.4,0.1,0.7c0,0.2,0,0.3-0.1,0.5
						c-0.1,0.3-0.2,0.5-0.4,0.8l0,0l-0.3,0.3c-0.3,0.2-0.6,0.2-0.9,0.2h-0.1c-0.2,0-0.4-0.1-0.6-0.1c-0.2-0.1-0.4-0.2-0.5-0.4
						c-0.2-0.2-0.3-0.3-0.4-0.5c-0.1-0.2-0.2-0.4-0.1-0.7c0-0.2,0-0.3,0.1-0.5c0.1-0.3,0.2-0.5,0.4-0.8l0,0l0.3-0.3
						C239.9,144.6,240.2,144.5,240.6,144.5L240.6,144.5L240.6,144.5z M256.2,144.7c0.2,0.3,0.3,0.6,0.3,1c0,0.3-0.1,0.7-0.3,1
						c-0.2,0.3-0.4,0.5-0.7,0.7c-0.2,0.1-0.4,0.2-0.6,0.3c-0.4,0.1-0.8,0.1-1.2,0c-0.5-0.1-1-0.3-1.2-0.8c-0.3-0.5-0.2-1,0-1.4
						c0-0.1,0.1-0.2,0.1-0.3c0.2-0.4,0.4-0.7,0.8-0.9c0.4-0.3,0.8-0.4,1.3-0.4C255.2,143.8,255.8,144.1,256.2,144.7z M277.8,144.4
						c0.3,0.2,0.5,0.4,0.6,0.6c0,0,0,0,0,0.1l0.1,0.1l-0.1-0.1l0,0c0.3,0.2,0.5,0.5,0.5,0.9c0.1,0.4,0,0.9-0.4,1.1
						c-0.3,0.2-0.6,0.4-0.9,0.5c-0.4,0.1-0.8,0.1-1.2,0c-0.6-0.1-1.1-0.7-1.2-1.2c-0.1-0.5,0-1.1,0.3-1.5c0.3-0.4,0.8-0.7,1.4-0.7
						C277.3,144.2,277.6,144.3,277.8,144.4z M147.6,138.2L147.6,138.2L147.6,138.2L147.6,138.2l0.3,0.4c0.1,0.2,0.2,0.4,0.2,0.6
						s0,0.3,0,0.5s-0.1,0.4-0.2,0.6c-0.2,0.2-0.4,0.5-0.6,0.6c-0.2,0.1-0.4,0.2-0.6,0.2c-0.2,0.1-0.5,0-0.7,0l0,0l0,0l0,0
						c-0.6-0.1-1.1-0.6-1.2-1.2c-0.1-0.5-0.1-0.9,0.2-1.3v-0.1c0.1-0.2,0.2-0.3,0.4-0.4c0.2-0.2,0.4-0.3,0.6-0.3
						c0.3-0.1,0.6-0.1,0.9,0C147.2,137.9,147.4,138,147.6,138.2z M168.2,130.9c-2.8,0-2.8-4.3,0-4.3
						C170.9,126.6,170.9,130.9,168.2,130.9z M270.1,126.2c0.2,0.1,0.3,0.1,0.5,0.3c0.2,0.1,0.3,0.2,0.4,0.4c0.1,0.1,0.2,0.3,0.3,0.5
						c0.1,0.3,0.2,0.5,0.2,0.8l-0.1,0.6l-0.1,0.3l0,0l-0.1,0.3l-0.3,0.4l-0.4,0.3c-0.2,0.1-0.3,0.1-0.5,0.2c-0.3,0.1-0.6,0.1-0.9,0
						c-0.2,0-0.4,0-0.6-0.1c-0.3-0.1-0.5-0.2-0.7-0.5l-0.1,0c-0.1-0.1-0.2-0.3-0.3-0.4c-0.1-0.2-0.2-0.3-0.2-0.5
						c-0.1-0.4-0.1-0.8,0-1.1c0.2-0.4,0.2-0.4,0.3-0.6l0.1-0.1c0.1-0.1,0.1-0.2,0.2-0.2l0,0l0.4-0.3c0.2-0.1,0.3-0.1,0.5-0.2
						c0.3-0.1,0.6-0.1,0.9,0C269.8,126.1,269.9,126.1,270.1,126.2z M132.6,123c0.3,0,0.5,0.1,0.8,0.2c0.2,0.1,0.4,0.3,0.5,0.4
						c0.1,0.2,0.2,0.4,0.3,0.6c0.1,0.3,0.1,0.6,0,0.9c0,0.1-0.1,0.2-0.1,0.2c0,0.1-0.1,0.2-0.1,0.2c-0.3,0.5-0.8,0.8-1.4,0.8
						c-0.3,0-0.6-0.1-0.8-0.2s-0.4-0.3-0.6-0.5l0,0c-0.1-0.1-0.2-0.3-0.2-0.5V125c-0.1-0.2-0.1-0.4,0-0.6c0-0.2,0.1-0.4,0.2-0.6
						c0.1-0.3,0.4-0.5,0.6-0.6c0.1,0,0.1-0.1,0.2-0.1C132.1,123,132.3,123,132.6,123L132.6,123z M250.3,121.3
						c0.2,0.2,0.4,0.5,0.5,0.8l0,0l0.1,0.2l0,0l0.1,0.4l0,0l-0.1,0.4l0,0l-0.2,0.4c-0.1,0.2-0.2,0.4-0.4,0.5
						c-0.1,0.1-0.2,0.2-0.4,0.2c-0.1,0.1-0.3,0.1-0.4,0.1c-0.1,0-0.3,0-0.4,0c-0.2,0-0.4-0.1-0.6-0.2l0,0l-0.2-0.1
						c-0.3-0.2-0.5-0.4-0.6-0.6c-0.2-0.3-0.2-0.6-0.2-0.9s0.1-0.6,0.2-0.9c0.1-0.2,0.3-0.4,0.5-0.5c0.2-0.2,0.4-0.3,0.6-0.3h0.1
						c0.3-0.1,0.6-0.1,0.9,0C249.8,121,250.1,121.1,250.3,121.3z M145.3,117.6c0.2,0.1,0.3,0.2,0.5,0.4c0.2,0.2,0.4,0.5,0.5,0.7
						c0.1,0.2,0.2,0.4,0.2,0.6c0.1,0.2,0.1,0.4,0,0.6c0,0.3-0.1,0.6-0.3,0.9c-0.1,0.2-0.2,0.3-0.4,0.5c-0.2,0.1-0.3,0.2-0.5,0.4
						c-0.2,0.1-0.4,0.2-0.5,0.2c-0.3,0.1-0.6,0.1-0.9,0c-0.1,0-0.2,0-0.3,0l0,0l0,0l0,0h-0.1c-0.3-0.1-0.5-0.2-0.7-0.4
						c-0.2-0.1-0.3-0.2-0.4-0.4c-0.2-0.2-0.3-0.5-0.4-0.8c-0.1-0.4-0.1-0.9,0-1.2l0,0l0.2-0.6c0.1-0.3,0.3-0.5,0.6-0.6
						c0.1-0.1,0.3-0.2,0.5-0.3c0.2-0.1,0.4-0.2,0.6-0.2c0.3-0.1,0.6-0.1,0.9,0C144.9,117.4,145.1,117.5,145.3,117.6z M279.5,109.8
						L279.5,109.8c0.3,0.1,0.6,0.3,0.8,0.5c0.2,0.2,0.4,0.5,0.5,0.8l0,0l0,0l0.1,0.5c0,0.1,0,0.3,0,0.4s0,0.1,0,0.2
						c0,0.5-0.3,1-0.8,1.3c-0.1,0.1-0.3,0.2-0.5,0.2c-0.6,0.1-1.3,0-1.7-0.5c-0.3-0.3-0.4-0.6-0.6-0.9c-0.1-0.3-0.1-0.8,0-1.2
						c0.1-0.2,0.2-0.4,0.3-0.6s0.3-0.4,0.5-0.5l0,0l0.4-0.2C278.8,109.7,279.2,109.7,279.5,109.8L279.5,109.8z M121.9,63.8
						c1.8-0.1,2.4-3.5,4.3-2.7c1.2,0.7,2.5,1,3.8,1.2s1,2.4-0.3,2.3c-1.3-0.1-2.6-0.5-3.8-1c-0.2,0.2-0.4,0.4-0.6,0.6
						c2.1,1.8,5.8,7,0.8,7.3c1.4,1,0.9,3.5-0.5,4.2c6.4,2.8,2,4.3-0.8,0.3c-1.1,0.2-2.3,0-3.3-0.5c0.8,4.6-5.8,2.7-8.6,1.8l-0.3-0.1
						c-1.1,3-4.7,1.8-0.6-0.2c-0.9-0.5-3.5-0.3-2.9-1.8c1.5-1,4.2,0.9,5.9,1.1c1.6,0.4,5.9,1.7,5.5-1.2c-3.8-2.1-7.5-4.9-12-5
						c-1,0-1-1.5,0-1.5c3.5,0,6.5,1.5,9.5,3.1l0.7,0.4c2.1,1.4,7.8,4.4,7-0.6c-3.6,0-5.5-3.3-8.5-4.7c-2.2-1.5-5.2-1.4-7.1-3.2
						c-0.2-2.1,4.7,0.3,5.8,0.7h0.1c3.1,1.1,5.3,3.4,7.9,5.1c5.4,2.2,2.9-2.5,0.7-4.6c-4.1,3.7-8.6-0.8-6.8-5.4
						c-1.6-0.4-3.1-1.7-4.9-1.8c-1.2,0-2.6-0.3-3.8,0.2c-5.9,2.7-0.9,4.3-1.9,6.7c-0.4,0.7-1.2,0.7-1.6,1.2
						c-0.7,1.3,0.9,3.2-0.7,4.2c-1.6,1-1.2,5.3,1.1,4.9c0.7-0.2,1,0.8,0.4,1c2.6,6.9,8,4.5,12,8.8c1.9,2.5,2.2,5.5,2.8,8.5l0.1,0.3
						c1.4,6.6,2.7,13.2,3,19.9c6.7-2.5,11.6-8,15.2-13.9c-3.7-7.9-5.5-17-4.9-25.7c0.4-3.7,0.7-7.5,0.2-11.2
						c-0.1-1.2,0.1-3.1-0.5-4.1c-1-1.4-2.9-2.2-4.5-2.9l-0.5-0.2c-6.6-2.8-8.8,2.3-9.4,7C120.3,63.2,120.9,64,121.9,63.8z
						 M163.5,106.3L163.5,106.3c0.2,0.2,0.3,0.3,0.3,0.5c0.1,0.2,0.1,0.4,0.1,0.6c0,0.4-0.2,0.9-0.5,1.1c-0.3,0.3-0.7,0.5-1.1,0.5
						c-0.4,0-0.9-0.2-1.1-0.5c-0.2-0.1-0.3-0.3-0.3-0.5c-0.2-0.1-0.2-0.3-0.2-0.5c0-0.4,0.2-0.9,0.5-1.1c0.3-0.3,0.7-0.5,1.1-0.5
						C162.7,105.9,163.2,106,163.5,106.3z M149.7,96c0.3,0.1,0.5,0.2,0.7,0.4l0.1,0.1c0.2,0.2,0.4,0.5,0.5,0.9
						c0.1,0.4,0.1,0.7,0,1.1c0,0.2-0.1,0.4-0.2,0.6c-0.2,0.3-0.4,0.5-0.7,0.7c-0.3,0.2-0.7,0.3-1,0.3c-0.4,0-0.7-0.1-1-0.3
						c-0.3-0.2-0.5-0.4-0.7-0.7c-0.1-0.2-0.2-0.4-0.2-0.6c-0.1-0.4-0.1-0.7,0-1.1c0.1-0.3,0.3-0.7,0.5-0.9c0.1-0.1,0.3-0.2,0.4-0.3
						c0.3-0.2,0.7-0.3,1-0.3h0.1C149.3,95.8,149.5,95.9,149.7,96z M251.3,96.2L251.3,96.2L251.3,96.2c0.2,0.1,0.3,0.2,0.4,0.3
						c0.1,0.1,0.2,0.2,0.3,0.4l0.2,0.4v0.1c0.1,0.2,0.1,0.4,0,0.6c0,0.1,0,0.3-0.1,0.4c0,0.1-0.1,0.2-0.1,0.2l0,0v0.1
						c-0.1,0.2-0.3,0.4-0.5,0.5c-0.1,0.1-0.2,0.2-0.4,0.2c-0.1,0-0.2,0.1-0.2,0.1h-0.1l0,0h-0.1c-0.1,0-0.1,0-0.2,0
						c-0.1,0-0.1,0-0.2,0l0,0l-0.5-0.1c-0.2-0.1-0.4-0.2-0.6-0.3c-0.1-0.1-0.2-0.2-0.3-0.3c-0.1-0.1-0.2-0.2-0.2-0.4
						c-0.1-0.1-0.1-0.3-0.1-0.4c-0.1-0.2,0-0.5,0-0.7c0.2-0.4,0.2-0.5,0.4-0.7l0.1-0.1c0.1-0.1,0.2-0.2,0.4-0.3
						c0.2-0.1,0.4-0.2,0.7-0.2c0.2,0,0.3,0,0.5,0C250.8,96,251.1,96,251.3,96.2z M276.1,92.9L276.1,92.9c0.3,1.3-0.8,2.3-1.9,2l0,0
						h-0.1c-1.2-0.3-1.6-1.9-0.7-2.7C274.2,91.3,275.8,91.7,276.1,92.9L276.1,92.9z M124.1,87.8c-0.4-0.2-0.4-0.7,0-0.9
						c1.3-0.5,2.6-0.4,3.8-1.1c1.2-0.7,1.9-1.8,2.9-2.7c0.1-0.1,0.2,0,0.2,0.1C130.9,85.7,126.6,88.6,124.1,87.8z M246.7,83.2
						L246.7,83.2l0.4,0.3c0.2,0.3,0.4,0.5,0.5,0.9l0,0l0,0l0,0l0.1,0.5l0,0l-0.1,0.5c-0.1,0.2-0.1,0.3-0.2,0.5
						c-0.1,0.2-0.3,0.4-0.5,0.6c-0.1,0.1-0.3,0.2-0.5,0.3c-0.2,0.1-0.3,0.1-0.5,0.1c-0.2,0.1-0.4,0.1-0.5,0c-0.3,0-0.5-0.1-0.8-0.2
						c-0.4-0.3-0.4-0.3-0.5-0.5l-0.2-0.3c-0.1-0.2-0.1-0.3-0.2-0.5l0,0l-0.1-0.5l0,0l0.1-0.5c0.1-0.3,0.2-0.5,0.4-0.7
						c0.1-0.2,0.2-0.3,0.4-0.4c0.1-0.1,0.3-0.2,0.5-0.3c0.2-0.1,0.3-0.1,0.5-0.1c0.3-0.1,0.5,0,0.8,0
						C246.4,83,246.6,83.1,246.7,83.2z M148.8,84.6c0,0.1,0,0.2,0,0.2c0,0.1,0,0.2,0,0.2l0,0c0,0.2,0,0.4-0.1,0.6
						c-0.1,0.2-0.2,0.4-0.3,0.5l0,0l-0.3,0.3c-0.3,0.1-0.5,0.2-0.8,0.2c-0.2,0-0.3,0-0.5-0.1c-0.6-0.2-1-0.6-1.2-1.2s0-1.2,0.4-1.7
						c0.4-0.4,1.1-0.6,1.7-0.4C148.2,83.5,148.6,84,148.8,84.6z M274.5,77.8c0.1,0,0.1,0.1,0.2,0.1l0,0l0,0l0,0
						c0.2,0.1,0.3,0.2,0.4,0.3c0.1,0.1,0.2,0.3,0.2,0.5c0,0.1,0,0.3,0,0.4l0,0c0,0.1,0,0.2,0,0.3l0,0l-0.1,0.3
						c-0.1,0.2-0.2,0.3-0.4,0.4c-0.2,0.1-0.4,0.2-0.6,0.2c-0.2,0-0.4,0-0.6,0l0,0h-0.1c-0.2-0.1-0.4-0.2-0.6-0.4
						c-0.1-0.1-0.1-0.2-0.2-0.3c-0.1-0.2-0.2-0.4-0.2-0.7c0-0.2,0-0.4,0.1-0.5c0.1-0.2,0.1-0.3,0.3-0.4c0.1-0.1,0.3-0.2,0.4-0.3
						c0.2-0.1,0.3-0.1,0.5-0.1S274.2,77.7,274.5,77.8z M165.6,76.4c0.6,0.3,0.9,1,0.9,1.6c0,0.7-0.4,1.3-0.9,1.6
						c-0.3,0.2-0.6,0.3-0.9,0.3c-0.3,0-0.7-0.1-0.9-0.3l0,0c-0.3-0.2-0.5-0.4-0.7-0.7c-0.2-0.3-0.3-0.6-0.3-0.9s0.1-0.6,0.3-0.9
						c0.2-0.3,0.4-0.5,0.7-0.7l0,0c0.3-0.2,0.6-0.3,0.9-0.3S165.3,76.2,165.6,76.4z M253.5,74.2c0.3,0.3,0.5,0.7,0.5,1.1
						c0,0.1,0,0.3-0.1,0.4c-0.1,0.3-0.2,0.5-0.4,0.7l0,0l-0.3,0.3l-0.1,0.1c-0.3,0.4-0.8,0.5-1.2,0.5c-0.2,0-0.4,0-0.6-0.1
						c-0.2-0.1-0.4-0.2-0.5-0.3c-0.3-0.3-0.5-0.7-0.5-1.2c0-0.2,0-0.3,0.1-0.5c0.1-0.3,0.2-0.5,0.4-0.7l0,0l0.1-0.1l0,0l0.3-0.3
						c0.1-0.2,0.3-0.3,0.5-0.3c0.2-0.1,0.4-0.2,0.6-0.1h0.1C252.8,73.7,253.2,73.9,253.5,74.2z M263.1,72.7c-2.2,0-2.2-3.4,0-3.4
						S265.3,72.7,263.1,72.7z M153.3,64.7c0.2,0.1,0.5,0.2,0.7,0.4c0.2,0.2,0.3,0.4,0.4,0.7c0.1,0.2,0.2,0.5,0.2,0.8l-0.1,0.5v0.1
						c-0.1,0.3-0.3,0.6-0.5,0.8c-0.1,0.1-0.3,0.2-0.4,0.3c-0.3,0.2-0.7,0.3-1,0.3s-0.5,0-0.8-0.2c-0.3-0.1-0.5-0.2-0.7-0.4
						c-0.2-0.2-0.3-0.4-0.4-0.7c-0.1-0.2-0.2-0.5-0.2-0.8c0-0.2,0-0.4,0.1-0.5c0.1-0.3,0.3-0.6,0.5-0.9l0,0l0.4-0.3
						c0.3-0.2,0.7-0.3,1-0.3h0.1C152.9,64.5,153.1,64.5,153.3,64.7z M163.5,58.5c0.1,0,0.1,0.1,0.2,0.1c0.1,0.1,0.2,0.2,0.3,0.4
						c0.1,0.1,0.1,0.3,0.1,0.5c0,0.3-0.1,0.6-0.4,0.9c-0.1,0-0.1,0.1-0.2,0.1c-0.3,0.2-0.6,0.4-1,0.4l0,0l-0.4-0.1
						c-0.2-0.1-0.5-0.2-0.6-0.4c-0.3-0.2-0.4-0.7-0.4-1s0.2-0.8,0.4-1c0.1-0.1,0.3-0.2,0.5-0.3s0.4-0.1,0.5-0.1
						C162.9,58.1,163.2,58.2,163.5,58.5z M112.8,55.6c2.1,0.1,4.2,0.7,5.8,1.9c0.8-1.6,1.9-3,3.4-3.9c-3.5-1.7-7.1-3.2-10.5-5
						c-3.2-1.6-6.5-3.9-10.1-4.4c-2.1-0.4-2.9,0.8-1.5,2.5C102.9,51.2,109.1,52.1,112.8,55.6z M264.4,52.4c0.4,0.1,0.7,0.3,1,0.6
						c0.1,0.1,0.2,0.2,0.2,0.3c0.2,0.2,0.3,0.5,0.4,0.8c0,0.2,0.1,0.4,0.1,0.6c0,0,0,0,0,0.1v0.1c0,0.3-0.1,0.5-0.2,0.8
						s-0.2,0.5-0.5,0.7l0,0l-0.4,0.3c-0.3,0.2-0.7,0.3-1.1,0.3c-0.2,0-0.5,0-0.7-0.1c-0.2-0.1-0.4-0.2-0.5-0.2
						c-0.2-0.1-0.4-0.2-0.5-0.4c-0.2-0.2-0.4-0.4-0.5-0.7s-0.2-0.6-0.2-0.9c0-0.3,0.1-0.6,0.2-0.9c0.1-0.3,0.2-0.5,0.5-0.7l0.5-0.4
						h0.1c0.3-0.2,0.7-0.3,1.1-0.3C264,52.4,264.2,52.4,264.4,52.4z M165.8,46.7c0.2,0,0.4,0,0.5,0.1c0.2,0.1,0.4,0.2,0.5,0.3
						c0.2,0.1,0.3,0.3,0.3,0.5c0.1,0.2,0.1,0.4,0.1,0.6v0.5v0.1c-0.1,0.2-0.2,0.4-0.4,0.6c-0.1,0.1-0.2,0.2-0.3,0.2
						c-0.2,0.1-0.5,0.2-0.8,0.2c-0.2,0-0.4,0-0.6-0.1s-0.4-0.2-0.5-0.3c-0.2-0.1-0.3-0.3-0.3-0.5c-0.1-0.2-0.1-0.4-0.1-0.6l0,0
						l0.1-0.4c0.1-0.3,0.2-0.5,0.4-0.7c0.1-0.1,0.2-0.2,0.3-0.2C165.2,46.8,165.4,46.7,165.8,46.7L165.8,46.7L165.8,46.7z
						 M252.3,44.7c0.3,0.1,0.5,0.3,0.7,0.5s0.4,0.5,0.5,0.7c0.1,0.3,0.2,0.6,0.2,0.9l0,0l-0.1,0.6c-0.1,0.4-0.3,0.7-0.6,1
						c-0.2,0.1-0.3,0.2-0.5,0.4c-0.4,0.2-0.8,0.3-1.2,0.3c-0.3,0-0.6-0.1-0.9-0.2c-0.3-0.1-0.5-0.3-0.7-0.5s-0.4-0.5-0.5-0.8
						S249,47,249,46.7l0,0l0.1-0.6c0.1-0.4,0.3-0.7,0.6-1c0.2-0.1,0.3-0.2,0.5-0.4c0.4-0.2,0.8-0.3,1.2-0.3h0.1
						C251.8,44.5,252,44.5,252.3,44.7z M174,38.9C174.1,38.9,174.1,38.9,174,38.9c0.7,0.4,1.1,1.1,1.1,1.9c0,0.7-0.4,1.5-1.1,1.8
						h-0.1c-0.2,0.1-0.3,0.1-0.5,0.2c-0.3,0.1-0.6,0.1-0.9,0c-0.2,0-0.4,0-0.5-0.1c-0.3-0.1-0.5-0.2-0.7-0.4l-0.1-0.1
						c-0.2-0.2-0.3-0.4-0.4-0.6c-0.1-0.3-0.2-0.5-0.2-0.8l0,0l0.1-0.6c0.1-0.4,0.3-0.7,0.5-0.9l0,0l0,0l0.4-0.3
						c0.2-0.2,0.5-0.2,0.8-0.3c0.2-0.1,0.4-0.1,0.6,0C173.5,38.7,173.8,38.7,174,38.9z"/>
				</g>
				<g id="head_x2F_Shaved-3" transform="translate(78.591549, 38.043053)">
					<path id="_xD83C__xDFA8_-Background_1_" class="st0" d="M116.6,45.3c0.8,2.2,1.8,4.5,1.9,6.8c0.1,2.6-0.4,5.3-0.6,7.9
						c-0.9,12.8,0.4,25.7,4,37.9c-0.1,0.2-0.1,0.5,0,0.8c0.8,2.7,1.8,5.4,3,7.9c1.8,4.4,4.1,8.5,7.8,11.6l0,0
						c0.8,0.9,2.1,0.6,2.5-0.4c2,0.8,4,1.6,6,2.4c0.8,0.3,1.5-0.4,1.6-1.2c16.2,2.2,22.4-4.5,33.5-14.3c1.7-1.3,3.4-2.5,5.4-3.3
						c3.9-1.6,8.6-2.4,10.9-6.3c1.3-2.2,1.4-4.8,1-7.2c-1-4.7-3-9.2-3-14c-0.9-13.9,9.4-30.8-1.4-42.2c-1.2-0.9-8.8-5.1-10.4-6.4
						c-1-0.7-39.8-4.1-51.1-0.8C118.7,27.4,112.6,35.9,116.6,45.3z"/>
					<path id="_xD83D__xDD8D_-Ink_1_" class="st1" d="M130.2,11.8c2.2,1.3,4.4,2.4,6.7,3.4c3.3,0.6,6.7,1,10.1,0.6
						c2.4-0.3,4.7-1,6.8-2.3c2.1-1.3,4-2.8,6.4-3.2c4.5-0.8,9,1.6,12.4,4.3c0.8,0.7,1.6,1.4,2.4,2.2c-0.2-0.7-0.4-1.4-0.6-2.1
						c-0.2-1,0.8-1.7,1.6-1.3c3.4,1.5,4.6,5.7,4.8,9.1v0.1c0.1,0.9,0.1,2-0.2,3c5.5-0.5,6.7,1.1,10.8,4.5l0.5,0.4
						c2.3,1.9,4.2,4.3,5.5,7l0,0l0,0c0.3-0.3,0.5-0.7,0.8-0.9c1-0.9,2.5,0.6,1.5,1.5l0,0.2c-0.2,0.2-0.3,0.3-0.5,0.5
						c2-1.1,4.6-1.7,6.4,0.2c0.5,0.6,0.6,1.7-0.3,2.1c-0.9,0.4-1.8,0.7-2.8,0.8h-0.2c-0.4,0-0.7,0.1-1.1,0.2c1.8,1,3.4,2.4,4.6,4
						c1.3,0.8,2.6,1.9,2.7,3.5c0,1.6-1.4,2.4-2.8,2.6c-1.5,0.2-3,0.2-4.5,0.2c0.9,0.9,1.7,2,2.3,3.1c0.2,0.4,0.4,0.8,0.6,1.3
						c0.4,0.9-0.6,2-1.5,1.9c-0.4,0-0.8-0.1-1.2-0.1c0.2,0.5,0.4,1.1,0.6,1.6c0.7,3.2-0.5,6.4-2,9.3l-0.2,0.4
						c-2.2,4.3-1.5,9.1-6.4,10.2c0,0.1,0.1,0.1,0.1,0.2c0.8,1.1,1.2,2.3,1.5,3.6c0.7,0.9,1.5,1.7,2.4,2.4c0.8,0.7,1.8,1.4,2.8,1.8
						c0.8,0.4,1.7,0.1,2.8,0.5c0.6,0.2,1.1,0.6,1.3,1.3c0.5,2.7-2.2,3.8-4.4,3.2c-0.2,0-0.3-0.1-0.5-0.1c1.2,2.5,2.4,5.1,3.7,7.6
						c0.5,1.1-0.6,2.5-1.6,2.2c-0.1,0-0.2,0-0.4-0.1c-0.7-0.3-2.8-1.2-3,0.1c-0.1,0.3,0.2,0.7,0.2,1.1c0,0.3-0.1,0.6-0.3,0.8l0,0
						l0,0c0.8,0.9,0.4,2.4-0.8,2.8c-2.1,0.6-4.3,0.4-6.2-0.4c-1,2.1-3.5,3.4-6,2.7c-1.1-0.3-2-0.9-2.7-1.6c-1.6,1.5-4.1,1.8-6.2,1.7
						h-0.2c-0.9,0-1.9-0.8-2-1.7c-0.4,0.5-0.8,1-1.2,1.5l-0.8,1l0,0l-0.8,1.1c-0.5,0.7-1,1.4-1.9,1.7c-0.6,0.2-1.3-0.3-1.3-1
						c0.1-0.9,0.5-1.4,1-2l0.2-0.2c0.6-0.6,1.1-1.3,1.7-1.9l0.5-0.6c1-1.2,2.1-2.4,3.1-3.5c0.9-1,1.8-1.9,2.6-2.9
						c0.5-0.8,1-1.5,1.6-2.3c0.3-0.4,0.6-0.6,1-0.6c0.2-0.2,0.4-0.5,0.6-0.7c0.1-0.1,0.3-0.2,0.5-0.3l0,0l0,0
						c0.3-0.3,0.5-0.5,0.8-0.7c-0.1-1.1,0.9-1.9,2.1-1.6c1.1,0.3,1.8,0.8,3,0.7c1.1-0.1,2.1-0.7,2.9-1.5c1.8-1.8,2.3-4.6,2.3-7.1
						v-0.2c0-0.8-0.1-1.6-0.2-2.4c-0.4-2-1.4-3.7-3.5-4.5c-1.4-0.5-2.8-0.5-4.2-0.2c-1.5,0.3-3.1,0.6-4.6,1.1
						c-0.2,0.1-0.3-0.2-0.1-0.3c2.2-1.6,3.8-3,6.5-3.4c1-0.1-1.2-16.6-3.6-22.1c-1.8-4.3-6.2-9-8.4-10.5l0-0.2
						c-1.1-0.8-2-1.8-2.8-2.9c-0.8-1.3-1.6-2.8-3.2-3.2c-7.6-1.9-25.7,3-30,3.6c-2,0.3-4,0.3-6,0.1c-0.7-0.1-1.4-0.2-2.1-0.3
						c-1-0.6-1.9-1.3-2.8-2.1c-1.7-1.2-3.4-2.5-4.6-4.1c-0.3,0.2-0.5,0.6-0.2,1.1c1.6,2.6,3.8,4.6,6.3,6.2c-0.9,0.9-1.8,1.7-2.8,2.5
						c-0.7,0.9-1.3,1.9-1.8,2.9c-0.6,1.7-1.3,3.4-2.1,4.9c-0.1,0.2-0.2,0.4-0.4,0.5c-0.8,2.3-1.5,4.7-1.9,7.1
						c-1.4,7.5-1,15.2,0.4,22.7c0.7,4,1.7,8,2.7,11.9c0.8,3.1,1.7,6.1,2.8,9c1.9,5,5,10.3,10.2,12.5c3.7,1.6,8,1.3,11.9,0.6
						c4.1-0.8,8.1-2.3,11.7-4.5c2.5-1.5,4.8,2.4,2.3,3.9c-6.9,4.1-15.8,6.6-23.9,5c-6.8-1.3-11.6-6.7-14.4-12.8
						c-3.3-6.7-4.9-14.2-6.3-21.5v-0.3c-1.5-8.1-2.4-16.7-0.7-24.9c0.2-1.1,0.5-2.1,0.8-3.2l0,0h-0.1c-1.2,0.4-2.5-0.4-3-1.4
						c-1.4-1.1-2.5-2.5-3.2-4.1c-0.6-1.4-0.9-3-0.9-4.6c-0.3-0.6-0.7-1.1-1-1.6c-3-2-5.3-4.9-6.1-8.5c-0.5-2.8,0.2-6.1,3.2-7.2
						c1.9-0.7,3.9-0.1,5.7,0.8c-1.1-3.4-2.1-6.9-2.8-10.4c-0.1-0.6,0.2-1.1,0.7-1.3c0-0.3,0-0.7,0.1-1c0.1-1.3,1.7-1.8,2.4-0.7
						s1.4,2.1,2.2,3.1c-0.1-0.5-0.2-1-0.3-1.6c-0.7-3.5-0.7-7.2,0-10.8c0.4-1.8,3-2.5,4.2-1.1c0.4,0.5,0.9,1,1.3,1.5
						c0.3-1.5,1.1-2.7,2.6-3.1c1.8-0.5,3.1,0.8,4.4,1.9l0.1,0.1C127.5,10.1,128.8,11,130.2,11.8z M188.1,85.1c0.1,0.1,0,0.2-0.1,0.2
						c-0.8-0.1-1.8,0.6-2.4,1.2l-0.1,0.2c-0.7,0.7-0.9,1.6-1.4,2.3c-0.5,0.7-1.3,1.2-2.3,0.9c-0.8-0.2-1.5-1.1-1.5-2
						c0.1-2,1.8-3.5,3.7-4c0.7-0.2,1.5-0.2,2.2,0C187,84.2,187.5,84.7,188.1,85.1z M176.4,78.7c-0.5,0.3-1.3-0.3-0.9-0.9
						c0.5-0.7,0.9-1.6,0.5-2.5l0,0c-0.2-0.4,0.3-0.7,0.6-0.4C177.8,75.8,177.9,77.9,176.4,78.7z M171.3,59.8
						c0.5,3.2,1.7,6.2,2.3,9.4c0.2,0.8-0.8,1.2-1.3,0.5c-2-2.7-2.6-6.3-2.8-9.6v-0.3c-0.2-3.5,0.1-6.4,1.3-9.6
						c0.1-0.2,0.3-0.1,0.3,0.1C170.6,53.7,170.8,56.5,171.3,59.8z M181,62.5L181,62.5c-0.1-0.2-0.3-0.3-0.5-0.4
						c-0.3-0.1-0.5,0.1-0.7,0c-0.3-0.1-0.5-0.5-0.3-0.8c0.7-0.9,2,0,2.2,0.9C181.7,62.6,181.2,62.9,181,62.5z M182,55.5
						c-0.6-0.4-1.2-0.4-1.9-0.4h-0.2c-0.4,0-0.5-0.5-0.2-0.7c0.9-0.6,2.1,0,2.5,0.9C182.2,55.4,182.1,55.6,182,55.5z M180.1,31.2
						c1.2,0.1,2.5,0.2,3.7,0.5c1.5,0.3,3.1,0.7,4.5,1.3c0-0.2-0.1-0.3-0.3-0.5c-2.2-1.7-4.9-2.8-7.6-1.6
						C180.3,31,180.2,31.1,180.1,31.2z"/>
				</g>
				<g id="face_x2F_Smiling" transform="translate(112.183099, 77.354207)">
					<path id="_xD83D__xDD8D_-Ink_2_" class="st1" d="M108.9,64.6c-1.4,0.6-2.9,0.8-4.4,0.5c-1.4-0.2-2.8-1-3.9-2
						c-1-0.9-1.7-2.1-1.8-3.4c0-0.2,0-0.4,0.1-0.5c0.1-0.2,0.3-0.3,0.4-0.3c0.2-0.1,0.4-0.1,0.5,0c0.2,0.1,0.3,0.2,0.4,0.3
						c0.2,0.2,0.3,0.3,0.5,0.5c1.3,1.3,2.5,2.2,4.2,2.4c0.9,0.1,1.8-0.1,2.6-0.5c0.8-0.4,1.5-1,2.1-1.8l0.1-0.1
						c0.3-0.5,0.7-0.7,1.1-0.7c0.5-0.1,0.9,0.1,1.3,0.4c0.4,0.3,0.7,0.7,0.7,1.2c0.1,0.4,0,0.9-0.3,1.3
						C111.6,63.1,110.3,64,108.9,64.6L108.9,64.6z M103,43.1c-8.1,1.4-3.9,15.4,6.4,7.7c1.2-1-0.3-3.2-1.6-2.3
						c-1.4,1.1-4.3,3.5-6.4,1.4c-1.7-2.4,0.7-4.7,2.3-5.6C104.2,43.9,103.9,42.9,103,43.1z M122.5,39.6c-0.2,1.5-2.3,2.3-3.1,0.6
						c-0.9-1.7-1.2-3.5-0.9-5.5c0.3-2.2,3.7-1.7,3.8,0.5C122.4,36.7,122.7,37.6,122.5,39.6z M97.1,34.5c1.5,1.3,0.9,4-0.2,5.4
						c-0.7,0.8-2.2,0.6-2.7-0.4c-0.9-1.7-1.6-5.3,0.9-6c0.8-0.2,1.5,0.2,1.9,0.8C97,34.4,97.1,34.5,97.1,34.5z M123.2,27
						c2.2,1.1,4.3,2.9,5.5,5.1c0.1,0.2-0.1,0.6-0.4,0.4c-1.9-1.3-3.8-2.5-6.1-3.1c-1-0.3-2.1-0.5-3.1-0.5c-1.4-0.2-2.6,0.2-3.7-0.7
						c-0.6-0.5-0.5-1.5,0-2c0.9-1,2.4-0.8,3.6-0.6l0.4,0.1C120.7,25.9,122,26.4,123.2,27z M100.3,24.8c0.3,0.1,0.6,0.3,0.8,0.7
						c0.3,0.4,0.3,0.8,0.2,1.2s-0.3,0.6-0.5,0.8c-0.3,0.2-0.6,0.3-1,0.4c-1.6,0.2-3.3,0.6-4.8,1.1c-0.7,0.2-1.4,0.6-2.1,0.9
						l-0.6,0.3c-0.5,0.3-1.1,0.5-1.8,0.7c-0.1,0-0.1,0-0.2,0c-0.2-0.1-0.2-0.1-0.3-0.2l0,0c-0.1-0.1-0.1-0.2-0.1-0.6
						c1.6-3.2,5.9-4.6,9.2-5.3l0.3-0.1C99.6,24.7,100,24.7,100.3,24.8z"/>
				</g>
				<g id="facial-hair_x2F__x2A_-None" transform="translate(104.577451, 109.479380)">
				</g>
				<g id="accessories_x2F__x2A_-None" transform="translate(88.521127, 88.978474)">
				</g>
			</g>
		</g>
	</g>
</g>
<g id="Introduction_1_">
	<g id="variations_1_" transform="translate(-2046.000000, -758.000000)">
		<g id="images_1_" transform="translate(126.000000, 110.000000)">
			<g id="a-person_x2F_bust_1_" transform="translate(1920.000000, 648.000000)">
				<g id="body_x2F_Coffee" transform="translate(31.056338, 135.052838)">
					<path id="_xD83C__xDFA8_-Background_3_" class="st0" d="M393.2,18.1v0.1c0.3,1.7,1.4,3.5,1.6,5.7c1.7-1,3.2-2.4,4.4-2.4
						c3.5,0,4.9,4.9,8.2,7.6c2.9,1.8,6.7,2,10,2.4h0.3c11.5,1.6,21.5,8.9,28.3,18.1c15.8,22.5,17.2,51.6,21.3,78
						c0.7,7.7,2.9,18.4-4.5,23.4c0.3,0.1,2.2-0.2,1.6,0.4c-8.1,2.4-16.6,1.9-24.7-0.2c0.3,2.2,0.6,4.4,1,6.6
						c0.2,1.1-0.4,2.2-1.7,2.2c-34.1-0.2-68.3-1.1-102.4-1.5h-0.9c-6.8-0.1-13.6-0.1-20.3,0.1c-2.4,0.1-4.9,0.4-7.3,0.6
						c-1.9,0.1-3.1-2.2-2.1-3.7c0.4-0.9,0.8-1.6,1.3-2.4c-4.1-24.1,5.3-47.5,9.5-70.9c3.1-23.1,7.1-43.4,33.2-47.6
						c0.6-1.4,0.6-4.4,1.5-5.5c0.7-2.2,4.7-3.9,7.1-2.7c2.6-5.7,3.2-11.9,8.7-15.8c5.6-3.8,18.7-2,23.9,1.9
						C393.3,14.4,392.9,16.2,393.2,18.1z M334.3,99.5l0.2,3c1,1.9,2.9,8,4.5,10.4c3.1,4.5,12.2,6.6,17.5,4.6
						c2.5-0.8,6.4-2.1,7.6-4.6c1.9-4.4-2.6-8.9-3.5-13.4c-0.2-1.3,1.2-2.8,1.3-4.1c0-1-0.3-2.8,0-3.8c0.8-3,2.9-5.2,2.2-8.3
						c1.2,0.4,1.9-0.8,0.9-1.1c-0.5-0.1-1-0.1-1.5-0.2c-0.5-0.8-0.9-0.9-1.9-1.5c-0.4-0.3-19.4-2.8-26.7,2.2
						C333.3,84,333.8,92,334.3,99.5z"/>
					<path id="_xD83D__xDD8D_-Ink_6_" class="st1" d="M407.1,26.5c0.7,0.5,1.1,1.5,0.6,2.2c3.3,1.4,7,1.7,10.5,2.2s6.9,1.2,10.2,2.4
						c3.3,1.1,6.5,2.6,9.4,4.7c3,2.2,5.3,5,7.5,8c4.5,6.4,7.7,13.5,10.5,20.7l0.3,0.7c3,7.9,5.5,16.1,7.4,24.3c1.1,4.6,2,9.3,2.8,14
						c0.4,2.3,0.7,4.7,1,7c0.3,2.4,0.8,4.9,0.5,7.3c-0.1,0.5-0.3,0.9-0.6,1.2c0.6,2.5,1,5.1,1.4,7.7c0.5,3.8,0.7,7.7,0.6,11.5
						c-0.1,3.1-0.3,6.3-1.8,9.1s-4.4,4.6-7.4,5.4c-6.9,1.9-13.9-0.4-20.2-3.2l-0.6-0.3l0,0l-0.4-0.2c0.6,1.7,0.8,3.4,1.4,5.1
						c0.2,0.7-0.2,1.5-0.8,1.9h-0.1h-0.1c-0.4,0.2-1,0.2-1.5,0l0,0h-0.1c-0.1,0-0.1-0.1-0.2-0.1l0,0l0,0l0,0l0,0l0,0
						c-0.5-0.4-0.6-1-0.5-1.6v-0.3c0.3-1.8,0.1-3.6,0.5-5.4c-6-2.7-11.9-5.7-17.6-8.8c-3.6-2-7.1-4-10.6-6.2
						c-1.7-1.1-3.4-2.2-5.1-3.3l-0.1-0.1c-1.7-1.1-3.6-2.1-4.7-3.9c-0.4-0.6-0.2-1.3,0.2-1.7c-0.3-0.3-0.5-0.7-0.6-1.1
						c-2.5-1.5-5.5-2.3-8.4-2.9l-0.3-0.1c-3.8-0.8-7.7-1.5-11.3-3c-1.7-0.8-3.4-1.7-4.8-3c-1.6-1.4-2.7-3.2-4.3-4.6
						c-0.7-0.7-1.5-1.3-2.4-1.6c-0.2-0.1-0.4-0.2-0.7-0.2c-0.5,1.8-1.1,3.6-2.2,5.1c-1.3,1.7-3.2,2.7-5.3,3
						c-2.4,0.4-4.9,0.4-7.3,0.5c-2.5,0.1-5.2,0.5-7.7-0.2c-4.1-1.1-6.7-5.6-8.4-9.2l-0.1-0.2c-1.8-3.9-2.7-8.1-3.1-12.4
						c-0.4-5,0-9.9,0.9-14.8c0.1-0.3,0.4-0.6,0.7-0.7c8.3-2.5,17.7-3.5,26.2-1.4c-0.1-0.4,0-0.8,0.1-1.1c0.4-0.9,1.4-1.2,2.3-1.5
						h0.1c1.2-0.4,2.4-0.8,3.6-1.2c2-0.6,4-1.3,6-0.1c0.9,0.5,1.6,1.3,2.3,2.1c0.4,0.5,0.8,0.9,1.2,1.4c0.1,0.1,0.2,0.4,0.4,0.7
						l0.3,0.6l0,0c0.2-0.1,0.3,0,0.5,0.1c0.1,0.1,0.1,0.2,0.1,0.3c3.3,0.9,6.5,2.4,9.1,4.8c3.1,2.9,5.1,6.9,7.5,10.4
						c1.3,1.9,2.7,3.8,4.4,5.4c0.8,0.8,1.8,1.4,2.7,1.8c0,0,0,0,0.1-0.1c0.8-0.7,2-1.1,2.9-0.6l0,0l0,0l0,0l0,0
						c0.3-0.5,1-0.8,1.7-0.4c6.5,3.6,13.1,7,19.9,10c2.1,0.9,4.2,1.9,6.4,2.7c0-0.4,0.2-0.9,0.5-1.3c0.3-0.3,0.7-0.3,1-0.1
						c-2.4-2.9-2.5-6.8-2.6-10.5v-1c-0.2-6.1-0.7-12.1-0.6-18.2c0-0.2,0.4-0.3,0.4-0.1c0.8,4.9,1.3,9.8,1.8,14.8l0.3,2.8
						c0.4,3.8,0,9,3.5,11.5c0.3,0.2,0.5,0.6,0.6,1c1.2-0.3,2.4-0.5,3.6-0.7l0.7-0.1c1.9-0.3,4-0.9,5.9-0.8c0.1,0,0.2,0.2,0.1,0.3
						c-1.7,0.9-3.7,1.2-5.6,1.8c-2,0.6-3.9,1.4-5.9,1.9c-0.1,0-0.1,0-0.2,0l0,0l0.6,0.2c3.4,1.4,6.9,2.6,10.3,4.1
						c0.2,0.1,0,0.4-0.1,0.3c-3.4-0.6-6.9-1.7-10.2-2.7l-0.7-0.2c-3.5-1.2-7-2.4-10.4-3.8c-6.7-2.8-13.2-5.9-19.6-9.3
						c0.1,0.5,0.1,1,0.2,1.5c0.2,1.2,0.4,2.4,0.5,3.6c0.3,2.4,0.6,4.7,0.5,7.1c-0.1,2.9-1.1,6.6-3.4,8.6c0.3,0.5,0.2,1.1-0.2,1.5
						c0.8,0.5,1.6,1.1,2.4,1.6c1.4,0.9,2.8,1.9,4.2,2.8c2.9,1.9,5.8,3.7,8.7,5.4c5.8,3.4,11.7,6.6,17.8,9.5
						c5.9,2.8,12.4,5.9,19.1,5.9c2.9,0,6.2-0.7,8.3-2.8c2.1-2,2.5-5.1,2.7-7.8v-0.5c0.3-3.8,0.3-7.5,0.2-11.3
						c-0.1-2.3-0.2-4.5-0.4-6.8l-0.1-1.7c-0.7,0-1.3-0.3-1.6-1.2c-0.7-2.1-0.7-4.3-1-6.4c-0.2-2-0.5-4-0.8-6
						c-0.6-4.1-1.4-8.2-2.3-12.3c-1.8-8-4.1-15.9-6.8-23.7c-2.6-7.5-5.5-14.8-9.7-21.6c-1.9-3-3.9-6.1-6.5-8.5
						c-2.5-2.3-5.5-3.9-8.5-5.3c-3.4-1.6-7.1-2.6-10.8-3.5l-0.4-0.1c-3.7-0.9-7.3-1.8-10.4-4c-2,1.8-3.9,3.6-5.6,5.7
						s-3.4,4.3-5.4,6.2c-2,1.9-4.3,3.4-6.9,4.4c-2.7,1-5.6,1.3-8.1,2.8c-0.5,0.3-1-0.3-0.8-0.8c1.4-2.4,4.1-3.6,6.6-4.5l0.5-0.2
						c2.5-0.9,4.6-2.2,6.5-4.1c1.9-1.9,3.5-4.1,5.2-6.2c1.3-1.6,2.7-3.4,4.4-4.8c-0.6-0.7-1.3-1.4-1.9-2.1c-1-1.2-1.7-2.5-2.4-3.9
						c-0.3-0.6,0.4-1.2,0.9-0.7C402.5,23,404.7,25,407.1,26.5z M331.6,113.8v0.6c0.6,9,0.6,18.1,0.3,27.1l-0.1,1.5
						c-0.1,2.2-0.2,4.3-0.4,6.5c-0.2,1.4-0.4,2.7-0.8,4c-0.4,1.1-0.5,2.3-0.7,3.4l-0.1,0.9c-0.1,0.7-1.2,0.7-1.1,0
						c0.1-1.1,0.1-2.2,0-3.3c-0.1-1.3-0.5-2.5-0.5-3.8c-0.1-2.4,0.1-4.8,0.1-7.1c0.2-4.7,0.2-9.4,0.3-14.1v-0.4
						c0.1-8.7,0.3-17.4-0.9-26.1c-0.7-4.8-1.8-9.5-2.9-14.2c0-0.2,0.2-0.3,0.3-0.1C329.8,96.1,330.9,105.3,331.6,113.8z M328.9,47.7
						c-5.3,6.2-7.9,14.5-9.6,22.3l-0.1,0.5c-1.8,8.2-3.4,16.4-5,24.6l-1,5.5c-0.7,3.7-1.4,7.3-2.1,11l-0.1,0.7
						c-0.8,4.3-1.7,8.6-2.3,13c-0.7,5.2-1.2,10.4-1.5,15.6c-0.2,5.2,0,10.4,0.4,15.6c0.1,1.8-2.9,2.3-3.2,0.4
						c-1.4-9.2-0.6-18.7,0.7-27.9l0.1-0.6c1.3-8.9,3-17.8,4.8-26.6l0.4-1.8c2-9.5,3.8-19,5.7-28.5c1.8-8.5,4-17.1,9.4-24.1
						c2.8-3.6,6.3-6.6,10.4-8.5c4.1-2,8.5-3.1,12.9-4.2l0.6-0.1c0.3-0.1,0.4,0.4,0.1,0.5C342,38.1,334.3,41.3,328.9,47.7z
						 M369.4,121.8l0.1,1.3c0,0.9,0.1,1.8,0.1,2.6c0.1,2.7,0.3,5.4,0.4,8.1c0.1,2,0.3,3.9,0.4,5.9l0.2,2c0.2,2.5,0.6,5.4-0.2,7.9
						c-0.2,0.8-1.3,1-1.7,0.2c-1.1-2-1.3-4.7-1.5-7v-0.7c-0.1-2.7-0.2-5.4-0.2-8.1c0-2.6,0.1-5.3,0.2-7.9c0.1-1.4,0.2-2.8,0.3-4.2
						v-0.1c0.1-1.1,0.2-2.4,0.7-3.4c0.1-0.3,0.6-0.3,0.7,0C369.4,119.5,369.4,120.7,369.4,121.8z M455.2,121.9
						c1.2,1.1,2.2,2.3,3.2,3.6c1,1.3,2.1,2.7,2.8,4.2c0.3,0.8,0.4,1.5-0.5,1.8c-0.1,0-0.2-0.1-0.1-0.2l0,0c0.2-0.5-1.9-2.4-2.1-2.7
						l-0.3-0.3c-0.8-0.9-1.6-1.7-2.5-2.6c-1-0.9-2-1.9-3-2.7c-0.9-0.8-2.3-1.5-2.5-2.8c-0.1-0.6,0.3-1.1,0.9-1.2
						c1.5-0.1,2.9,1.5,3.9,2.5L455.2,121.9L455.2,121.9z M366.4,86.8L366.4,86.8L366.4,86.8c0.1,0,0.2,0,0.4,0
						c0.4,0.1,0.7,0.3,0.8,0.6c0.7,0.1,1.3,0.2,1.9,0.2h0.3c1.6,0.2,3.4,0.6,4.7,1.6c0.3,0.2,0,0.6-0.3,0.6
						c-1.7,0.2-3.4-0.3-5.1-0.3c-0.8,0-1.7,0-2.5,0.1c-0.8,0.1-1.5,0.3-2.3-0.1c-2.1,0.8-2.9,3.8-1.4,5.6c0.6,0,1.2,0.2,1.8,0.2
						c0.9,0.1,1.7,0.2,2.6,0.4c1.6,0.2,3.3,0.4,4.8,1.1c0.2,0.1,0.1,0.3,0,0.4c-1.2,0.3-2.5,0.2-3.7,0.2l-1.2-0.1
						c-1.2-0.1-2.5,0-3.8-0.2c-0.3,0.5-0.8,0.8-1.5,0.6h-0.1c-0.1,0.1-0.2,0.2-0.2,0.2V98c-0.1,0.2-0.2,0.5-0.2,0.8
						c0.1,0.9,0.9,1.7,1.3,2.5c0.3,0.5,0.5,1.1,0.7,1.6c0.8-0.2,1.7,0,2.5,0.1h0.2c0.9,0.1,1.8,0.2,2.7,0.4c0.1,0,0.1,0.3,0,0.3
						c-0.8,0.2-1.5,0.3-2.3,0.4h-0.4c-0.8,0.1-1.7,0.3-2.5,0.2c0.1,0.8,0.1,1.5,0.8,2.1c1.3,1,3.2,1.1,4.7,1.8
						c1.7,0.7,3,2.1,4.2,3.5l0.2,0.2c1.2,1.4,2.3,2.8,3.8,3.8c1.4,1,3,1.7,4.6,2.2c3.4,1.1,6.9,1.7,10.4,2.5
						c2.9,0.7,5.7,1.6,8.2,3.1c1-0.7,1.9-1.5,2.5-2.7c0.9-1.6,1.1-3.5,1.2-5.3c0.1-2,0-4.1,0-6.1c0-1,0-2,0-2.9c0-0.3,0-0.7,0-1.1
						c-0.7,0.1-1.6-0.1-2.1-0.2H402c-0.3-0.1-0.5-0.2-0.6-0.5c-1.9-0.4-3.8-1.4-5.3-2.5c-3.1-2.1-5-5.8-7-8.8l-0.1-0.1
						c-2-3.1-4.3-6-7.7-7.7c-3.3-1.7-7.2-2.6-10.9-2.9c-1.5-0.1-4-0.1-4.7,1.5C365.4,85,365.4,86.7,366.4,86.8z M435,116.4
						L435,116.4l0.1,0.1L435,116.4L435,116.4L435,116.4z M335.7,83.3c-1.2,7.4-1.2,15.2,1.4,22.3c1.2,3.4,3.2,7.2,6,9.5
						c1.7,1.4,3.8,1.4,5.9,1.3l1.4-0.1c1.9-0.1,3.7-0.2,5.6-0.3h0.1c2-0.1,4.4-0.1,5.9-1.6c1.2-1.2,1.7-2.9,2.1-4.5l0.1-0.3
						c-1.6-0.7-2.9-1.8-3.2-3.7c-0.2-1.3-0.2-2.3-0.9-3.4c-0.6-1.1-1.4-2.1-1.4-3.4c0-1.1,0.4-2.3,1.3-3.1c-1-1.8-1.1-3.9-0.1-5.8
						c0.7-1.4,1.9-2.3,3.2-2.9c-0.6-1.5-0.5-3.3,0.4-4.7c-1.2,0-2.3-1-2.7-2.1c-4.3-0.1-8.5-0.2-12.8,0.2
						C343.8,81.1,339.7,82.1,335.7,83.3z M383.7,93.1c-0.6,1.1,0.5,2.5,0.4,3.6c0,0.6-0.2,1.2-0.4,1.8c-0.2,0.6-0.7,1-0.9,1.6
						c-0.4,1,0,2.3-0.3,3.4c-0.3,1.3-1.4,2.3-2.7,1.8c-0.4-0.1-0.6-0.5-0.7-0.9c0-0.5,0-0.9,0.1-1.3l0.1-0.4
						c0.1-0.6,0.1-1.1,0.2-1.7c0.1-1.4,0.6-2.3,1.4-3.5c0.8-1.1,0.6-2.2,0.9-3.4c0.2-0.8,0.8-1.6,1.7-1.7l0,0
						C383.7,92.5,383.9,92.8,383.7,93.1z M404.3,81c2.1,0.4,4.2,0.7,6.3,1.1c2.1,0.3,4.2,0.6,6.3,0.9c2,0.2,4.1,0.4,6,1
						c0.2,0.1,0.3,0.4,0,0.5c-1.8,0.3-3.6,0.2-5.4,0l-0.8-0.1c-2.1-0.2-4.2-0.4-6.4-0.7c-2.1-0.3-4.1-0.6-6.2-0.9
						c-1.1-0.2-2.2-0.4-3.3-0.6h-0.1c-0.9-0.2-1.9-0.2-2.6-0.9c-0.4-0.4-0.2-1,0.3-1.1c0.9-0.4,1.9,0.1,2.9,0.3
						C402.4,80.7,403.3,80.8,404.3,81z M365.7,79.5L365.7,79.5c-0.1,0-1,0.4-1.7,0.6l-0.3,0.1l0.1,0.2c0,0,0,0,0.1,0.1
						c0.3,0.3,0.5,0.5,0.7,0.8l0,0c2.6-1.9,6.6-1.3,9.7-0.7l0.6,0.1c-1.2-1-2.5-2.4-4-2.7c-0.9-0.1-1.8,0.3-2.6,0.6
						S366.6,79.2,365.7,79.5z M395.3,23.3c0,0,0,0.1,0.1,0.1c1.2-0.7,2.4-1.6,3.7-2.1c0.2-0.1,0.3,0.2,0.2,0.3c-0.8,1.2-2,2.1-3.1,3
						l-0.7,0.5c-1.4,1.1-3,2-4.6,2.9c-1.7,0.9-3.4,1.6-5.2,2.3c-0.7,0.2-1.9,0.4-2.4,0.9s-0.4,1.5-0.4,2.2v0.4
						c0.3,3.4,1.6,6.9-0.6,10c-1,1.4-2.3,2.5-3.6,3.7c-1.2,1.1-1.8,2.4-2.5,3.8l-0.2,0.5c0,0,0,0,0,0.1c0.3,3-0.3,6.1-1.2,9
						c-0.7,2.2-1.6,4.4-2.4,6.6c-0.8,2.3-1.1,4.8-2.3,6.9c-0.4,0.6-1.2,0.4-1.4-0.2c-0.6-1.8-0.2-3.6,0.4-5.4l0.2-0.5
						c0.6-1.9,1.3-3.8,2-5.8l0.1-0.1c1.3-3.5,2.5-7.5,1.6-11.3c-0.4-1.8-1.3-3-2.4-4.4l-0.1-0.1c-1.1-1.4-1.6-3-0.6-4.6
						c0.3-0.5,0.9-1,0.6-1.6c-0.3-0.6-1-1.1-1.5-1.5l-0.4-0.3c-1.4-0.9-2.8-1.8-4.2-2.8c-3.3-2.6-6-5.6-8.3-9.1
						c-0.1-0.1,0.1-0.2,0.2-0.1c2.9,2.6,6.2,4.9,9.5,7c1.6,1,3.4,1.8,4.9,2.9c1.3,0.9,2.7,2.1,2.9,3.8c0.1,0.9-0.1,1.7-0.5,2.5
						c-0.5,0.8-0.9,1.1-0.3,1.9c0.9,1.2,1.7,2.2,2.4,3.5c0.7-1.1,1.7-2.2,2.7-3l0.2-0.2c1-0.9,2.2-1.9,2.8-3.2
						c0.5-1.2,0.4-2.6,0.2-3.8l-0.1-0.4c-0.4-2.5-1.3-6.4,1-8.2c1.1-0.9,2.7-1,4-1.5c1.5-0.5,2.9-1,4.3-1.6c1.1-0.5,2.2-1,3.2-1.6
						c0,0,0,0,0-0.1c-1.7-3.1-2.5-6.5-2.2-10c0.1-1.6,2.6-1.6,2.5,0C393.2,17.6,393.8,20.6,395.3,23.3z M353.3,36.5
						c0.5,1.1,1.1,2.1,1.7,3.2c1.2,2,2.6,4.1,4,5.9c1.4,1.8,3.6,2.5,5.8,1.8c1.4-0.5,3.2-2.3,4.7-1.1c0.1,0.1,0,0.3-0.1,0.2
						c-1.3-0.4-2.4,1.3-3.4,1.9c-0.9,0.5-1.9,0.7-2.8,0.8c-2.3,0.2-4.4-0.9-5.9-2.6c-1.7-1.9-3.3-3.8-4.7-6
						c-0.7-1.1-1.3-2.3-1.8-3.5l-0.1-0.1c-0.5-1.2-1-2.3-1.1-3.6c-0.1-1.7,2.2-1.8,2.8-0.4C352.7,34.2,352.8,35.4,353.3,36.5z
						 M351.2,30.8c-1.3,1.3-3.1-0.9-1.6-2c1-0.8,2.1-1.6,3.1-2.4c0.9-0.7,1.8-1.6,2.8-2.2c0.2-0.1,0.4,0.1,0.3,0.3
						C355,26.8,353,29.1,351.2,30.8z M358.2,26.8c-1.3,1-3-0.8-1.8-1.8l0.1-0.1c2-1.6,2.9-4.2,2.3-6.8l0,0c-0.3-1.5,2-2.2,2.4-0.6
						C362.1,20.9,360.9,24.6,358.2,26.8z"/>
				</g>
				<g id="head_x2F_Twists-2" transform="translate(78.591549, 38.043053)">
					<path id="_xD83C__xDFA8_-Background_2_" class="st0" d="M290.4,86.6c-0.7,6.8,2,13.3,5.7,19c5.4,9.2,13.7,12.3,24.1,10.9
						c3.6-0.3,7.2-0.8,10.7-1.5c5.6-1.3,13.4-1.8,16.2-7.6c7.1-4.3,7.5-11.9,13.2-14.7c5.9-2.2,5.2-8.1,5-13.2
						c0-7.9,1.9-15.7,4.8-23c1.5-3.5,3.2-7.2,3.8-11c1-6.1-1.5-13.9-8.1-15.5c-11.6-3.4-24.1-1.9-35.9-0.2
						c-12,2.5-25.3,4.2-31.1,16.6c-2.6,5.8-5.1,12.5-5.8,18.7C292.2,72.3,291.1,79.4,290.4,86.6z"/>
					<path id="_xD83D__xDD8D_-Ink_5_" class="st1" d="M332.3,16.2c0.2-0.3,0.5-0.6,0.8-0.9c0.4-0.4,1.2-0.6,1.7-0.2
						c0.7,0.4,1.3,1,1.8,1.5c0.4,0,0.9,0,1.3,0c0.5-0.7,1.2-1.2,2.2-1.1c1.1,0,1.9,0.6,2.4,1.3l0,0h0.5c0.1-0.2,0.2-0.4,0.3-0.5
						c0.5-0.8,1.5-0.9,2.2-0.3c0.4,0.4,0.8,0.7,1.2,1.2c0.3,0,0.7,0.1,1,0.1c0.6-0.6,1.4-1.1,2.3-1.1c1.4-0.1,2.2,0.7,2.7,1.8l0,0
						c0.9-0.7,2.2-1.2,3.3-0.9c1,0.3,1.7,0.8,2.2,1.6l0,0l0.3,0.1c0.9-0.3,1.8-0.3,2.8,0c0.8,0.3,1.5,0.8,2.1,1.5
						c0.2,0.1,0.3,0.1,0.5,0.2c0.2,0.1,0.5,0.2,0.7,0.3c0.4-0.1,0.8-0.1,1.3,0c1.2,0.2,2.1,0.9,2.6,1.9c0.6-0.1,1.2,0,1.7,0.3
						c1.4,0.6,2.3,2,2.6,3.4c0.1,0.5,0.1,0.9,0.1,1.4c0.6,0,1,0.2,1.4,0.7c0.5,0.6,0.9,1.4,1.1,2.1c0,0.1,0.1,0.2,0.1,0.4
						c0.7,0.6,1.1,1.4,1.3,2.3c0.1,0.6,0.1,1.1,0,1.5c0.9,0.6,1.6,1.4,1.9,2.5c0.4,1.3,0.2,2.5-0.3,3.6l0,0V41
						c0.7,0.4,1.3,1,1.8,1.9c1,1.9,0.1,3.5-1.5,4.7l-0.1,0.1c0,0,0,0,0,0.1c0.5,0.6,0.9,1.3,1.1,2.1c0.5,2-0.3,3.3-1.6,4.2
						c0.9,1.1,1.3,2.5,0.9,3.9s-1.4,2.4-2.6,3.1c0,0.1,0,0.1-0.1,0.2c0.2,0.5,0.4,1,0.4,1.6c0.1,1.8-0.9,3.4-2.4,4.4
						c-0.1,0.1-0.1,0.2-0.2,0.3c0.4,0.8,0.5,1.7-0.1,2.7c-0.4,0.7-1,1.2-1.8,1.6c-0.2,0.5-0.6,0.9-1,1.2c0.1,0.6,0.1,1.2-0.1,1.8
						c-0.3,1.2-1,2.1-2,2.7c0,0.1,0.1,0.2,0.1,0.3c0.6,1.4-1,2.8-2.4,2.6c0.3,0.6,0.5,1.2,0.6,1.9c0.9,3.8-0.2,8.8-3.8,10.8
						c-0.9,0.5-1.9,0.7-2.9,0.8c-1.1,0.1-2.3,0.1-3.2,0.9c-1.4,1.3-1.9,3.5-2.9,5.1c-1.2,2.1-2.7,4.1-4.5,5.7c-0.9,0.9-2,1.7-3,2.4
						c-1,0.7-2.2,1.6-3.3,0.8c-0.3-0.2-0.5-0.5-0.5-0.8c0.1-1,0.6-1.4,1.4-1.9l0.2-0.1c0.8-0.5,1.5-1,2.2-1.5c1.4-1.2,2.8-2.5,3.9-4
						c0.9-1.3,1.6-2.7,2.3-4.1l0.4-0.8c0.7-1.6,1.7-3.1,3.3-3.8c1.7-0.8,3.9-0.3,5.5-1.4c1.4-0.9,2.1-2.6,2.3-4.1
						c0.5-2.8-0.6-5.7-2.8-7.5c-0.6-0.2-1.2-0.5-1.9-0.7c-0.5-0.2-1-0.4-1.4-0.6c-0.6-0.1-1.3,0-1.9,0.1c-1.2,0.2-2.7,0.7-3.7,1.5
						c0.5-0.2,0.9-0.4,1.4-0.6c0.3-0.2,0.6,0.3,0.3,0.5c-0.7,0.5-1.6,1-2.2,1.7c-0.3,0.3-0.7,0.2-1,0c-1.5-1.4-0.2-3.4,0-5
						c0.1-0.7-0.2-1.2-0.8-1.6c-1-0.6-2-1.1-2.8-1.9c-1.6-1.6-2.1-3.8-2.3-5.9c-0.2-2.6,0-5.2-0.1-7.8s-0.2-5.5-0.8-8
						c-0.3-1-0.7-1.8-1.7-2.3c-1.2-0.5-2.6-0.6-3.8-0.8l-0.6-0.1c-5.6-1-11.3-1.6-17-2c-6.7-0.5-13.4-0.5-20-0.3
						c-0.9,0.4-1.8,1-2.5,1.6c-1.9,5.7-3.4,11.6-4.4,17.6c-1.1,6.8-1.8,13.6-2.3,20.5V85c-0.3,3.5-0.4,7.2,0.3,10.7
						c0.6,2.8,1.6,5.5,3.1,7.9c3,5,7.7,9,13.2,10.9c3.3,1.1,6.9,1.6,10.4,1.3c3.6-0.3,6.9-1.4,10.2-2.9c1.7-0.8,3.2,1.6,1.5,2.6
						c-5.7,3.4-13.2,4-19.6,2.5c-6.2-1.4-11.7-5.1-15.5-10.1c-4.1-5.3-6-11.7-6-18.4c0-2.9,0.3-5.9,0.5-8.8l0.3-3.3
						c0.3-3.3,0.7-6.6,1.3-9.9c1.1-6.6,2.6-13.3,5.6-19.4c-0.5,0.2-1.2-0.2-1.3-0.7v-0.1c-0.4-1.1-1.3-1.8-2-2.7
						c-0.3-0.5-0.5-1-0.5-1.5c0-0.1,0-0.1,0-0.2c0,0,0-0.1-0.1-0.1l-0.1-0.3c-1.3-0.8-2-2.3-1.6-3.7c-0.3-0.3-0.6-0.7-0.9-1.1
						c-1-1.1-1.3-2.8-0.7-4.2c-0.5-0.5-1-1-1.4-1.6c-0.9-1.4-1-3.4-0.2-4.9c0.6-1.1,1.6-1.8,2.8-1.9c0-0.2,0.1-0.5,0.1-0.7
						c-0.4-1.5-0.1-2.9,1.1-4c0.4-0.3,0.8-0.6,1.3-0.7c0-0.1,0.1-0.1,0.1-0.2c0.9-0.9,1.9-1.6,3-2c0.6-1.5,2-2.7,3.7-2.9
						c1.3-0.1,2.4,0.5,3.3,1.4c0.6-0.6,1.3-1.1,2.1-1.3c0.6-0.2,1.2-0.2,1.8-0.1c0.9,0,1.7,0.4,2.3,1.1c1-0.8,2.3-1.3,3.5-1.2
						c0.9,0.1,1.7,0.5,2.1,1.2c0.5-0.5,1-0.8,1.7-0.9c0.8,0,1.5,0.3,2,0.8c1.1-0.7,2.4-1,3.9-0.5c0.2,0.1,0.4,0.2,0.6,0.3
						c0.7,0,1.5,0,2.3,0.1c0.3-0.2,0.7-0.4,1-0.5c0.6-0.5,1.5-0.8,2.1-0.1C330.8,15,331.6,15.4,332.3,16.2z M361,82
						c-0.4,0.9-1.4,1.3-2.1,2c-0.8,0.7-1.3,1.6-1.9,2.4c-1,1.3-3.3,0.1-2.3-1.4c0.7-1.1,1.9-2,3-2.6C358.6,82,360,81.3,361,82
						C361,81.9,361,82,361,82z M360.3,45.6c0.2,0.6,0,1.1-0.6,1.4c-0.3,0.1-0.4,0.6-0.2,0.9c0.2,0.3,0.6,0.4,0.9,0.2
						c1.1-0.5,1.6-1.8,1.2-2.9C361.2,44.4,360,44.8,360.3,45.6L360.3,45.6L360.3,45.6z M371.3,44.3c0,0.4-0.4,0.6-0.7,0.8h-0.1
						c-0.7,0.4-0.1,1.5,0.6,1.1s1.3-1,1.4-1.8s-0.3-1.5-0.9-2s-1.5,0.4-0.9,0.9C371.1,43.7,371.4,44,371.3,44.3z M367.3,33.9
						c0.7,0.5,0.6,1.1,0,1.7c-0.6,0.6,0.3,1.5,0.9,0.9c0.5-0.5,0.9-1.2,0.8-2s-0.5-1.3-1.2-1.8C367.3,32.3,366.6,33.4,367.3,33.9
						L367.3,33.9L367.3,33.9z"/>
				</g>
				<g id="face_x2F_Cheeky" transform="translate(112.183099, 77.354207)">
					<path id="_xD83D__xDD8D_-Ink_4_" class="st1" d="M276.9,60.9l-0.1,0.2c-0.1,0.3-0.1,0.5,0.1,0.9c0.3,0.7,1.1,1,1.9,0.9
						c1.1-0.1,2-0.8,2.6-1.7s0.7-2.2,1.4-3h0.1c1.5,0.9,1.2,3.6,0.7,5c-0.9,2.1-2.8,3.5-5.1,3.6c-2.2,0.2-4.3-1-5.4-2.9
						c-1.2-2.2-1.2-5.9,1.9-6.2c0.7-0.1,1.4,0.4,1.8,1C277.2,59.4,277.1,60,276.9,60.9z M275.1,41.2c-8.1,1.4-3.9,15.4,6.4,7.7
						c1.2-1-0.3-3.2-1.6-2.3c-1.4,1.1-4.3,3.5-6.4,1.4c-1.7-2.4,0.7-4.7,2.3-5.6C276.4,42.1,276,41.1,275.1,41.2z M293.1,39.4
						L293.1,39.4c0,0.3,0,0.4,0,0.5l0,0l0,0V40c0,0.2,0,0.4,0.1,0.5c0.2,0.3,0.1,0.2,0.3,0.3h0.1c0.7,0,1.3-0.7,1.7-1.4l0.5-0.8
						c0.5-0.8,1-1.6,1.7-2.3c0.1-0.1,0.2,0,0.2,0.1c0.6,1.7,0.7,3.4,0,5.1c-0.8,1.7-2.4,2.8-4.3,2.9c-1.9,0.1-3.5-1.2-4-3
						c-0.2-0.8-0.3-1.7-0.3-2.5c0-0.9-0.4-1.8-0.1-2.7c0.5-1.7,2.8-2,3.8-0.5C293.5,36.7,293.2,38.2,293.1,39.4z M266.8,39.7
						c-0.2,0.9,0.1,1.4,1,1.2c0.9-0.1,1.6-0.9,2-1.7c0.4-0.8,0.5-1.9,1.2-2.4c0.1-0.1,0.1,0,0.2,0c0.7,1.1,0.1,3.2-0.5,4.3
						c-0.7,1.2-1.9,2-3.2,2.1c-1.4,0.1-2.7-0.6-3.3-1.9c-0.4-0.8-0.3-1.7-0.2-2.6v-0.4c0.1-0.9,0.2-1.8,0.7-2.5
						c0.9-1.4,3.5-1,3.3,0.9C267.8,37.9,267.1,38.6,266.8,39.7z M296.1,26.6c1.3,0.9,2.4,2,3.3,3.2c0.8,1,1.6,2.4,1.3,3.7
						c0,0.1-0.1,0.1-0.1,0.1c-1.4-0.2-2.5-1.4-3.7-2.2c-1.2-0.8-2.4-1.5-3.8-2c-1.2-0.5-2.5-0.8-3.7-1c-1.1-0.2-2.3-0.2-2.9-1.3
						c-0.5-0.9-0.4-2,0.4-2.7c1.2-1.2,3.2-0.6,4.7,0l0.4,0.2C293.5,25.1,294.9,25.7,296.1,26.6z M269.4,30c1.5,0.2,2.9,0.3,4.4,0.3
						c1.3,0,2.9-0.2,4.1,0.3c0.3,0.1,0.4,0.5,0.2,0.7c-0.7,0.7-1.7,1-2.7,1.2l-0.5,0.1c-1.1,0.3-2.3,0.5-3.4,0.7
						c-2.5,0.4-5.3,0.4-7.7,0c-0.7-0.1-1.2-0.8-1.5-1.5c-0.2-0.7,0-1.4,0.5-2c0.7-0.7,1.5-0.7,2.4-0.6h0.1
						C266.6,29.6,268,29.9,269.4,30z"/>
				</g>
				<g id="facial-hair_x2F_Full" transform="translate(104.577451, 109.479380)">
					<path id="_xD83D__xDD8D_-Ink_3_" class="st1" d="M302.4,32c0.1,0.9,0.1,1.8-0.1,2.6c-3.6,2.6-8.1,3.9-12.6,3.4
						c-1.4-1.7-2.9-4.7-5.3-5c-2.6-0.4-4.1,2.4-6.2,3.6c-0.1,0.1-0.2,0.1-0.4,0.2c-1.3-0.1-2.7-0.4-3.8-1.2
						c-1.2-0.8-1.6-1.8-1.8-3.1c0.1-0.2,0.1-0.5,0.2-0.7c0.5-1.7,1.1-3.3,2.1-4.7c0.8-1.2,1.9-2.2,3.3-2.7c1.6-0.6,3.4-0.8,5.1-0.9
						c3.2-0.3,6.5-0.3,9.7,0.5C296.9,25,300.7,28,302.4,32 M269.2,28.9c-0.2,0.5-1.4,5.6-0.6,8.5c0.8,2.8,2.2,5.5,3.9,7.9
						c1.6,2.2,3.7,4,6.2,4.9c3.3,1.3,7.2,0.9,10.7,0.6c4.3-0.4,8.5-1.4,12.6-2.8c2-0.7,4.1-1.5,6-2.3s4-1.7,5.8-2.8
						c1.6-0.9,2.9-2.4,4.2-3.7c2-2,4-4.1,5.7-6.4c1.6-2.1,2.8-4.1,3.3-6.8c0.7-4.5-0.1-9.2-0.7-13.7c0-0.1-0.2-0.2-0.3-0.1
						c0-0.1,0-0.2,0-0.2c0-0.3-0.5-0.4-0.6-0.1c-1.1,3.7-2.9,7-5.5,9.8c-3.6,3.9-8.2,6.6-12.6,9.4c-0.1-0.1-0.3-0.2-0.5-0.3
						c-0.6-2.9-2.8-5.6-4.9-7.4c-6.2-5.4-16-7.7-23.7-4.4c-3.2,1.4-5.9,3.8-7.7,6.8C270,26.9,269.5,27.9,269.2,28.9"/>
				</g>
				<g id="accessories_x2F__x2A_-None_1_" transform="translate(88.521127, 88.978474)">
				</g>
			</g>
		</g>
	</g>
</g>
<text transform="matrix(1 0 0 1 21.945 41.3937)"><tspan x="0" y="0" class="st2 st3">That’s the extension </tspan><tspan x="52.1" y="21.6" class="st2 st3">i was talking </tspan><tspan x="49" y="43.2" class="st2 st3">to you about !</tspan></text>
<text transform="matrix(1 0 0 1 317.274 41.3937)" class="st2 st3">Cool</text>
</svg>
