<?xml version="1.0" encoding="utf-8"?>
<!-- Generator: Adobe Illustrator 24.1.0, SVG Export Plug-In . SVG Version: 6.00 Build 0)  -->
<svg version="1.1" id="Calque_1" xmlns="http://www.w3.org/2000/svg" xmlns:xlink="http://www.w3.org/1999/xlink" x="0px" y="0px"
	 viewBox="0 0 250 250" style="enable-background:new 0 0 250 250;" xml:space="preserve">
<style type="text/css">
	.st0{fill:#DEF3FF;}
	.st1{fill:#037CF9;}
	.st2{fill:none;stroke:#037CF9;stroke-miterlimit:10;}
	.st3{fill:#2D81FF;}
	.st4{fill:#1D1D1B;}
	.st5{fill:none;stroke:#037CF9;stroke-width:3;stroke-miterlimit:10;}
</style>
<g>
	<g>
		<path class="st4" d="M31.7,183.4h-3.2c-0.8,0-1.5-0.7-1.5-1.5c0-0.8,0.7-1.5,1.5-1.5h3.2c0.8,0,1.5,0.7,1.5,1.5
			C33.2,182.7,32.5,183.4,31.7,183.4z"/>
		<path class="st4" d="M44.1,183.4h-3.6c-0.8,0-1.5-0.7-1.5-1.5c0-0.8,0.7-1.5,1.5-1.5h3.6c0.8,0,1.5,0.7,1.5,1.5
			C45.6,182.7,44.9,183.4,44.1,183.4z"/>
	</g>
	<path class="st4" d="M36.2,191.3c-0.8,0-1.5-0.7-1.5-1.5v-3.2c0-0.8,0.7-1.5,1.5-1.5s1.5,0.7,1.5,1.5v3.2
		C37.7,190.7,37,191.3,36.2,191.3z"/>
	<path class="st4" d="M36.2,179.3c-0.8,0-1.5-0.7-1.5-1.5v-3.6c0-0.8,0.7-1.5,1.5-1.5s1.5,0.7,1.5,1.5v3.6
		C37.7,178.6,37,179.3,36.2,179.3z"/>
	<g>
		<path class="st4" d="M212.7,120.3h-3.2c-0.8,0-1.5-0.7-1.5-1.5s0.7-1.5,1.5-1.5h3.2c0.8,0,1.5,0.7,1.5,1.5
			S213.5,120.3,212.7,120.3z"/>
		<path class="st4" d="M225.1,120.3h-3.6c-0.8,0-1.5-0.7-1.5-1.5s0.7-1.5,1.5-1.5h3.6c0.8,0,1.5,0.7,1.5,1.5
			S225.9,120.3,225.1,120.3z"/>
	</g>
	<g>
		<path class="st4" d="M217.2,128.2c-0.8,0-1.5-0.7-1.5-1.5v-3.2c0-0.8,0.7-1.5,1.5-1.5c0.8,0,1.5,0.7,1.5,1.5v3.2
			C218.7,127.5,218,128.2,217.2,128.2z"/>
		<path class="st4" d="M217.2,116.1c-0.8,0-1.5-0.7-1.5-1.5V111c0-0.8,0.7-1.5,1.5-1.5c0.8,0,1.5,0.7,1.5,1.5v3.6
			C218.7,115.5,218,116.1,217.2,116.1z"/>
	</g>
	<g>
		<path class="st4" d="M94.2,37.4H91c-0.8,0-1.5-0.7-1.5-1.5s0.7-1.5,1.5-1.5h3.2c0.8,0,1.5,0.7,1.5,1.5S95,37.4,94.2,37.4z"/>
		<path class="st4" d="M106.6,37.4H103c-0.8,0-1.5-0.7-1.5-1.5s0.7-1.5,1.5-1.5h3.6c0.8,0,1.5,0.7,1.5,1.5S107.4,37.4,106.6,37.4z"
			/>
	</g>
	<g>
		<path class="st4" d="M98.7,45.4c-0.8,0-1.5-0.7-1.5-1.5v-3.2c0-0.8,0.7-1.5,1.5-1.5c0.8,0,1.5,0.7,1.5,1.5v3.2
			C100.2,44.7,99.5,45.4,98.7,45.4z"/>
		<path class="st4" d="M98.7,33.3c-0.8,0-1.5-0.7-1.5-1.5v-3.6c0-0.8,0.7-1.5,1.5-1.5c0.8,0,1.5,0.7,1.5,1.5v3.6
			C100.2,32.7,99.5,33.3,98.7,33.3z"/>
	</g>
	<g>
		<path class="st4" d="M209.5,164.8h-3.2c-0.8,0-1.5-0.7-1.5-1.5c0-0.8,0.7-1.5,1.5-1.5h3.2c0.8,0,1.5,0.7,1.5,1.5
			C211,164.1,210.3,164.8,209.5,164.8z"/>
		<path class="st4" d="M221.9,164.8h-3.6c-0.8,0-1.5-0.7-1.5-1.5c0-0.8,0.7-1.5,1.5-1.5h3.6c0.8,0,1.5,0.7,1.5,1.5
			C223.4,164.1,222.7,164.8,221.9,164.8z"/>
	</g>
	<g>
		<path class="st4" d="M214,172.7c-0.8,0-1.5-0.7-1.5-1.5V168c0-0.8,0.7-1.5,1.5-1.5s1.5,0.7,1.5,1.5v3.2
			C215.5,172,214.8,172.7,214,172.7z"/>
		<path class="st4" d="M214,160.7c-0.8,0-1.5-0.7-1.5-1.5v-3.6c0-0.8,0.7-1.5,1.5-1.5s1.5,0.7,1.5,1.5v3.6
			C215.5,160,214.8,160.7,214,160.7z"/>
	</g>
	<path class="st4" d="M28.3,152.4c-2.7,0-4.9-2.2-4.9-4.9c0-2.7,2.2-4.9,4.9-4.9c2.7,0,4.9,2.2,4.9,4.9
		C33.1,150.2,30.9,152.4,28.3,152.4z M28.3,145.6c-1,0-1.9,0.8-1.9,1.9c0,1,0.8,1.9,1.9,1.9c1,0,1.9-0.8,1.9-1.9
		C30.1,146.5,29.3,145.6,28.3,145.6z"/>
	<path class="st4" d="M133.2,42.6c-2.7,0-4.9-2.2-4.9-4.9c0-2.7,2.2-4.9,4.9-4.9c2.7,0,4.9,2.2,4.9,4.9
		C138,40.4,135.8,42.6,133.2,42.6z M133.2,35.9c-1,0-1.9,0.8-1.9,1.9c0,1,0.8,1.9,1.9,1.9c1,0,1.9-0.8,1.9-1.9
		C135,36.7,134.2,35.9,133.2,35.9z"/>
	<path class="st4" d="M197.5,192.8c-2.7,0-4.9-2.2-4.9-4.9c0-2.7,2.2-4.9,4.9-4.9c2.7,0,4.9,2.2,4.9,4.9
		C202.4,190.6,200.2,192.8,197.5,192.8z M197.5,186c-1,0-1.9,0.8-1.9,1.9s0.8,1.9,1.9,1.9c1,0,1.9-0.8,1.9-1.9S198.5,186,197.5,186z
		"/>
	<path class="st4" d="M119.4,223.3c-23.3,0-45.5-8.7-62.6-24.4c-0.6-0.6-0.7-1.5-0.1-2.1c0.6-0.6,1.5-0.7,2.1-0.1
		c16.6,15.2,38.1,23.6,60.6,23.6c10.7,0,21.2-1.9,31.1-5.6c9.6-3.6,18.5-8.7,26.4-15.3c0.6-0.5,1.6-0.5,2.1,0.2
		c0.5,0.6,0.5,1.6-0.2,2.1c-8.2,6.8-17.3,12.2-27.3,15.9C141.2,221.4,130.4,223.3,119.4,223.3z"/>
	<path class="st4" d="M203.5,97.6c-0.6,0-1.2-0.4-1.4-0.9c-3.6-8.7-8.5-16.8-14.7-23.9c-6.1-7.1-13.2-13.3-21.2-18.2
		c-0.7-0.4-0.9-1.4-0.5-2.1c0.4-0.7,1.4-0.9,2.1-0.5c8.2,5.1,15.6,11.4,21.9,18.8c6.3,7.4,11.4,15.8,15.2,24.7c0.3,0.8,0,1.6-0.8,2
		C203.9,97.5,203.7,97.6,203.5,97.6z"/>
	<path class="st4" d="M28.3,132.3c-0.8,0-1.5-0.7-1.5-1.5c0-34,18.6-65.1,48.4-81.3c0.7-0.4,1.6-0.1,2,0.6c0.4,0.7,0.1,1.6-0.6,2
		c-28.9,15.7-46.8,45.9-46.8,78.7C29.9,131.6,29.2,132.3,28.3,132.3z"/>
	<path class="st4" d="M119.1,210.6c-10.8,0-21.3-2.1-31.2-6.3c-9.5-4-18.1-9.8-25.5-17.2c-7.4-7.4-13.1-15.9-17.2-25.5
		c-4.2-9.9-6.3-20.4-6.3-31.2s2.1-21.3,6.3-31.2c4-9.5,9.8-18.1,17.2-25.5c7.4-7.4,15.9-13.1,25.5-17.2c9.9-4.2,20.4-6.3,31.2-6.3
		s21.3,2.1,31.2,6.3c9.5,4,18.1,9.8,25.5,17.2c7.4,7.4,13.1,15.9,17.2,25.5c4.2,9.9,6.3,20.4,6.3,31.2s-2.1,21.3-6.3,31.2
		c-4,9.5-9.8,18.1-17.2,25.5c-7.4,7.4-15.9,13.1-25.5,17.2C140.4,208.5,129.9,210.6,119.1,210.6z M119.1,53.4c-10.4,0-20.5,2-30,6.1
		c-9.2,3.9-17.4,9.4-24.5,16.5c-7.1,7.1-12.6,15.3-16.5,24.5c-4,9.5-6.1,19.6-6.1,30c0,10.4,2,20.5,6.1,30
		c3.9,9.2,9.4,17.4,16.5,24.5c7.1,7.1,15.3,12.6,24.5,16.5c9.5,4,19.6,6.1,30,6.1c10.4,0,20.5-2,30-6.1c9.2-3.9,17.4-9.4,24.5-16.5
		s12.6-15.3,16.5-24.5c4-9.5,6.1-19.6,6.1-30c0-10.4-2-20.5-6.1-30c-3.9-9.2-9.4-17.4-16.5-24.5c-7.1-7.1-15.3-12.6-24.5-16.5
		C139.6,55.4,129.5,53.4,119.1,53.4z"/>
	<g>
		<path class="st4" d="M123.5,161.3h-21.3c-0.8,0-1.5-0.7-1.5-1.5s0.7-1.5,1.5-1.5h21.3c3,0,5.9-0.3,8.4-0.8
			c2.5-0.5,4.6-1.5,6.4-2.8c1.6-1.2,2.9-2.7,4-4.5c0,0,0,0,0,0c1.7-2.7,2.5-5.7,2.5-9.1c0-3.2-0.7-6-2.2-8.3
			c-1.4-2.2-3.5-3.8-6.4-4.9c-0.6-0.2-0.9-0.7-1-1.3c0-0.6,0.3-1.2,0.8-1.4c1.9-1,3.3-2,4.2-3.1c1.7-2,2.5-4.8,2.5-8.2
			c0-3.3-0.9-6.2-2.6-8.6c-2.8-3.8-7.8-5.9-14.8-6H97.1v54c0,0.8-0.7,1.5-1.5,1.5c-0.8,0-1.5-0.7-1.5-1.5V97.9
			c0-0.8,0.7-1.5,1.5-1.5h29.9c0,0,0,0,0,0c8,0.1,13.8,2.5,17.2,7.2c2.1,2.9,3.1,6.4,3.1,10.3c0,4.1-1.1,7.5-3.2,10.1
			c-0.7,0.8-1.6,1.6-2.7,2.4c2.2,1.2,3.9,2.8,5.2,4.8c1.8,2.7,2.7,6.1,2.7,9.9c0,3.9-1,7.5-3,10.7c-1.3,2.1-2.9,3.9-4.8,5.3
			c-2.1,1.6-4.7,2.8-7.6,3.4C129.8,161,126.8,161.3,123.5,161.3z"/>
		<path class="st4" d="M122.7,123.8h-7.1c-0.8,0-1.5-0.7-1.5-1.5s0.7-1.5,1.5-1.5h7.1c2.4,0,4.3-0.4,5.8-1.3
			c1.2-0.7,1.8-2.1,1.8-4.2c0-2.9-1.3-3.9-2.4-4.3c-1.7-0.6-4-0.9-6.8-0.9h-12v12.1c0,0.8-0.7,1.5-1.5,1.5c-0.8,0-1.5-0.7-1.5-1.5
			v-13.6c0-0.8,0.7-1.5,1.5-1.5h13.5c3.1,0,5.7,0.4,7.8,1c0,0,0.1,0,0.1,0c1.9,0.8,4.2,2.7,4.2,7.1c0,3.2-1.1,5.4-3.2,6.7
			C128.2,123.2,125.7,123.8,122.7,123.8z"/>
		<path class="st4" d="M122.7,150.5h-10.9c-0.8,0-1.5-0.7-1.5-1.5c0-0.8,0.7-1.5,1.5-1.5h10.9c2.4,0,4.3-0.3,5.6-0.9
			c0.8-0.4,3.2-1.6,3.2-6.4c0-2.6-1-4.3-3.1-5.3c-1.3-0.6-3.1-0.9-5.6-0.9l-13.7,0v10c0,0.8-0.7,1.5-1.5,1.5c-0.8,0-1.5-0.7-1.5-1.5
			v-11.5c0-0.8,0.7-1.5,1.5-1.5h15.2c2.9,0,5.1,0.4,6.8,1.2c3.2,1.4,4.8,4.2,4.8,8c0,4.4-1.6,7.5-4.9,9.1
			C127.9,150.1,125.7,150.5,122.7,150.5z"/>
	</g>
	<g>
		<path class="st4" d="M108.4,86.4c-3.1,0-5.7-2.6-5.7-5.7c0-3.1,2.6-5.7,5.7-5.7c3.1,0,5.7,2.6,5.7,5.7
			C114.2,83.8,111.6,86.4,108.4,86.4z M108.4,78c-1.5,0-2.7,1.2-2.7,2.7c0,1.5,1.2,2.7,2.7,2.7c1.5,0,2.7-1.2,2.7-2.7
			C111.1,79.2,109.9,78,108.4,78z"/>
		<path class="st4" d="M108.4,99.4c-0.8,0-1.5-0.7-1.5-1.5V85.1c0-0.8,0.7-1.5,1.5-1.5c0.8,0,1.5,0.7,1.5,1.5v12.8
			C110,98.7,109.3,99.4,108.4,99.4z"/>
	</g>
	<g>
		<path class="st4" d="M124.6,76.4c-3.1,0-5.7-2.6-5.7-5.7c0-3.1,2.6-5.7,5.7-5.7c3.1,0,5.7,2.6,5.7,5.7
			C130.3,73.8,127.7,76.4,124.6,76.4z M124.6,67.9c-1.5,0-2.7,1.2-2.7,2.7c0,1.5,1.2,2.7,2.7,2.7c1.5,0,2.7-1.2,2.7-2.7
			C127.3,69.2,126,67.9,124.6,67.9z"/>
		<path class="st4" d="M124.6,99.4c-0.8,0-1.5-0.7-1.5-1.5V75.1c0-0.8,0.7-1.5,1.5-1.5c0.8,0,1.5,0.7,1.5,1.5v22.8
			C126.1,98.7,125.4,99.4,124.6,99.4z"/>
	</g>
	<g>
		<path class="st4" d="M124.6,181.9c-3.1,0-5.7-2.6-5.7-5.7c0-3.1,2.6-5.7,5.7-5.7c3.1,0,5.7,2.6,5.7,5.7
			C130.3,179.3,127.7,181.9,124.6,181.9z M124.6,173.5c-1.5,0-2.7,1.2-2.7,2.7c0,1.5,1.2,2.7,2.7,2.7c1.5,0,2.7-1.2,2.7-2.7
			C127.3,174.7,126,173.5,124.6,173.5z"/>
		<path class="st4" d="M124.6,173.2c-0.8,0-1.5-0.7-1.5-1.5v-11.4c0-0.8,0.7-1.5,1.5-1.5c0.8,0,1.5,0.7,1.5,1.5v11.4
			C126.1,172.6,125.4,173.2,124.6,173.2z"/>
	</g>
	<g>
		<path class="st4" d="M108.4,191.3c-3.1,0-5.7-2.6-5.7-5.7s2.6-5.7,5.7-5.7c3.1,0,5.7,2.6,5.7,5.7S111.6,191.3,108.4,191.3z
			 M108.4,182.9c-1.5,0-2.7,1.2-2.7,2.7c0,1.5,1.2,2.7,2.7,2.7c1.5,0,2.7-1.2,2.7-2.7C111.1,184.1,109.9,182.9,108.4,182.9z"/>
		<path class="st4" d="M108.4,182.7c-0.8,0-1.5-0.7-1.5-1.5v-20.8c0-0.8,0.7-1.5,1.5-1.5c0.8,0,1.5,0.7,1.5,1.5v20.8
			C110,182,109.3,182.7,108.4,182.7z"/>
	</g>
	<path class="st4" d="M81.3,147.1c-0.6,0-1.2-0.4-1.4-0.9c-0.4-1-0.8-2.1-1.1-3.2c-0.2-0.8,0.2-1.6,1-1.9c0.8-0.2,1.6,0.2,1.9,1
		c0.3,1,0.7,2,1,2.9c0.3,0.8-0.1,1.6-0.8,2C81.6,147,81.5,147.1,81.3,147.1z"/>
	<path class="st4" d="M93.5,163.6c-0.3,0-0.7-0.1-0.9-0.3c-3.8-3-6.9-6.7-9.5-10.8c-0.4-0.7-0.2-1.6,0.5-2.1
		c0.7-0.4,1.6-0.2,2.1,0.5c2.3,3.8,5.3,7.2,8.8,10c0.6,0.5,0.7,1.5,0.2,2.1C94.4,163.4,93.9,163.6,93.5,163.6z"/>
	<path class="st4" d="M133.1,170.2c-0.6,0-1.2-0.4-1.4-1c-0.3-0.8,0.1-1.6,0.9-1.9c9.3-3.4,16.9-10.1,21.4-18.9c0.4-0.7,1.3-1,2-0.7
		c0.7,0.4,1,1.3,0.7,2c-4.9,9.5-13,16.7-23,20.4C133.4,170.1,133.2,170.2,133.1,170.2z"/>
	<path class="st4" d="M158.8,140.4c-0.1,0-0.2,0-0.3,0c-0.8-0.2-1.3-1-1.2-1.8c0.6-2.6,0.8-5.4,0.8-8.1c0-4-0.6-7.9-1.7-11.6
		c-0.2-0.8,0.2-1.6,1-1.9c0.8-0.2,1.6,0.2,1.9,1c1.2,4,1.9,8.2,1.9,12.5c0,2.9-0.3,5.9-0.9,8.7C160.2,139.9,159.5,140.4,158.8,140.4
		z"/>
	<path class="st4" d="M78.7,136.6c-0.2,0-0.3,0-0.5-0.1l-13.2-4.6c-0.6-0.2-1-0.8-1-1.4c0-14.4,5.5-28.1,15.5-38.5
		c0.6-0.6,1.5-0.6,2.1,0c0.6,0.6,0.6,1.5,0,2.1c-9.2,9.6-14.4,22.1-14.7,35.3l10,3.5c0-0.8-0.1-1.6-0.1-2.5
		c0-10.3,3.7-20.2,10.5-27.9c0.5-0.6,1.5-0.7,2.1-0.1c0.6,0.5,0.7,1.5,0.1,2.1c-6.3,7.2-9.8,16.3-9.8,25.9c0,1.5,0.1,3,0.3,4.5
		c0.1,0.5-0.2,1-0.6,1.3C79.3,136.5,79,136.6,78.7,136.6z"/>
	<path class="st4" d="M88.5,176.1c-0.3,0-0.6-0.1-0.9-0.3c-9.5-6.6-16.6-15.9-20.5-26.8c-0.3-0.8,0.1-1.6,0.9-1.9
		c0.8-0.3,1.6,0.1,1.9,0.9c3.6,10.1,10.5,19.1,19.4,25.3c0.7,0.5,0.9,1.4,0.4,2.1C89.5,175.8,89,176.1,88.5,176.1z"/>
	<path class="st4" d="M145.1,193c-0.4,0-0.8-0.2-1.1-0.5l-9.2-10.1c-0.3-0.4-0.5-0.9-0.3-1.4c0.1-0.5,0.5-0.9,1-1
		c3.6-1.2,7-2.8,10.2-4.7c0.7-0.4,1.6-0.2,2.1,0.5c0.4,0.7,0.2,1.6-0.5,2.1c-2.8,1.7-5.7,3.1-8.7,4.2l7,7.6
		c8.4-3.8,16-9.4,22.2-16.3c6.4-7.2,11.2-16,13.8-25.2c0.2-0.8,1.1-1.3,1.9-1c0.8,0.2,1.3,1.1,1,1.9c-2.7,9.7-7.7,18.8-14.4,26.4
		c-6.6,7.5-15,13.6-24.2,17.5C145.5,192.9,145.3,193,145.1,193z"/>
	<path class="st4" d="M158.4,168.2c-0.4,0-0.7-0.1-1-0.4c-0.6-0.6-0.7-1.5-0.1-2.1c4.1-4.5,7.4-9.6,9.7-15.3c2.6-6.3,4-13,4.1-20
		c0.1-7.9-1.7-15.6-5.3-22.8c-0.4-0.7-0.1-1.6,0.7-2c0.7-0.4,1.6-0.1,2,0.7c3.8,7.6,5.7,15.8,5.6,24.2c-0.1,7.3-1.5,14.4-4.3,21.1
		c-2.5,5.9-5.9,11.4-10.3,16.1C159.3,168,158.9,168.2,158.4,168.2z"/>
	<path class="st4" d="M154.2,111.6C154.2,111.6,154.2,111.6,154.2,111.6c-0.6,0-1-0.3-1.3-0.7c-4.8-8.3-12.5-14.5-21.6-17.6
		c-0.8-0.3-1.2-1.1-1-1.9c0.3-0.8,1.1-1.2,1.9-1c9.1,3,16.8,9,22.1,16.9l6-8.5c-6.5-8.4-15.6-14.7-25.7-17.9c-0.8-0.3-1.2-1.1-1-1.9
		c0.3-0.8,1.1-1.2,1.9-1c11,3.5,20.9,10.6,27.9,19.9c0.4,0.5,0.4,1.2,0,1.8l-8,11.3C155.2,111.3,154.7,111.6,154.2,111.6z"/>
	<path class="st4" d="M185.3,132c-0.8,0-1.5-0.7-1.5-1.5c0-16.1-6-31.6-16.8-43.6c-0.6-0.6-0.5-1.6,0.1-2.1c0.6-0.6,1.6-0.5,2.1,0.1
		c11.4,12.5,17.6,28.7,17.6,45.6C186.8,131.3,186.2,132,185.3,132z"/>
	<path class="st4" d="M152.4,74.7c-0.3,0-0.5-0.1-0.8-0.2c-4.4-2.6-9-4.6-13.9-6c-0.8-0.2-1.2-1.1-1-1.9c0.2-0.8,1.1-1.2,1.9-1
		c5.1,1.5,10,3.7,14.5,6.3c0.7,0.4,1,1.3,0.5,2.1C153.4,74.4,152.9,74.7,152.4,74.7z"/>
	<path class="st4" d="M65,93.6c-0.3,0-0.6-0.1-0.9-0.3c-0.7-0.5-0.8-1.4-0.4-2.1c11-15.4,28-25.6,46.7-28c0.8-0.1,1.6,0.5,1.7,1.3
		c0.1,0.8-0.5,1.6-1.3,1.7C93,68.5,76.7,78.2,66.2,93C65.9,93.4,65.5,93.6,65,93.6z"/>
	<path class="st4" d="M60.8,100.3c-0.2,0-0.5-0.1-0.7-0.2c-0.7-0.4-1-1.3-0.6-2c0.3-0.6,0.7-1.2,1-1.8c0.4-0.7,1.3-1,2.1-0.5
		c0.7,0.4,1,1.3,0.5,2.1c-0.3,0.6-0.7,1.1-1,1.7C61.9,100,61.3,100.3,60.8,100.3z"/>
	<path class="st4" d="M59.1,160.2c-0.6,0-1.1-0.3-1.4-0.9c-4.3-9.1-6.4-18.8-6.4-28.9c0-8.2,1.4-16.1,4.3-23.7
		c0.3-0.8,1.2-1.2,1.9-0.9c0.8,0.3,1.2,1.2,0.9,1.9c-2.7,7.2-4.1,14.8-4.1,22.6c0,9.6,2.1,18.9,6.1,27.6c0.4,0.8,0,1.6-0.7,2
		C59.5,160.2,59.3,160.2,59.1,160.2z"/>
	<path class="st4" d="M119.1,198.3c-19.8,0-38.6-8.7-51.5-23.7c-0.5-0.6-0.5-1.6,0.2-2.1c0.6-0.5,1.6-0.5,2.1,0.2
		c12.3,14.4,30.3,22.7,49.2,22.7c5.6,0,11.1-0.7,16.4-2.1c0.8-0.2,1.6,0.3,1.8,1.1c0.2,0.8-0.3,1.6-1.1,1.8
		C130.7,197.5,124.9,198.3,119.1,198.3z"/>
	<path class="st4" d="M66.2,145.7c-2.4,0-4.4-2-4.4-4.4c0-2.4,2-4.4,4.4-4.4c2.4,0,4.4,2,4.4,4.4C70.6,143.7,68.6,145.7,66.2,145.7z
		 M66.2,139.8c-0.8,0-1.4,0.6-1.4,1.4c0,0.8,0.6,1.4,1.4,1.4c0.8,0,1.4-0.6,1.4-1.4C67.6,140.5,67,139.8,66.2,139.8z"/>
	<path class="st4" d="M62.9,170.5c-2.4,0-4.4-2-4.4-4.4s2-4.4,4.4-4.4c2.4,0,4.4,2,4.4,4.4S65.4,170.5,62.9,170.5z M62.9,164.6
		c-0.8,0-1.4,0.6-1.4,1.4s0.6,1.4,1.4,1.4c0.8,0,1.4-0.6,1.4-1.4S63.7,164.6,62.9,164.6z"/>
	<path class="st4" d="M152.7,176.3c-2.4,0-4.4-2-4.4-4.4c0-2.4,2-4.4,4.4-4.4c2.4,0,4.4,2,4.4,4.4
		C157.2,174.3,155.2,176.3,152.7,176.3z M152.7,170.4c-0.8,0-1.4,0.6-1.4,1.4c0,0.8,0.6,1.4,1.4,1.4c0.8,0,1.4-0.6,1.4-1.4
		C154.1,171.1,153.5,170.4,152.7,170.4z"/>
	<path class="st4" d="M86.3,92.7c-2.4,0-4.4-2-4.4-4.4c0-2.4,2-4.4,4.4-4.4c2.4,0,4.4,2,4.4,4.4C90.8,90.7,88.8,92.7,86.3,92.7z
		 M86.3,86.8c-0.8,0-1.4,0.6-1.4,1.4c0,0.8,0.6,1.4,1.4,1.4c0.8,0,1.4-0.6,1.4-1.4C87.8,87.5,87.1,86.8,86.3,86.8z"/>
	<path class="st4" d="M161.2,83.8c-2.4,0-4.4-2-4.4-4.4s2-4.4,4.4-4.4c2.4,0,4.4,2,4.4,4.4S163.7,83.8,161.2,83.8z M161.2,77.9
		c-0.8,0-1.4,0.6-1.4,1.4s0.6,1.4,1.4,1.4s1.4-0.6,1.4-1.4S162,77.9,161.2,77.9z"/>
	<path class="st4" d="M184.2,145.2c-2.4,0-4.4-2-4.4-4.4c0-2.4,2-4.4,4.4-4.4c2.4,0,4.4,2,4.4,4.4
		C188.6,143.2,186.6,145.2,184.2,145.2z M184.2,139.4c-0.8,0-1.4,0.6-1.4,1.4c0,0.8,0.6,1.4,1.4,1.4c0.8,0,1.4-0.6,1.4-1.4
		C185.6,140,184.9,139.4,184.2,139.4z"/>
</g>
</svg>
