<?xml version="1.0" encoding="utf-8"?>
<!-- Generator: Adobe Illustrator 24.1.0, SVG Export Plug-In . SVG Version: 6.00 Build 0)  -->
<svg version="1.1" id="Calque_1" xmlns="http://www.w3.org/2000/svg" xmlns:xlink="http://www.w3.org/1999/xlink" x="0px" y="0px"
	 viewBox="0 0 818 1344.4" style="enable-background:new 0 0 818 1344.4;" xml:space="preserve">
<style type="text/css">
	.st0{fill-rule:evenodd;clip-rule:evenodd;fill:#FFFFFF;}
	.st1{fill-rule:evenodd;clip-rule:evenodd;}
</style>
<desc>Created with Sketch.</desc>
<g>
	<g id="body_x2F_mono_x2F_Device">
		<path id="_xD83C__xDFA8_-Background" class="st0" d="M87.5,973.4c-10.5,98.8-19.3,230-28.7,329.8c-0.4,6.1,5.8,12.4,12,12
			c43.6-3.1,87.3-4.5,131.1-4.8c151.2-4.4,304.7,18.8,454.2-10.2c2.4,12,19.3,11.7,22.7,0.6c2.9-9.3,4.1-20,1.7-29.4
			c15-1,32.7,1.5,43.7-11c16.1,2.5,23.5-30,29.9-41.5c0,0,0,0,0,0c9.9-32.4,52.6-188.4,23.7-205.7c-3-79.7-24.5-158.7-69.5-224.6
			c0.5-2.5,0.1-5.2-1.5-7.8c-14.6-25.1-34.9-48.4-63.6-56.8c-25.3-18-54.6-29.5-84.8-36.1c-4.2-3.5-10.4-4-14.8,0.2
			c-34.8-13-73.7-29-90.7-64.5c0.5-6.6-1-12.8-3.8-18.4c-2.5-11-2.9-28.9-18.7-19c-29.4-16.8-109.1-4.5-129.3,23.9
			c-6,7.8-4.4,16.3-5.9,25.1c-3.4,20.2-4.4,42.1-17.3,63c-17,6.5-36.1,4.6-51.9,14.5c-5.8-5.6-15.2-3.6-16.1,4.2
			c-15.7,8.2-30.3,19.1-45.4,28.5c-13.3,9.4-30.2,16.2-36.5,32.6c-17.3,1.1-35.1,3-52.4,0.6c-10.1-2.5-18.8,8.5-13.5,17.6
			c14,27,23.8,55.9,32.9,84.9c2.5,8.3,7.1,16.9,4,25.6C92,928,90,950.8,87.5,973.4z"/>
		<path id="_xD83D__xDD8D_-Ink" class="st1" d="M460.2,632.4c4.8,10.5,11.5,20.2,20.3,27.7c8.9,7.5,20,11.3,30.9,15.1l3,1
			c13,4.6,26,10.4,39.3,14.1c0.5-0.2,1-0.3,1.5-0.4c-0.1-0.3-0.1-0.5-0.2-0.8l-0.1-0.6c-0.2-1.7,1.4-3.3,2.8-3.7
			c0.7-0.2,1.3-0.3,2-0.5c0.6-0.5,1.3-0.9,2.3-0.9c13.9-0.3,27.8,6.7,39.2,14c1.8,0.6,3.6,1.1,5.3,1.8c11,4.1,21.7,8.7,32.1,14
			c21.4,10.9,41,24.9,56.9,43c15.3,17.3,27.3,37.6,38.1,58l1.3,2.5c10.8,20.6,20.3,42,28.3,63.8c32.1,87.5,40.6,185.2,20.8,276.4
			c-5.4,24.8-12.7,49.5-23,72.7c-4.8,10.8-10.3,21.6-18.1,30.5c-3.7,4.2-8.1,8.7-12.9,11.5c-4.4,2.6-28,11.1-51.6,7.2
			c1.6,6.4,2,13.3,2.2,19.9l0.1,3.9c0.3,8.1-12.7,8.2-12.6,0c0.1-8.4,0-17.4,2.2-25.7c-8-2.3-15.7-5.7-22-8.8
			c-24.2-11.9-47.6-25.4-71.6-37.6l-2.4-1.2c-9.7-5-19.2-10.4-28.6-15.9c-0.4,0.8-0.8,1.5-1.4,2.2c-1.4,1.6-3,3-4.4,4.6
			c-3.2,3.5-7.3,7.2-12.5,6.5c-4.4-0.5-6.8-3.6-6.1-8c0.9-5.6,6.3-8.5,11-10.2l2-0.8l1-0.4c-9.6-5.8-19-11.7-28.4-17.7
			c-22.5-14.3-44.7-29.1-66.4-44.6c-12.2-8.7-24.3-17.7-36.3-26.7c-5.8-4.4-11.6-8.8-17.4-13.3c-4.1-3.2-8.6-6.3-12.6-9.7
			c-2.3,1.4-4.9,2.4-7.7,2.6c-5.4,0.4-12-2.5-13.5-7.9c-1.7-1.3-3.3-2.4-5.4-3.2c-1.9-0.6-3.8-1.2-5.7-1.7
			c-4.4-1.2-8.9-2.2-13.4-3.3l-1.8-0.5c-6.7-1.7-13.5-3.2-20.2-5.2c-6.5-2-13-4.5-18.5-8.6c-5.1-3.8-8.1-8.3-11.1-13.6l-1-1.6
			c-4.1-7.1-12.5-8-19.9-9.8l-2.4-0.6c-6.9-1.7-13.7-3.6-20.2-6.3c-8.2-3.4-16.1-9.3-20.8-16.9c-0.7,0.3-1.4,0.5-2.2,0.7
			c-4.7,1.3-9.3,1.9-14.1,2.1c-4.3,0.2-8.6,0.2-12.9,0.3c-4.3,0.1-9.5,0.9-13.7-0.3c-6.1-1.7-10.6-10-13.9-15.2l-1.4-2.2
			c-8.2-13-15.2-26.8-22.1-40.5l-2.6-5.2c-10.8-21.8-21.1-43.8-30.9-66.1c0.4,5.5,0.6,11,0.7,16.5c0.1,14.8-0.1,29.6-0.7,44.4
			c-1.2,29.6-3.6,59.1-6.9,88.6c-6.5,58.4-16.4,116.5-21.6,175.1c-1.5,16.7-2.8,33.4-3.9,50.1c-0.6,8.4-1,16.7-1.4,25.1
			c-0.2,3.9-0.2,7.7-0.5,11.6c-0.3,5-1.5,7.9-4.7,11.8c-2.5,3.1-7,1.5-8.9-1.1c-4.3-5.9-3.2-12.5-2.8-19.4l0.3-5.5
			c0.4-6.2,0.8-12.4,1.3-18.5c1.2-14.8,2.7-29.6,4.4-44.4c3.5-29.2,7.1-58.4,11-87.6c7.8-58.3,16.4-116.5,22.1-175.1
			c1.6-16.4,2.9-32.8,3.9-49.2c0.7-11.2-0.3-24.5,0.4-35.7c-6.6-15.3-31.4-72.3-37.7-86.6c-1.8-4.2,0.1-6.7,5.1-7.4
			c19.3-2.7,38.6-4.5,58-5.8c1.3-0.1,3.6-2.5,4-3.6c2.1-4.8,6.9-8.9,10.5-12.5l1-1c3.8-3.8,7.9-7.3,12.1-10.6c9-7.1,18.7-13,29-17.9
			c10.2-4.9,20.7-9.2,30.7-14.6c5.1-2.8,10-5.9,14.8-9.2l1.3-0.9c1.3-0.9,2.7-1.8,4.2-2.6c0-0.7-0.1-1.3-0.1-2
			c-0.2-12,18.2-12.3,19.1-0.8c12.2-5.1,25.8-9.4,34.9-19.7c4.8-5.4,6.8-13.6,9.1-20.4l0.4-1.3c2.2-6.4,3.1-20,5.9-26.2
			c0.3-0.7,3.4-0.3,3.4,0.4c0.2,7.3-1,21.7-2.3,28.9c-3.2,12.8-6.2,21.2-9.3,25.1c-4.5,5.9-11.2,10.3-17.5,14.1l-0.6,0.4
			c-6.6,3.9-14.1,7.9-21.6,9.6c-0.7,0.1-1.3,0.2-2,0.1c2.1,24.1,11.2,48.6,27,66.8c20.8,24,50.4,37.1,80.9,44
			c59.1,13.5,125.1-0.6,166.7-46.5c10.5-11.6,19.1-24.4,26.2-38.3c5.7-11.2,9.6-23.1,14.3-34.8c-5.8,3.5-12.9-0.3-19.4-2.7
			l-24.7-9.2l-1.6-0.6c-14-5.1-29.2-9.6-40.7-19.3c-22.4-18.9-29.4-53.2-28.7-81.3c0-1.3,1.8-1.5,2.2-0.3
			C451.6,605.5,454.2,619.5,460.2,632.4z M193.3,1299.2c-0.3,8.8-11.6,11.7-16.3,4.4c-4.6-7-6.1-19.4-2.9-27.3
			c1-2.4,4.1-4.7,6.7-2.7C188.3,1279.1,193.6,1290,193.3,1299.2z M156,1084.1l0.1,2.9c0.4,9.6,0.5,19.2,0.4,28.8
			c-0.2,21.1-0.8,42.2-1.8,63.3c-1,21.1-2.3,42.2-4,63.2l-0.2,2.9c-0.7,9.6-1.4,19.2-2.6,28.7c-1.2,10.2-1.9,20.7-5.2,30.4
			c-1.3,3.7-6.1,2.8-6.5-0.9c-0.8-6.8-0.6-13.6-0.1-20.5c-2.6,0.7-5.2,0.9-8,1l-3,0.1c-5.5,0.2-11.5,1.1-15.5-3.5
			c-2.6-3.1-2-6.9,1.2-9.2c4.8-3.5,10.2-1.4,15.4,0.1l0.9,0.3c3.5,1,6.7,1.7,9.6,3.3c0.1-1,0.2-2,0.2-3c0.7-10.5,1.8-21,2.6-31.6
			c0.6-7.9,1.2-15.9,1.7-23.9c-4.9,0.5-9.8,1.7-14.7,2.4c-4.4,0.7-8.6-1.4-9.3-6.2c-0.6-4.4,2.8-8.4,7.3-8.4c3.7,0,7.1,0.1,10.5,1.5
			c2.3,0.9,4.5,2,6.7,3.2c0.7-10.3,1.3-20.6,1.9-30.9c1.2-20.8,2.3-41.5,3.2-62.3c0.5-10.6,1.1-21.1,1.9-31.7l0.1-1.1
			c0.6-9.6,0.6-19.6,2.8-28.9c0.2-1,1.8-1,2.1,0C155.9,1063.8,155.6,1074.3,156,1084.1z M593,1280.8c-0.5,1.8-1.9,3.6-3.1,5.1
			l-0.8,1c-2.8,3.6-5.9,6.6-10.1,8.5c-5.3,2.4-11.5,1.1-13.9-4.7c-2.3-5.5,0.7-11.4,6.4-13.2c3-1,6.2-1.6,9.1-2.7
			c1.8-0.7,3.4-1.9,5.3-2.2c1.5-0.2,3-0.2,4.5-0.3c1.6-0.2,2.7,1.5,2.8,2.8C593.3,1276.9,593.5,1279,593,1280.8z M322.1,1252.7
			c-3.9,6.1-10.1,9.1-16.2,12.7l-0.3,0.2c-6.3,3.7-13.1,9.3-20.7,7.4c-4.8-1.2-6.4-6.6-4.3-10.7c3.4-6.7,13-8.3,19.6-10.6l0.5-0.2
			c6.5-2.3,12.5-4.6,19.5-3.7C322.2,1248.1,323.1,1251,322.1,1252.7z M561.4,691.8c1.5,1.3,2.6,3.3,2.9,5.4c0.5,0.1,0.9,0.4,1,0.9
			c5.9,29.2-11.5,60-29.1,81.9c-5.6,7-11.9,13.5-18.7,19.5c1.2,0.2,2.4,0.6,3.5,1l0.9,0.3c1.2,0.4,2.3,0.8,3.4,1.3
			c3.6,1.5,5.8,3.8,6.9,7.7c1.7,6.1-3.1,12.3-9.4,12.3c-3.3,0-6.4-1.1-8.5-3.7c-0.9-1.1-1.7-2.2-2.5-3.3l-1.2-1.8
			c-0.7-1-1.3-2-1.8-3.2c-0.4-0.9-0.6-1.8-0.7-2.8c-14.3,10.9-30.3,19.5-47,25.6c-32.4,11.8-67.7,13.8-101.6,8.2
			c-33.2-5.5-67.1-18.5-91.7-42.1c-23.6-22.7-39.4-53-42.4-85.6c-4.8,5.2-10.1,9.9-15.9,13.7c-9.3,6-19.5,10.2-29.4,15.1
			c-9.9,4.9-19.4,10.5-28.1,17.3c-4.4,3.5-8.6,7.2-12.5,11.1c-2.4,2.4-4.5,5.1-6.9,7.6c9.2-0.5,18.5-0.9,27.7-1.2
			c8-0.3,16.3-1.1,24.2-0.5c7.7,0.6,13.1,4.6,17.2,11.1c9.1,14.5,16.3,30.7,23.6,46.2l2.8,6c2.2,4.6,4.3,9.3,6.3,14
			c1.6-1.1,3.3-2.1,4.9-2.9l1.2-0.6c3.3-1.7,6.8-2.1,10.4-2.2l1,0c3.5-0.1,4.6,4.1,2.7,6.4c-2.1,2.6-3.9,5.3-6.4,7.5
			c-2.7,2.4-4.7,5.1-7.8,6.7c3.3,8.8,6.1,17.7,8,26.8c3.7,0.7,7.3,1.5,10.9,2.4c13.6,3.2,27,7.2,40.4,11.3c4.2,1.3,8.6,2.6,12.8,4
			c-0.9-1.2-1.4-2.6-1.5-4.2c-0.3-6,4.2-11.8,6.3-17.4l0.6-1.5c1.9-4.9,4.2-9.6,6.4-14.5c1-2.3,5.2-1.8,5.6,0.7
			c1,6.5,1.4,12.3,0.4,18.8c-1,6.3-1.6,14.6-6.5,19.1c-1,1-2.2,1.5-3.4,1.8c5.1,2.1,9.9,4.6,14.3,7.9c9.9,7.5,18.1,17.5,25.9,27.3
			l4.5,5.7c6.1,7.7,11.9,15.6,17.6,23.5c3.8,0,7.5,1.3,10.6,3.6c1.1-1.2,2.7-2.1,4.4-2c5.9,0.2,10,2.9,15.1,5.7l5.4,2.9
			c3.6,2,7.2,3.9,10.7,5.8c10.2,5.5,20.5,11,30.8,16.5c20.4,11,41.1,21.6,62,31.8c29.6,14.5,60.4,26.7,91.8,36.9
			c-0.9-4.8-0.9-10.1-1.1-15.2c-0.6-12.6-1-25.1-1.2-37.7c-0.2-12.2-0.2-24.5,0.5-36.7l0.1-1.3c0.6-11.2,0.8-23.5,6.1-33.5
			c0.4-0.8,1.6-0.5,1.9,0.2c3.6,10.7,4.9,22.5,6.6,33.6c0.7,4.2,1.2,8.5,1.8,12.7c0.4-0.1,0.8-0.2,1.3-0.3c2.8-0.6,5.7-0.8,8.6-0.4
			c3.2,0.4,4.4,5,0.8,6l-0.6,0.2c-3.4,1.1-5.9,3.2-9,4.8c0.5,4.6,0.9,9.2,1.2,13.8c0.9,11.9,1.8,23.8,2.4,35.7
			c0.3,5.7,0.8,11.4,1,17.1c0.1,2.6-0.3,4.9-0.9,7.1c5.6,1.7,11.2,3.3,16.9,4.8l0.8,0.2c15.4,4.2,30.2,9.3,43,18.2
			c4.4,3.1,3.2,7.4-0.9,5.2c-11.8-6.5-24.7-11.5-37.9-14.1l-9.3-1.8c-4.9-0.9-9.8-1.9-14.7-3c-0.3,1.4-0.8,2.8-1.8,4.3l-4.4,6.8
			c-2.4,3.7-7.3,4.9-11,2.1c-3.7-2.9-3.7-7.8-0.8-11.2l4.3-5c-10.6-2.5-21.1-5.2-31.6-8.4c-18.5-5.7-36.5-13.2-54.3-20.9l-10.3-4.4
			c-21.1-9.1-41.7-19.2-62-29.9c-11.4-6-22.6-12.2-33.9-18.5c-5.6-3.1-11.2-6.3-16.8-9.5c-1.6-0.9-3.1-1.7-4.6-2.5
			c1.1,5.9,1.1,12.3,0.9,18.4l-0.1,3.6c-0.2,8.3-1,16.8-2.7,25c-2.7,13.5-8.2,26.6-16.6,37.6c-0.5,0.7-1,1.4-1.6,2
			c2.2,1.7,4.5,3.5,6.7,5.1c5.4,4,10.8,8,16.2,12c10.4,7.6,20.9,15,31.5,22.3c21.2,14.6,42.6,28.8,64.4,42.5
			c33.7,21.4,68,41.9,102.9,61c0.3-1.2,0.5-2.5,0.5-3.7l0-0.2c0.6-5.5,8-8.1,11-2.8c2.8,4.9,3.9,9.4,3.3,14.7
			c5.2,2.8,10.5,5.6,15.7,8.3l1.2,0.6c11.9,6.2,24,13.2,36.7,17.6c6.4,2.2,9.9,3.4,22.6,3.4c12.7,0,23.5-5.5,26.6-8
			c3.8-3,7.3-6.2,10.4-10c6.4-7.6,11.6-16.2,15.5-25.3c8-18.6,13.5-38.4,18.2-58l0.8-3.4c3.6-15.4,6.5-31,8.6-46.7
			c-2.7,0.4-5.3,0.6-8.2,0.2c-3.3-0.5-6.6-1.2-9.9-2c-8.8-2.2-4.9-16.3,3.7-13.5c3,1,6,1.8,9,2.6c2.4,0.5,4.5,1.5,6.6,2.4
			c2.8-25.2,3.6-50.6,2.3-75.8c-1.5-29.8-5.8-59.4-12.7-88.4c-0.7,0.4-1.6,0.5-2.7,0.2c-6.9-2.3-13.9-4.8-21-6.1
			c-3.1-0.6-4.9-3.8-5.1-6.7c-0.1-1.3,0.3-2.4,0.9-3.5c1.4-2.5,5-4.2,7.8-3.2c6.7,2.5,12.7,5.3,17.7,10c-2.9-11.1-6.1-22.2-9.7-33.1
			c-14-42.5-33.6-84.4-60-120.7c-15.3-21-33.7-38.2-56.1-51.4c-11.1-6.5-22.7-12.1-34.4-17.5c-11-5.1-21.3-11-32-16.7
			c-2.8-0.5-5.6-1.1-8.4-1.7C563.4,691.4,562.4,691.6,561.4,691.8z M401.7,1205.9c7.6,2.9,16.3,5.5,20.9,12.5
			c5.2,8-3.4,19-12.4,16.2c-7.4-2.3-12.3-9.5-16.8-15.6l-0.8-1.1c-3.4-4.5-7.2-8.5-11.1-12.4l-4.2-4.2c-2.8-2.8,0.8-7.5,4.3-5.5
			C388.1,1199.4,394.6,1203.2,401.7,1205.9z M685,1175.9l0.4,0.4c4.2,3.9,10.1,7.7,12.5,12.8c2,4.2,1.8,9.1-1.6,12.6
			c-3.1,3.1-8.9,4.3-12.6,1.6c-11.5-8.2-13.3-25-17.9-37.4c-1.4-3.8,3.9-5.2,6-2.5C675.7,1168.4,680.5,1171.5,685,1175.9z
			 M192.9,1178.3c6.5,2.8,13.9,5.5,18.8,10.5c6,6.3,0,17.1-8.6,14.7c-6.2-1.7-11-6.1-16.1-9.8l-0.5-0.4c-4.7-3.5-8.1-7.2-11.4-12.2
			c-0.8-1.2-0.7-2.9,0-4.1c0.1-0.2,0.2-0.3,0.3-0.4c2.8-3.6,12.4-0.6,16,1L192.9,1178.3z M514.8,1129.3c-4.5,2.3-8.8,0.8-11.8-3.1
			c-0.8-1.1-1-2.4-1.1-3.8l0-0.6c-0.3-3.8,2.9-7.3,6.3-8.3c8.5-2.5,17.4-6,25-10.6c2.7-1.6,5.6,1.6,4.2,4.2
			C531.8,1117,524.9,1124.2,514.8,1129.3z M305.2,1116.6l-0.2,0.2c-4.6,4.6-12.3,11.8-19,9.6c-2.5-0.8-5.2-3.4-4.8-6.3
			c0.5-4.4,1.9-6.4,5.6-8.7c3-1.9,5.8-4,8.8-5.9c5.5-3.6,11.5-6.7,17.9-7.9c1.1-0.2,1.9,0.6,1.7,1.7
			C313.9,1105.9,309.9,1111.7,305.2,1116.6z M117.9,1101.8c-1.8,3.4-4.9,6.5-7.4,9.4l-0.3,0.3c-4.3,4.9-12.9,11.5-19.3,6.3
			c-6.8-5.5,1-14.9,5.8-18.7l1.3-1c2.6-2.1,5-4.4,7.7-6.3c2.9-2.1,6.3-3.6,9.4-5.4c3.3-1.9,8.4,1.3,6.9,5.3
			C120.8,1095,119.6,1098.6,117.9,1101.8z M114.7,787.4c-16.4,1.2-32.8,2.7-49.1,4.8c4.4,7.7,8.3,15.6,12.1,23.6l2.9,6
			c8.8,18.5,17.1,37.2,25.6,55.8c11,23.9,21.9,48,33.7,71.6c0.1-1.3,0.8-2.5,2.2-3.5c8.8-6.4,20.5-6.5,31.1-6.9l4.5-0.2
			c12.4-0.5,24.7-0.7,37.1-0.5c26.6,0.4,53,3.2,78.9,8.8c0.6,0.1,0.5,1.1-0.1,1.1c-25.3-1.2-50.6-2.1-75.9-2.1
			c-12.4,0-24.7,0.4-37.1,1.2l-0.7,0c-8.8,0.5-19.4,0.1-27.9,3.5c5.7,4.1,13.1,6.2,19.8,7.9l2.6,0.7c10.7,2.7,21.6,4.3,32.6,5.6
			c20.8,2.6,42.4,4.4,61.9,12.7c4.4,1.9,2.1,9-2.4,8.9c-18.4-0.8-36.9-0.1-55.3,0c-9.2,0.1-18.4,0.2-27.6,0.1c-4.6,0-9.2,0-13.8,0
			c-1.6,0-8.6-0.4-8.8,2.4c0.4,0.8,0.9,1.6,1.4,2.3c2.3,1.5,7,2.1,8.7,2.4l2.7,0.6c3.5,0.8,7.1,1.5,10.7,2.2
			c9.2,1.8,18.5,3.3,27.9,4.5c18,2.3,36.1,3.3,54.3,4c4.7,0.2,4.7,7.3,0,7.3c-17.2,0-34.4-1.5-51.4-3.7c-15.8-2.1-31.9-4.5-47.4-8.5
			c1.4,2.2,2.9,4.4,4.4,6.6c0.4,0.6,0.9,1.2,1.3,1.8c0.4,0.5-0.4,0.1,0.2,0.4l0.2,0.1c0.2,0.1,2.6,0.2,4.2,0.2l9.3,0
			c7.1,0,14.9-0.4,21.9,1.5c-0.1-0.5-0.3-1-0.4-1.6c-0.2-0.9,1.1-1.5,1.5-0.6c0.6,1.1,1.2,2.1,1.9,3.1c0.5,0,1,0.1,1.5,0.4l0.3,0.2
			c1.3,0.7,1.8,2.2,1.5,3.6l0.4,0.5c7.3,7.6,17.4,11.7,27.9,14.2c12.3,3,30.6,2.8,39,13.8c4,5.2,5.6,11.1,10.9,15.3
			c4.6,3.6,10.1,5.7,15.6,7.4l1.3,0.4c7.4,2.2,15,3.9,22.4,5.8c3.8,1,7.6,2,11.4,2.9c4.9,1.2,8.9,1.3,13.9,0.7
			c2.4-0.3,4.4,0.8,5.8,2.6c1-1.1,1.9-2.2,2.7-3.3l1.9-2.4c2.3-3.1,4.4-6.5,5.9-10c4-8.8,5.8-18.7,7.2-28.3
			c1.4-10.3,1.7-20.7,2.8-31.1c0.5-4.1,0.7-7.8-0.5-11.8c-0.7-2.4-1.7-4.2-3-5.8c-5.7-5.3-11.4-10.7-17-16.2
			c-8.9-8.7-17.2-17.9-25.7-26.9c-7.7-8.1-16.1-14.1-26.6-17.9c-9.3-3.4-18.9-6.3-28.4-9.2l-5.2-1.6c-23.3-7-47.9-13.5-72.4-13.1
			c-5.3,0.1-17,1.3-17.6,8.5c-0.8,10.9,17.9,10.7,25.3,11.3l0.6,0.1c6.7,0.7,13.3,1.6,19.9,2.7c6.8,1.1,13.2,3.5,19.8,5.5l1,0.3
			c12.1,3.7,25.3,7.3,36.2,13.9c1.2,0.7,0.4,2.4-0.9,2.1c-13.8-2.6-26.9-7.8-40.9-9.8c-13.5-1.9-27.1-3.9-40.7-5
			c-10.9-0.9-23.3-2.3-28.9-13.2c-4.5-8.7-0.3-18.3,7.9-22.8c8.9-4.8,19.3-4.6,29.1-4l1.7,0.1c2.6,0.2,5.3,0.4,7.9,0.7
			c-0.6-1-1.1-2.1-1.7-3.2c-1.6-3-3.2-5.9-4.8-8.9c-2.7-4.8-8.3-11.4-7.9-17.1c0.1-1.9,2-3,3.7-2.1c5.2,2.7,7.4,10.9,9.4,16.1
			l0.1,0.3c1.6,4,4.9,10.5,4.7,15.3c5.1,0.6,10.2,1.4,15.3,2.4c-5.5-9.4-10.3-19.2-14.9-29.1c-0.2-0.4-0.4-0.7-0.5-1.1
			c-2.2-4.8-4.5-9.7-6.7-14.5c-7.4-15.6-14.8-31.3-22.8-46.6c-3.4-6.5-6.7-16.5-14.8-18C178.4,784,129.6,786.3,114.7,787.4z
			 M208.3,1060.8c1.1,3-0.3,6.3-2.3,8.5c-1.7,1.9-3.8,2.5-6.2,2.6c-3,0.1-6.1-1.7-7.6-4.3c-2.4-4.2-3.5-8-4.4-12.7
			c-0.4-2-1.1-4.3-1.1-6.4c0-1.7,0.6-3.6,0.9-5.3c0.5-2.3,3.3-3.1,5.2-2.1C200.3,1045.1,205.5,1053,208.3,1060.8z M585.7,1038.6
			c-6.8,4.3-17.6,6.9-25.4,4.3c-13.1-4.3-10.3-22.5,3.2-23.5c9-0.7,19.3,6.1,23.7,13.8C588.2,1035.1,587.5,1037.4,585.7,1038.6z
			 M720,1015.2c-2.2,2.3-5.1,4.2-7.8,5.9l-1.1,0.8c-6.2,4.2-13.3,9.2-20.5,11.1c-3.9,1.1-8.1-0.7-10.2-4.1c-0.8-1.3-1-2.5-1.2-3.9
			l-0.1-0.7c-0.2-2.8,1.8-6.6,4.5-7.8c6.6-2.9,13.8-4.1,20.6-6.4c3.2-1.1,6.4-2.8,9.7-3.8c3.2-1,6.7-1.3,10-2
			c1.5-0.3,3.1,1.3,2.1,2.8C724.1,1009.8,722.2,1012.8,720,1015.2z M469.2,995.3c-2.7,3.9-9.8,11.5-14.9,6.4c-4-4,0.5-9.9,3.5-13
			l0.3-0.3c4.3-4.2,8.8-7.9,13.2-12c2.2-2,5.9,0,5.1,3C474.8,985.2,472.7,990.3,469.2,995.3z M157.5,982.4c0.9-0.7,1.9-1.3,3-1.8
			c6.1-2.4,13.7-1.5,20.2-1.7c8.9-0.3,17.8-0.5,26.6-0.6c7.7-0.1,15.4-0.2,23.1-0.3c-10.2-1.7-20.5-3-30.9-4.5
			c-10.7-1.5-21.5-3.4-31.9-6.5c-8.8-2.6-18.7-5.8-25.2-12.6C147.4,963.9,152.3,973.2,157.5,982.4z M562.7,898.9
			c11.2,5.2,1.3,23.1-9.9,16.9c-6.5-3.6-12.8-7.7-18.8-12.1l-0.5-0.4c-5.4-4-10.9-7.4-14.3-13.3c-1-1.8,0.3-3.7,2.2-3.9
			c7.2-0.7,13.5,2.1,20.3,4.3C548.8,892.7,555.9,895.8,562.7,898.9z M420.3,874.9c3.4,0,3.7,4.9,0.6,6c-10,3.4-19.9,7.1-29.8,10.8
			c-10,3.7-14-14.7-2.1-15.2c10.3-0.4,20.7-0.9,31-1.6L420.3,874.9z M694.3,843.3c1.7,0.2,3.5,2.1,2.2,3.9c-3.8,5.3-7.3,9.5-13,12.8
			c-6.5,3.8-13.1,7.1-20.7,7.4c-10.4,0.4-16-16.3-5.6-20.7c5.6-2.4,11.1-3.1,17-3.7l2.9-0.3c2.7-0.3,5.4-0.8,8.1-0.7
			C688.2,842.3,691.3,843,694.3,843.3z M181.4,806.1l0,0.3c2.7,2.7,5,6.7,6.5,9.4l1,1.8c3.4,6.2,6.2,13.6,1.7,20
			c-3.2,4.5-8.8,4.4-12.1,0c-6.4-8.7-10.7-18.7-12.4-29.4C164.5,797.1,180,794.9,181.4,806.1z M594.4,752l0.3,0.5
			c1.2,2.3,2.7,4.8,3.4,7.2c0.9,3.2,0.1,6.7-0.5,10l-0.2,0.8c-1.2,6.9-10.6,8.3-15,4c-2.2-2.2-4.6-4.4-5.8-7.3
			c-1.1-2.7-1.3-6-1.7-8.9c-0.8-5.4-0.1-11.3,1.1-16.6c0.8-3.8,5.6-4.5,8.2-2.2C588.1,743,591.9,747.4,594.4,752z M222.9,757.2
			c-3,1.2-6,2.9-8.5,5c-3.1,2.6-5.8,5.1-10.1,4.1c-2.1-0.5-3.6-2.7-3.6-4.7c0.1-8.9,13.2-10.6,20.4-10.8l0.9,0
			C226,750.8,226.2,755.9,222.9,757.2z"/>
	</g>
	<g id="head_x2F_mono_x2F_Bun-2">
		<path id="_xD83C__xDFA8_-Background_3_" class="st0" d="M190.5,423.2c-8,36.4-5,74.1,4.9,109.8c8.5,31.9,23.3,67.3,56.5,82.1
			c81.9,36.1,177.4,2.1,228.1-69.1c2.3-3.1,2-7.6,0.2-11.1c43.8-31.8,70.3-53.1,58.7-111.5c-8.9-62.6-10.2-94,17.4-152.2
			c8.4-22.4,1.6-47.5-14.9-64.3c1.9-2.4,2.8-5.6,1.9-8.9l0.1,0c-2.9-7.7-6.9-13.3-13.3-18.5c-37.9-30.3-49.3-11.4-97,4.6
			c-21.1,7-81.6,7.8-99.6,13.1c-44.9,18.5-102.9,34.6-123.6,83.1c-11.9,29.2-8.2,61.4-10.5,92.2
			C197.9,389.6,193.7,406.4,190.5,423.2z"/>
		<path id="_xD83D__xDD8D_-Ink_4_" class="st1" d="M501.8,43.6l0,0.9c0,1.9,0.1,3.8,0.2,5.6c7.1-0.1,14.3,0.8,21.2,2.3
			c2.9,0.6,5.8,1.5,8.6,2.4c3.5,0.3,7,1.1,10.4,2.5c3,1.3,5.8,3,8.3,5c4.1,1.9,8.2,3.8,12.4,5.6l9.9,0.5l0.4,0
			c1.7,0.1,3.2,0.5,4.6,1.2c3-2.4,6.2-4.6,9.5-6.5c6.1-3.5,12.5-1,16.4,4.3c2.5,3.3,4.2,7,5.5,10.9c4.4,1.4,7.4,5.6,7.8,10.1
			c11.8,1.4,22.8,7.5,28.8,18.9c0.2,0.3,0.3,0.7,0.5,1c3.9,3.5,7.2,7.6,9.8,12.2c6.1,1.7,11.9,4.5,16.9,9c8,7.2,11.9,19.7,8.5,30.1
			c-0.4,1.3-0.9,2.5-1.5,3.6c6.1,6.9,10.9,15,14.2,23.8c1.2,3,0.5,6.4-1.2,9.2c4.3,10.3,3.6,22.7-4.4,31c0.8,1.6,1.5,3.3,2.2,4.9
			c0.3,0.5,0.6,1,0.8,1.5c6.5,12.6,6.9,26.1,1.3,39.1c-1.5,3.4-6.7,6.4-10.3,5.9c-6.8-0.9-13.4-2.3-19.9-4.3
			c4.1,4,7.8,8.6,10.6,13.7c4.3,7.6-1.1,18.4-10.3,18c-12.9-0.5-25.5-3.3-37.2-8.4c-1.8,1.4-3.9,2.4-6.1,3
			c-1.2,9.5-12.4,14.8-19.8,7.6c-2.9-2.8-5.9-5.7-8.8-8.5c-2.4,3.3-6.4,5.8-10,5.3c-2-0.3-4-0.4-6-0.4c1.4,1.4,2.7,3,3.8,4.8
			c2.5,3.8-1.6,8.4-5.6,7.3c-5.5-1.4-10.7-3.4-15.6-6c-0.4,0.3-0.8,0.5-1.2,0.7c0.9,1.9,1.5,4,1.8,6.2l0,0.2
			c0.8-0.2,1.7-0.3,2.6-0.3c7.7-0.1,14.2,6.8,14.5,14.3c0.1,1.8-0.2,3.4-0.8,5c2.4,10.1,2.9,21-0.5,30.1c0.5,1.1,0.4,2.4,0,3.5
			c2.1,2.3,3.5,5.4,3.8,8.8c0.5,5.8-2.3,10.5-6.2,14.4c-0.2,0.5-0.4,1.1-0.6,1.6c0,0.3,0.1,0.6,0.1,0.9c4,4.7,4.8,11.8,0.6,17.6
			c-0.2,0.3-0.4,0.5-0.6,0.7c-0.1,1.8-0.5,3.6-1.2,5.3c0.3,0.9,0.8,1.8,1,2.7c0.6,2.7,0.7,5.4,0.3,8.1c-0.5,3.4-1.7,6.6-3.5,9.5
			l-0.1,0.9c0.5,1.5,0.5,3.1,0.1,5c0.3,0.1,0.5,0.3,0.8,0.4c8.4-3.4,19-1.9,25,5.1c5.9,6.9,2.1,17.7-7.4,18c-4,0.1-8.2-0.5-12.2-1.8
			l-1.2,0.9c-3.3,2.3-7.2,3.6-11.1,3.6c-0.1,1.6-0.3,3.2-0.5,4.8c-0.5,5.6-1.7,11.1-4.2,15.8c5.4,6.8,10.5,14.2,16.6,20.4
			c5.5,5.6-1.7,15.8-8.6,11.2l-0.8-0.5c-7.6-4.9-16.6-7.6-23.6-13.5c-2.5,1.7-5,3.4-7.5,5.1c0.4,0.6,0.8,1.2,1.1,1.8l0.5,0.8
			c2.2,3.4,4.7,6.7,7.4,9.7c5.6,6.1,12.7,9.7,18.7,15.2c2.3,2.1-0.2,5.4-2.8,4.9c-8.6-1.6-15.6-8.5-20.9-15.3l-0.6-0.8
			c-2.8-3.6-5-7.4-6.9-11.5c-0.4-0.4-0.8-0.8-1.3-1.1c-1.5,1.2-2.9,2.5-4.2,3.8c-2.5,4.1-5.4,7.9-8.1,11.7c-1,1.5-2.9,2.7-4.8,2.9
			c-3.2,4.5-6.1,9.2-8.7,14.2c-3.5,6.9-15.3,2.1-12.6-5.3l0.9-2.5c-0.5-0.5-0.9-1.1-1.3-1.7c-1.1,1.9-2.2,3.8-3.4,5.6
			c-8.4,12.5-20.3,26.8-36.6,27.1c-5.2,0.1-8.8-6-6-10.5c3.5-5.7,7.9-9.4,12.9-13.3l2.2-1.7c5.2-4.1,10.1-8.6,14.6-13.4
			c4.4-4.8,8.4-9.7,12.2-15c0.8-1,2.8-4.9,5.1-7.6c-2.8-1.8-4.3-4.1-6-7.5c-1.9-3.9,1.9-7.4,5.7-5.7c1.7,0.8,3.8,0.9,5.5,1.6
			c1.2,0.5,2.4,1,3.7,1.4c3,0.9,6.2,1,9.3,0.6c6.8-1.1,12.5-5.4,16.8-10.5c9.4-11.1,14.5-27.9,11.9-42.3
			c-2.5-13.4-12.6-25.3-26.3-27.9c-12.8-2.4-27.7,7.2-30.2,19.8c-0.2,1-1.6,0.7-1.7-0.2c-0.3-3.7,0.2-7.2,1.2-10.4
			c-4.5,2.9-9.5,4.9-15,5.7c-0.2,0-0.4,0-0.5,0.1c-3.2,1.3-6.6,1.9-9.8,1.8c-1.4,0-2.6-1.1-2.6-2.6c0.5-26.4,5.9-52.5,13.6-77.8
			l-3,2.6c-4.7,4.2-9.7,9.3-15.9,11.2c-11.8,3.5-18.8-6.9-17.9-17.5c0.5-5.5,2.2-10.8,3.8-16.1l0.5-1.6c2.2-7.5,4.4-14.9,6.6-22.3
			c0-0.2,0-0.4,0-0.6c-8.1,4.4-18.3,7.1-25.3,0.3c-4.3-4.2-5.4-10.3-6-16l-0.1-1.2c-0.3-3.1-0.4-6.2-0.5-9.3
			c-5.6,6-11.9,11.2-19.4,14.4c-13,5.6-27.4,3.1-37.6-6.7c-0.1-0.1-0.2-0.3-0.4-0.4c-3.1,0.8-6.2,1.3-9.3,1.8
			c-11.9,1.9-24.7,3.8-36.7,3.6c-10.9-0.2-22.4-2-31.5-8.5c-5.8-4.1-11-10.1-13.7-16.9l-0.2,0.1l0.1,0.2c0.9,2.5,0.5,5.1-1.7,7.7
			c-2,2.2-5.1,3.2-8.2,3.1c-0.6,1-1.4,2-2.6,3.1c-2.5,2.2-5.1,4-8.2,5.3c-6.5,2.9-13,3.2-19.9,2c-0.9-0.2-1.8-0.6-2.5-1.1
			c-3.4,6.7-6.1,13.7-8.2,20.9c-0.8,2.6-1.3,5.4-1.9,8.1c-0.5,7-0.8,14-1.1,20.9l-0.3,6c-0.8,17.5-0.6,34.9-1.1,52.4
			c-0.5,17.9-2.7,35.7-3.4,53.6c-5.1,126,44.5,155.3,103.1,162.9c24.8,3.2,52.6-4.3,67.7-9.3c8.8-2.9,13.7,7.3,1,12.3
			c-12.6,5-38,14-68.5,12.3c-58.1-3.4-105.7-47.2-116.6-104.7c-6.3-33.2-2.4-67.9-0.6-101.4l0.1-2.9c0.2-3.2,0.3-6.3,0.5-9.5
			c-2.4,3.3-5.7,5.9-9.5,7.6c-8.9,4.2-20.6,4.2-26-5.2c-1.7-3,1.2-7.5,4.8-6.2c5.7,2,12,3.8,18,2.2c4.3-1.2,10.4-4.5,13.3-8.8
			c0.6-10.9,1.2-21.8,2.2-32.6c0.7-7.6,1.4-15.3,2.4-22.9c-2.7-0.1-5.2-1.6-5.7-4.5c-0.7-4.5-0.9-9.1-1.6-13.6
			c-0.5-3.5-1.5-6.4-0.9-10.1c0.4-2.6,1.1-5.2,1.8-7.8c2.7-10.2,6.7-20.1,11.5-29.4c3.6-7,7.6-13.7,12.1-20.1
			c2.4-5.8,6.5-11.3,10.2-16.6l1-1.4l-0.4-2.2l-0.1-0.3c-0.9-5.4,0.9-10.2,5.6-13.2c12.2-7.8,24.3-15.7,36.5-23.5
			c5.2-3.3,11.6-5.8,17.6-6c5.5-7.3,14.2-11.9,24.1-13.5c7.9-1.3,15.8-1.4,23.5-3.2c7.4-1.8,14.6-4.3,22.1-5.6
			c11.6-2,24.6-2.1,35.5,3.2c8.9,0,17.7,0.6,26.6,2c2.9-3.9,6.3-7.4,10.1-10.4c-0.4-0.6-0.9-1.2-1.4-1.9c-2.6,0.6-5.5,0.3-8.3-1.4
			c-9.5-5.9-15.4-15.4-14.8-26.8c0.3-4.9,2.8-8.1,6.2-9.5c-1.2-3.8-2.7-7.4-4.5-11c-1.6-2.4-3.2-4.9-4.5-7.6
			c-7-13.7,12.1-24.9,20.6-12.1c1.5,2.2,2.8,4.4,4.1,6.7c1.8,2.6,3.8,5.1,6.1,7.3l-0.7-10.6l0-0.3c-0.1-3.9,2.4-7.7,5.7-9.8
			l-1.7-7.6c-2.6-11.6-6.9-24.5,0.1-35.5c9.7-15.3,31.7-17.2,47.1-9.7c0.9-1.8,1.6-3.5,2.4-5.4l0.1-0.3c2.2-5.4,6.9-9.2,13-8.3
			C497.2,32.7,502,37.6,501.8,43.6z M498,519.9c0.8-0.4,1.6-0.8,2.4-1.3c0.3-0.7,0.6-1.5,0.9-2.2c-1-0.1-2-0.3-3-0.5
			C498.4,517.2,498.3,518.6,498,519.9z M547.1,502.2c-0.2,0.1-0.4,0.1-0.5,0.2l0,0.1c1.4-0.2,2.8-0.2,4.2-0.1
			c-0.1-0.2-0.2-0.4-0.3-0.6l-0.7-1.2C548.9,501.2,548,501.8,547.1,502.2z M522.1,444.8c1.1,0.1,1.4,1.7,0.5,2.2
			c-6.9,3.6-13.9,9.1-19.6,14.3c-5.6,5.2-10.4,13.6-18.7,14.2c-3,0.2-5-2.6-5.2-5.2c-1-9.4,10.8-15.9,17.9-19.4l0.7-0.3
			c8-3.9,15.5-5.2,24.4-5.7L522.1,444.8z M562.4,322c1.1,1.7,1.8-0.3-0.3-0.4C562.2,321.8,562.4,321.9,562.4,322z M435,191.3
			c15.4,5,30,12.7,43,22.5c17.1,12.9,31.4,28.5,44.3,45.5c4.7,6.2,9.1,12.6,13.1,19.2l0,0.2c1.1,3.9,2.9,7.6,5,11.1
			c0.6-0.6,1.2-1,2.1-1.2c2.6-0.6,5-1.9,6.8-3.8c-0.4-1.7-1-3.3-1.8-4.8l-0.3-1.4c-1-4.6-1.8-9.1-3-13.6c-1.9-6.8-4.1-13.6-6.7-20.3
			c-10-13.4-21.3-25.8-34.4-36.2c-15-12-35.2-23.8-55.3-24.4C443,185.9,438.8,188.3,435,191.3z"/>
	</g>
	<g id="face_x2F_Contempt">
		<path id="_xD83D__xDD8D_-Ink_2_" class="st1" d="M262.6,548.5c0.2-1.4,1.1-2.6,2.4-3.7c2.8-2.4,7.4-3.9,11.2-3.1
			c2.1,0.5,4,1.4,5.9,2.5l1.9,1.1c2.7,1.5,5.5,2.9,9,2.9c4.5,0,8.2-2.7,10.8-5.4c0.5-0.5,1.2-0.9,2-1c0.6-0.1,1.3-0.1,1.8,0.2
			c1.6,1.1,2.5,2.3,2.9,3.7c0.5,1.5,0.2,3.1-0.4,4.7c-1.7,4-6,7.8-10.6,9.7l-0.5,0.2c-6.1,2.3-13.1,2.4-19.5,0.9
			c-6.7-1.6-12.7-4.9-16-9.2C262.7,550.8,262.4,549.6,262.6,548.5z M279.5,471.1c-38.4,6.6-18.5,72.7,30.5,36.4
			c5.8-4.7-1.2-15.1-7.5-11c-6.8,5.2-20.6,16.7-30.1,6.7c-8.1-11.4,3.4-22.1,10.9-26.7C285.3,475.1,283.7,470.4,279.5,471.1z
			 M385.1,411.9c6.2,2.8,11,6.9,16.5,10.7c0.9,0.6,0.3,1.8-0.7,1.6l-0.6-0.1c-1.5-0.1-3-0.1-4.5,0.1c-0.4,0-0.5-0.6-0.1-0.6l1.1-0.1
			c-4.6-0.7-9.3-1-13.8-1.8c-6-1.1-11.9-2.3-17.9-3.3c-12-2-24.3-1.4-36.2-3.3c-3.6-0.6-5.7-4.8-5.3-8.1c0.5-3.9,3.5-6,7.3-6.4
			c10.2-1.2,21.5,1.2,31.8,3.9l1.5,0.4l2.2,0.6l2.2,0.6C374.2,407.6,379.8,409.5,385.1,411.9z M271.8,412.3
			c-4.4,1.8-9.3,0.5-13.9,0.5c-4.6-0.1-9.1,0.5-13.5,1.5c-3.6,0.8-7,1.9-10.5,3.1l-2.3,0.8c-3.5,1.2-7.2,3.2-10.9,2.5
			c-0.7-0.1-1-0.8-1.1-1.4c-0.5-4,2.7-7.9,5.6-10.7l0.6-0.6l0.4-0.4c4.2-3.9,9.3-6.6,14.7-8.7c9.4-3.7,26.2-6.7,34.1,1.3
			C279.2,404.4,276.6,410.3,271.8,412.3z M352.7,464.3c-2.8-3-4.3-7.6-5-11.6c-0.4-2.5-1.6-4.1-3-5.2c-1.7-1.2-3.9-1.6-5.9-1.3
			c-2.2,0.4-4.2,1.6-5.3,3.4c-1,1.6-1.3,3.7-0.3,6c0.5,1.2,1,2.4,1.4,3.6l0.4,1c2.1,5.3,4.4,10.5,8.8,14.5c5.5,5,13.1,6.5,20.2,4.6
			c4.2-1.2,11.3-6.1,16.1-12.8c3.6-5,5.9-10.9,5.1-16.8c-0.1-0.6-0.5-1.4-1.5-2c-0.5-0.3-1.2-0.5-1.8-0.6c-0.7-0.1-1.4,0.1-2,0.4
			c-0.7,0.4-1.2,1-1.3,1.9c-0.6,4.1-2.9,7.6-5.7,10.4c-4,4.1-9.1,6.8-11.8,7.3c-3.4,0.7-6.1-0.5-8.1-2.5L352.7,464.3z M228,444.3
			c-0.5,1.3-0.6,2.7-0.4,4c1,5.6,4.4,10.5,9,13.7c4.4,3.1,9.9,4.5,15.5,3.3c4-0.9,10-4.7,13.2-9.4c1.3-2,2.2-4.1,2.3-6.2
			c0.1-2-0.4-4-3.1-6.7c-0.3-0.1-0.5-0.1-0.8-0.1c-0.7,0-1.3,0.3-1.8,0.7c-1.2,1.1-2,2.4-2.9,3.8l-0.2,0.4c-0.4,0.6-0.8,1.3-1.3,1.8
			c-1.8,2-4.3,3.7-7,4.2c-2.5,0.4-4.7-0.3-6.5-1.7c-2.1-1.6-3.5-4.1-4.1-6.8c-0.2-1.1-0.8-2.1-1.6-2.8c-0.8-0.8-1.8-1.4-2.8-1.7
			c-1.8-0.6-3.1-0.3-4.8,0.6C229.4,442.1,228.5,443.1,228,444.3z"/>
	</g>
	<g id="accessories_x2F_Glasses-4">
		<path id="_xD83C__xDFA8_-Background_2_" class="st0" d="M172.3,446.1c0.1-3-0.8-5.1-2.2-6.9c-1.6-1.9-6-5.5-8.6-6.9
			c-3.3-1.7,0.9-27.2,1.2-27.2c33.2-3.6,66,5.5,96.8,18.1c18.6,7,65.4-4.6,70.6-5.6c36.5-6.2,75.7-10.1,109.8,4.6
			c0.3,0.1,4.1,1.1,5.3,0.9c22.5-2.4,61.3-1.8,87.5,9.1c21.1,8.8,30.4,27.4,30.3,35.6c-0.2,2.1-13-6.4-16.8-8.7
			c-27.7-20.3-67-16.6-98.1-10.9c-1.7,0.3-17.5,2.2-20.3,4.4c-2,1.5-4.2,5.9-6.4,13.1c-3.4,24.5-18.2,42.2-37,50.5
			c-9.8,4.3-43,2.9-61.3-6.9c-10.4-7.1-16-17.7-21.7-28.3c-5.1-9.3-10.2-18.7-18-26c-1.4-1.3-4.7-0.1-5,1.8
			c-2.6,17.3-10.1,26.9-29.2,40.7c-19.1,13.8-55.1,1.1-64.2-10.4C176.6,477.3,171.7,463.4,172.3,446.1z M336,497.3
			c10.2,5.4,22,7.6,33.5,5.3c10.2-1.5,19.5-8,26.4-16.8c7.2-9.2,11.5-20.8,11.3-31.4c-0.2-8.9-3.6-17.2-11.2-22.9
			c-6.3-4.8-15.5-7.8-28.5-7.8c-16.3-0.8-33.5,2-47.7,9.6c-1-0.6-2-0.8-3-0.9c-1.7-0.1-3.2,0.5-4.5,1.7c-2,1.9-3.6,5.6-4.4,10.3
			c-1.6,9.3-0.4,21.9,3.5,27.6C316.6,482.8,325.5,491.8,336,497.3z M220.9,491.9c7.8,1.1,16.2-1,24.2-7.6c6-5,11-11.5,13.9-18.7
			c2.7-6.6,3.6-13.8,2-20.9l0-0.8c-1-2.3-2.1-3.4-3.3-4.1c-5.1-5.5-20.3-13.9-35-17.7c-11.4-2.9-22.2-2.8-28.3,2.4
			c-6.7,7.5-9.2,16.5-8.6,25.6c0.7,10,5,20.1,11.6,27.9C203.8,485.4,212.1,490.7,220.9,491.9z"/>
		<path id="_xD83D__xDD8D_-Ink_3_" class="st1" d="M329.7,414.7c37.1-6.3,76.1-8.4,110.7,6.6c0.5-0.9,2.1-1,2.8-0.3
			c38.3-4.1,123.7-0.7,122.8,47.1c-0.4,4.8-3.9,11.7-9.7,10.6c-5.3-4-5.5-13.3-11.8-17c-28.6-21-69.9-15.5-101-9.4l-1.9,0.4
			c-11.9-0.1-14.8,2.6-17.3,13.1l-0.2,0.7c-7.2,51.6-63.4,74.6-103,45.6c-19.6-13.5-23.2-38.9-39.8-54.4l0,0l-0.2-0.1
			c-11.6,78.3-114.7,65.2-111.9-11.5c0.4-13.7-26.4-3.5-14.4-40.1c1.2-3.9,4.7-4.8,7.5-3.8c33.7-3.6,67,5.5,98.2,18.3
			C284.1,429.3,306.7,419.1,329.7,414.7z M163,422.5c0.9,6.5,8.4,5.1,12.6,9.4c6,5.6,4.7,13.7,5.2,21.7c0.3,12.5,5,24.1,13.9,33.3
			c19,19,51.2,16.2,66.4-4c10.8-11,2.9-37.7,22.6-36.9c22.8,13.4,25.1,47.3,48,60.7c27.5,17.2,61.5,5.1,76-20.8l0.3-0.5
			c9.9-17.7,3.7-43,30.1-41.9c0.1-6.7,0.4-13.8,2.1-21C310.7,404.5,304,450,246.2,424.4c-9.3-3.5-16.7-6.5-26.4-8.8
			c-18.4-4.5-35.7-5.5-54.4-4.6C164,414.5,162.4,418.7,163,422.5z M370.6,504.8c-25.3,5-51.6-10.1-62.9-33.2
			c-7.8-10.8-4.9-48.1,6.9-38.7c16-9.1,35.6-12.3,54.2-11.4C437.6,421.4,410.1,499.1,370.6,504.8z M325.5,482.1
			c46,42.4,90.3-10.8,72.9-42.5c-18-19.1-64.6-7-81.7-4.4l-1,0.1C307.8,453.2,312.7,469,325.5,482.1z M263.8,441.8
			c0.3,0.3,0.3,0.3,0.3,0.5l0,0.7c3.7,16.4-4.7,33.3-17.4,43.9c-38.2,31.7-83.7-33.4-55-65.6c15.7-13.6,60.9,7.6,69.8,18.1
			C262.5,439.8,263.3,440.6,263.8,441.8z M254.9,446.1c-0.5-1.8-0.5-4.1,1.3-5.7c-33.3-14-73.8-34-64.1,18.5
			C211,507.2,258.4,485.1,254.9,446.1z M445.8,437.6l0.5,4.6c22.3-4.5,44.9-6.9,67.5-2.7c16.7,3.1,35.2,8.9,44.1,23.4
			c-8.5-43-100.2-34.6-114.1-39.3C444.8,428.1,445.3,432.7,445.8,437.6z"/>
	</g>
</g>
</svg>
